<svg width="320" height="70" viewBox="0 0 320 70" fill="none" xmlns="http://www.w3.org/2000/svg">
<g filter="url(#filter0_d_4_267)">
<rect x="25" y="10" width="270" height="50" rx="15" fill="white"/>
</g>
<g clip-path="url(#clip0_4_267)">
<path d="M47.15 23.85C45.6099 23.85 44.375 25.0849 44.375 26.625V43.275C44.375 44.8151 45.6238 46.05 47.15 46.05H58.25V43.275H47.15V29.4H69.35V34.95H72.125V29.4C72.125 27.8599 70.8763 26.625 69.35 26.625H58.25L55.475 23.85H47.15ZM66.575 37.725C66.3946 37.725 66.242 37.8499 66.2143 38.0164L65.9506 39.8479C65.5344 40.0283 65.132 40.2503 64.7713 40.5L63.0508 39.8063C62.8981 39.8063 62.7178 39.8063 62.6206 39.9866L61.2331 42.387C61.1499 42.5396 61.1776 42.72 61.3164 42.831L62.7871 43.9688C62.7594 44.2046 62.7455 44.4266 62.7455 44.6625C62.7455 44.8984 62.7594 45.1204 62.7871 45.3563L61.3164 46.494C61.1915 46.605 61.1499 46.7854 61.2331 46.938L62.6206 49.3384C62.7039 49.5188 62.8843 49.5188 63.0508 49.5188L64.7713 48.825C65.132 49.0748 65.5205 49.3106 65.9506 49.4771L66.2143 51.3086C66.242 51.4751 66.3808 51.6 66.575 51.6H69.35C69.5026 51.6 69.6553 51.4751 69.683 51.3086L69.9466 49.4771C70.3629 49.2968 70.7375 49.0748 71.1121 48.825L72.8188 49.5188C72.9991 49.5188 73.1795 49.5188 73.2766 49.3384L74.6641 46.938C74.7474 46.7854 74.7058 46.605 74.5809 46.494L73.0963 45.3563C73.124 45.1204 73.1518 44.8984 73.1518 44.6625C73.1518 44.4266 73.1379 44.2046 73.0963 43.9688L74.567 42.831C74.6919 42.72 74.7335 42.5396 74.6503 42.387L73.2628 39.9866C73.1795 39.8063 72.9991 39.8063 72.8188 39.8063L71.1121 40.5C70.7375 40.2503 70.3629 40.0144 69.9328 39.8479L69.6691 38.0164C69.6553 37.8499 69.5026 37.725 69.35 37.725H66.575ZM67.9625 42.5813C69.1141 42.5813 70.0438 43.5109 70.0438 44.6625C70.0438 45.8141 69.1141 46.7438 67.9625 46.7438C66.797 46.7438 65.8813 45.8141 65.8813 44.6625C65.8813 43.5109 66.8109 42.5813 67.9625 42.5813Z" fill="#4E67AA"/>
</g>
<path d="M103.098 32.5469H99.9872C99.9304 32.1444 99.8144 31.7869 99.6392 31.4744C99.464 31.1572 99.2391 30.8873 98.9645 30.6648C98.6899 30.4422 98.3726 30.2718 98.0128 30.1534C97.6577 30.035 97.2718 29.9759 96.8551 29.9759C96.1023 29.9759 95.4465 30.1629 94.8878 30.5369C94.3291 30.9062 93.8958 31.446 93.5881 32.1562C93.2803 32.8617 93.1264 33.7187 93.1264 34.7273C93.1264 35.7642 93.2803 36.6354 93.5881 37.3409C93.9006 38.0464 94.3362 38.5791 94.8949 38.9389C95.4536 39.2988 96.0999 39.4787 96.8338 39.4787C97.2457 39.4787 97.6269 39.4242 97.9773 39.3153C98.3324 39.2064 98.6473 39.0478 98.9219 38.8395C99.1965 38.6264 99.4238 38.3684 99.6037 38.0653C99.7884 37.7623 99.9162 37.4167 99.9872 37.0284L103.098 37.0426C103.018 37.7102 102.816 38.3542 102.494 38.9744C102.177 39.59 101.749 40.1416 101.209 40.6293C100.674 41.1122 100.035 41.4957 99.2912 41.7798C98.5526 42.0592 97.7169 42.1989 96.7841 42.1989C95.4867 42.1989 94.3267 41.9053 93.304 41.3182C92.286 40.7311 91.4811 39.8812 90.8892 38.7685C90.3021 37.6558 90.0085 36.3087 90.0085 34.7273C90.0085 33.1411 90.3068 31.7917 90.9034 30.679C91.5 29.5663 92.3097 28.7187 93.3324 28.1364C94.3551 27.5492 95.5057 27.2557 96.7841 27.2557C97.6269 27.2557 98.4081 27.3741 99.1278 27.6108C99.8523 27.8475 100.494 28.1932 101.053 28.6477C101.611 29.0975 102.066 29.6491 102.416 30.3026C102.771 30.956 102.999 31.7041 103.098 32.5469ZM105.303 27.4545H109.096L113.102 37.2273H113.272L117.278 27.4545H121.07V42H118.087V32.5327H117.967L114.202 41.929H112.171L108.407 32.4972H108.286V42H105.303V27.4545ZM131.495 31.6378C131.438 31.0649 131.194 30.6198 130.763 30.3026C130.332 29.9853 129.748 29.8267 129.009 29.8267C128.507 29.8267 128.083 29.8977 127.738 30.0398C127.392 30.1771 127.127 30.3688 126.942 30.6151C126.762 30.8613 126.672 31.1406 126.672 31.4531C126.663 31.7135 126.717 31.9408 126.836 32.1349C126.959 32.3291 127.127 32.4972 127.34 32.6392C127.553 32.7765 127.799 32.8973 128.078 33.0014C128.358 33.1009 128.656 33.1861 128.973 33.2571L130.28 33.5696C130.915 33.7116 131.497 33.901 132.027 34.1378C132.558 34.3745 133.017 34.6657 133.405 35.0114C133.793 35.357 134.094 35.7642 134.307 36.233C134.525 36.7017 134.636 37.2391 134.641 37.8452C134.636 38.7353 134.409 39.5071 133.959 40.1605C133.514 40.8092 132.87 41.3134 132.027 41.6733C131.189 42.0284 130.178 42.206 128.995 42.206C127.82 42.206 126.798 42.026 125.926 41.6662C125.06 41.3063 124.383 40.7737 123.895 40.0682C123.412 39.358 123.159 38.4796 123.135 37.4332H126.111C126.144 37.9209 126.284 38.3281 126.53 38.6548C126.781 38.9768 127.115 39.2206 127.532 39.3864C127.953 39.5473 128.429 39.6278 128.959 39.6278C129.48 39.6278 129.932 39.5521 130.316 39.4006C130.704 39.2491 131.005 39.0384 131.218 38.7685C131.431 38.4986 131.537 38.1884 131.537 37.8381C131.537 37.5114 131.44 37.2367 131.246 37.0142C131.057 36.7917 130.777 36.6023 130.408 36.446C130.043 36.2898 129.596 36.1477 129.066 36.0199L127.482 35.6222C126.256 35.3239 125.287 34.8575 124.577 34.223C123.867 33.5885 123.514 32.7339 123.519 31.6591C123.514 30.7784 123.748 30.009 124.222 29.3509C124.7 28.6927 125.356 28.179 126.189 27.8097C127.023 27.4403 127.97 27.2557 129.03 27.2557C130.11 27.2557 131.052 27.4403 131.857 27.8097C132.667 28.179 133.296 28.6927 133.746 29.3509C134.196 30.009 134.428 30.7713 134.442 31.6378H131.495Z" fill="#4E67AA"/>
<defs>
<filter id="filter0_d_4_267" x="22" y="9" width="280" height="60" filterUnits="userSpaceOnUse" color-interpolation-filters="sRGB">
<feFlood flood-opacity="0" result="BackgroundImageFix"/>
<feColorMatrix in="SourceAlpha" type="matrix" values="0 0 0 0 0 0 0 0 0 0 0 0 0 0 0 0 0 0 127 0" result="hardAlpha"/>
<feOffset dx="2" dy="4"/>
<feGaussianBlur stdDeviation="2.5"/>
<feComposite in2="hardAlpha" operator="out"/>
<feColorMatrix type="matrix" values="0 0 0 0 0 0 0 0 0 0 0 0 0 0 0 0 0 0 0.25 0"/>
<feBlend mode="normal" in2="BackgroundImageFix" result="effect1_dropShadow_4_267"/>
<feBlend mode="normal" in="SourceGraphic" in2="effect1_dropShadow_4_267" result="shape"/>
</filter>
<clipPath id="clip0_4_267">
<rect width="33.3" height="33.3" fill="white" transform="translate(41.6 18.3)"/>
</clipPath>
</defs>
</svg>
