<svg width="320" height="70" viewBox="0 0 320 70" fill="none" xmlns="http://www.w3.org/2000/svg">
<g filter="url(#filter0_d_6_322)">
<rect x="25" y="10" width="270" height="50" rx="15" fill="white"/>
</g>
<g clip-path="url(#clip0_6_322)">
<path fill-rule="evenodd" clip-rule="evenodd" d="M68.2281 38.3027C68.0735 38.2619 67.9447 38.2211 67.8288 38.1667C67.7432 38.1265 67.6716 38.0789 67.6088 38.0238C67.5671 37.9872 67.5492 37.9295 67.5544 37.8726C67.6165 37.1893 67.5482 36.5867 67.6099 35.9091C67.8674 33.1619 69.5031 34.0323 70.9713 33.5835C71.8144 33.3327 72.6575 32.8391 72.9656 31.8682C73.016 31.7093 72.9716 31.5365 72.8668 31.4106C71.905 30.2559 70.8403 29.2355 69.6834 28.3611C65.8049 25.4451 60.7643 24.2343 56.1353 24.9426C55.96 24.9694 55.868 25.1745 55.9638 25.332C56.5501 26.2953 57.3235 27.0837 58.2105 27.664C58.3717 27.7695 58.3069 27.9973 58.1219 27.9535C57.6869 27.8505 57.128 27.6496 56.6024 27.2579C56.5517 27.2202 56.4864 27.2107 56.4288 27.2349C56.1938 27.3339 55.8545 27.4766 55.5741 27.6044C55.4126 27.678 55.3798 27.8978 55.5127 28.0194C57.8377 30.1476 61.2201 30.4711 63.8685 28.7681C64.0299 28.6643 64.2882 28.8775 64.2363 29.0693C64.153 29.3765 64.0558 29.7988 63.9522 30.3739C63.2954 33.8827 61.4022 33.6107 59.0582 32.7267C54.3745 30.9341 51.7174 32.4649 49.355 29.4347C49.1909 29.2241 48.9023 29.1511 48.707 29.3296C48.2194 29.7755 47.9308 30.4263 47.9308 31.1219C47.9308 31.9458 48.3335 32.6516 48.9305 33.0741C49.0051 33.1269 49.1044 33.1046 49.1601 33.0301C49.3056 32.8357 49.4246 32.7068 49.5728 32.6253C49.735 32.5361 49.8141 32.7811 49.6772 32.9091C49.1754 33.3782 49.0314 33.937 48.7035 35.0387C48.1884 36.7659 48.4073 38.5339 45.9989 38.9963C44.7239 39.0643 44.7496 39.9755 44.286 41.3355C43.7479 42.977 43.0433 43.7041 41.7393 45.1385C41.5609 45.3347 41.5456 45.6484 41.7416 45.8248C42.2625 46.2936 42.7997 46.3194 43.3458 46.0819C44.6981 45.4835 45.7413 43.6339 46.7202 42.4371C47.8149 41.1043 50.4422 41.6755 52.4255 40.3699C53.4952 39.6773 54.1379 38.7926 53.9323 37.4673C53.8992 37.2538 54.1305 37.1256 54.2144 37.3229C54.3737 37.6975 54.4781 38.0972 54.5215 38.51C54.5328 38.6183 54.6245 38.6984 54.7275 38.6923C56.8733 38.5649 59.6482 41.0642 62.2415 41.7405C62.3992 41.7815 62.5113 41.5892 62.4222 41.4458C62.2581 41.1819 62.1186 40.9081 62.0075 40.6283C61.8928 40.3377 61.8059 40.0556 61.7444 39.7834C61.6964 39.5705 61.9909 39.5133 62.0915 39.7048C62.7566 40.9707 64.0857 42.1595 65.9356 42.3011C66.5667 42.3555 67.2622 42.2739 67.9833 42.0427C68.8463 41.7708 69.6447 41.4171 70.5978 41.6075C71.3062 41.7435 71.963 42.1243 72.3751 42.7635C72.9534 43.6541 74.1742 43.8901 74.8248 42.9593C74.9134 42.8326 74.9208 42.6633 74.8623 42.5185C73.4296 38.9724 69.7917 38.7288 68.2281 38.3027Z" fill="#4E67AA"/>
</g>
<path d="M95.4205 42H90.2642V27.4545H95.4631C96.9261 27.4545 98.1856 27.7457 99.2415 28.3281C100.297 28.9058 101.109 29.7367 101.678 30.821C102.25 31.9053 102.537 33.2027 102.537 34.7131C102.537 36.2282 102.25 37.5303 101.678 38.6193C101.109 39.7083 100.293 40.544 99.2273 41.1264C98.1667 41.7088 96.8977 42 95.4205 42ZM93.3395 39.3651H95.2926C96.2017 39.3651 96.9664 39.2041 97.5866 38.8821C98.2116 38.5554 98.6804 38.0511 98.9929 37.3693C99.3101 36.6828 99.4688 35.7973 99.4688 34.7131C99.4688 33.6383 99.3101 32.7599 98.9929 32.0781C98.6804 31.3963 98.214 30.8944 97.5938 30.5724C96.9735 30.2505 96.2088 30.0895 95.2997 30.0895H93.3395V39.3651ZM104.758 42V31.0909H107.784V42H104.758ZM106.278 29.6847C105.828 29.6847 105.442 29.5355 105.12 29.2372C104.803 28.9342 104.645 28.572 104.645 28.1506C104.645 27.7339 104.803 27.3764 105.12 27.0781C105.442 26.7751 105.828 26.6236 106.278 26.6236C106.728 26.6236 107.111 26.7751 107.429 27.0781C107.751 27.3764 107.912 27.7339 107.912 28.1506C107.912 28.572 107.751 28.9342 107.429 29.2372C107.111 29.5355 106.728 29.6847 106.278 29.6847ZM110.207 42V31.0909H113.141V32.9943H113.254C113.453 32.3172 113.787 31.8059 114.256 31.4602C114.724 31.1098 115.264 30.9347 115.875 30.9347C116.027 30.9347 116.19 30.9441 116.365 30.9631C116.54 30.982 116.694 31.008 116.827 31.0412V33.7259C116.685 33.6832 116.488 33.6454 116.237 33.6122C115.986 33.5791 115.757 33.5625 115.548 33.5625C115.103 33.5625 114.705 33.6596 114.355 33.8537C114.009 34.0431 113.735 34.3082 113.531 34.6491C113.332 34.9901 113.233 35.383 113.233 35.8281V42H110.207ZM122.855 42.2131C121.733 42.2131 120.767 41.9858 119.957 41.5312C119.152 41.072 118.532 40.4233 118.096 39.5852C117.661 38.7424 117.443 37.7457 117.443 36.5952C117.443 35.473 117.661 34.4882 118.096 33.6406C118.532 32.7931 119.145 32.1326 119.936 31.6591C120.731 31.1856 121.664 30.9489 122.734 30.9489C123.454 30.9489 124.124 31.0649 124.744 31.2969C125.369 31.5241 125.913 31.8674 126.377 32.3267C126.846 32.786 127.211 33.3636 127.471 34.0597C127.732 34.7509 127.862 35.5606 127.862 36.4886V37.3196H118.65V35.4446H125.014C125.014 35.009 124.919 34.6231 124.73 34.2869C124.54 33.9508 124.278 33.688 123.941 33.4986C123.61 33.3045 123.224 33.2074 122.784 33.2074C122.324 33.2074 121.917 33.3139 121.562 33.527C121.212 33.7353 120.937 34.017 120.738 34.3722C120.539 34.7225 120.438 35.1132 120.433 35.544V37.3267C120.433 37.8665 120.532 38.3329 120.731 38.7259C120.935 39.1188 121.221 39.4219 121.591 39.6349C121.96 39.848 122.398 39.9545 122.904 39.9545C123.241 39.9545 123.548 39.9072 123.828 39.8125C124.107 39.7178 124.346 39.5758 124.545 39.3864C124.744 39.197 124.895 38.965 125 38.6903L127.798 38.875C127.656 39.5473 127.365 40.1345 126.924 40.6364C126.489 41.1335 125.925 41.5218 125.234 41.8011C124.547 42.0758 123.754 42.2131 122.855 42.2131ZM134.765 42.2131C133.648 42.2131 132.687 41.9763 131.882 41.5028C131.082 41.0246 130.466 40.3617 130.035 39.5142C129.609 38.6667 129.396 37.6913 129.396 36.5881C129.396 35.4706 129.611 34.4905 130.042 33.6477C130.478 32.8002 131.096 32.1397 131.896 31.6662C132.696 31.188 133.648 30.9489 134.751 30.9489C135.703 30.9489 136.536 31.1217 137.251 31.4673C137.966 31.813 138.532 32.2983 138.949 32.9233C139.365 33.5483 139.595 34.2822 139.637 35.125H136.782C136.702 34.5805 136.489 34.1425 136.143 33.8111C135.802 33.4749 135.355 33.3068 134.801 33.3068C134.332 33.3068 133.922 33.4347 133.572 33.6903C133.226 33.9413 132.957 34.3082 132.762 34.7912C132.568 35.2741 132.471 35.8589 132.471 36.5455C132.471 37.2415 132.566 37.8333 132.755 38.321C132.949 38.8087 133.222 39.1804 133.572 39.4361C133.922 39.6918 134.332 39.8196 134.801 39.8196C135.146 39.8196 135.457 39.7486 135.731 39.6065C136.011 39.4645 136.24 39.2585 136.42 38.9886C136.605 38.714 136.725 38.3849 136.782 38.0014H139.637C139.59 38.8348 139.363 39.5687 138.956 40.2031C138.553 40.8329 137.997 41.3253 137.287 41.6804C136.576 42.0355 135.736 42.2131 134.765 42.2131ZM147.377 31.0909V33.3636H140.808V31.0909H147.377ZM142.299 28.4773H145.325V38.6477C145.325 38.9271 145.367 39.1449 145.452 39.3011C145.538 39.4527 145.656 39.5592 145.808 39.6207C145.964 39.6823 146.144 39.7131 146.347 39.7131C146.489 39.7131 146.631 39.7012 146.773 39.6776C146.915 39.6491 147.024 39.6278 147.1 39.6136L147.576 41.8651C147.424 41.9124 147.211 41.9669 146.937 42.0284C146.662 42.0947 146.328 42.1349 145.935 42.1491C145.206 42.1776 144.567 42.0805 144.018 41.858C143.473 41.6354 143.049 41.2898 142.746 40.821C142.443 40.3523 142.294 39.7604 142.299 39.0455V28.4773ZM156.344 37.3551V31.0909H159.369V42H156.464V40.0185H156.351C156.105 40.6577 155.695 41.1714 155.122 41.5597C154.554 41.9479 153.86 42.142 153.041 42.142C152.312 42.142 151.67 41.9763 151.116 41.6449C150.563 41.3134 150.129 40.8423 149.817 40.2315C149.509 39.6207 149.353 38.8892 149.348 38.0369V31.0909H152.374V37.4972C152.378 38.1411 152.551 38.6501 152.892 39.0241C153.233 39.3982 153.69 39.5852 154.263 39.5852C154.627 39.5852 154.968 39.5024 155.286 39.3366C155.603 39.1662 155.858 38.9152 156.053 38.5838C156.251 38.2524 156.348 37.8428 156.344 37.3551ZM170.866 34.2017L168.096 34.3722C168.049 34.1354 167.947 33.9223 167.791 33.733C167.635 33.5388 167.429 33.3849 167.173 33.2713C166.922 33.1529 166.621 33.0938 166.271 33.0938C165.802 33.0938 165.407 33.1932 165.085 33.392C164.763 33.5862 164.602 33.8466 164.602 34.1733C164.602 34.4337 164.706 34.6539 164.914 34.8338C165.123 35.0137 165.48 35.1581 165.987 35.267L167.961 35.6648C169.022 35.8826 169.813 36.233 170.333 36.7159C170.854 37.1989 171.115 37.8333 171.115 38.6193C171.115 39.3343 170.904 39.9616 170.483 40.5014C170.066 41.0412 169.493 41.4626 168.764 41.7656C168.039 42.0639 167.204 42.2131 166.257 42.2131C164.813 42.2131 163.662 41.9124 162.805 41.3111C161.953 40.705 161.453 39.8812 161.306 38.8395L164.282 38.6832C164.372 39.1236 164.59 39.4598 164.936 39.6918C165.281 39.919 165.724 40.0327 166.264 40.0327C166.794 40.0327 167.22 39.9309 167.542 39.7273C167.869 39.5189 168.035 39.2514 168.039 38.9247C168.035 38.6501 167.919 38.4252 167.691 38.25C167.464 38.0701 167.114 37.9328 166.64 37.8381L164.751 37.4616C163.686 37.2486 162.893 36.8793 162.372 36.3537C161.856 35.8281 161.598 35.1581 161.598 34.3438C161.598 33.643 161.787 33.0393 162.166 32.5327C162.549 32.026 163.087 31.6354 163.778 31.3608C164.474 31.0862 165.288 30.9489 166.221 30.9489C167.599 30.9489 168.683 31.2401 169.474 31.8224C170.27 32.4048 170.734 33.1979 170.866 34.2017Z" fill="#4E67AA"/>
<defs>
<filter id="filter0_d_6_322" x="22" y="9" width="280" height="60" filterUnits="userSpaceOnUse" color-interpolation-filters="sRGB">
<feFlood flood-opacity="0" result="BackgroundImageFix"/>
<feColorMatrix in="SourceAlpha" type="matrix" values="0 0 0 0 0 0 0 0 0 0 0 0 0 0 0 0 0 0 127 0" result="hardAlpha"/>
<feOffset dx="2" dy="4"/>
<feGaussianBlur stdDeviation="2.5"/>
<feComposite in2="hardAlpha" operator="out"/>
<feColorMatrix type="matrix" values="0 0 0 0 0 0 0 0 0 0 0 0 0 0 0 0 0 0 0.25 0"/>
<feBlend mode="normal" in2="BackgroundImageFix" result="effect1_dropShadow_6_322"/>
<feBlend mode="normal" in="SourceGraphic" in2="effect1_dropShadow_6_322" result="shape"/>
</filter>
<clipPath id="clip0_6_322">
<rect width="33.3" height="33.3" fill="white" transform="translate(41.6 18.3)"/>
</clipPath>
</defs>
</svg>
