<svg width="320" height="70" viewBox="0 0 320 70" fill="none" xmlns="http://www.w3.org/2000/svg">
<g filter="url(#filter0_d_6_261)">
<rect x="25" y="10" width="270" height="50" rx="15" fill="white"/>
</g>
<g clip-path="url(#clip0_6_261)">
<path d="M72.125 25.9313H54.0875C52.5612 25.9313 51.3125 27.18 51.3125 28.7063V41.1938C51.3125 42.7339 52.5612 43.9688 54.0875 43.9688H72.125C73.6651 43.9688 74.9 42.7339 74.9 41.1938V28.7063C74.9 27.18 73.6651 25.9313 72.125 25.9313ZM72.125 41.1938H54.0875V31.0234L63.1062 35.6438L72.125 31.0234V41.1938ZM63.1062 33.2989L54.0875 28.7063H72.125L63.1062 33.2989ZM48.5375 41.1938C48.5375 41.4296 48.5791 41.6516 48.6069 41.8875H42.9875C42.2216 41.8875 41.6 41.2631 41.6 40.5C41.6 39.7369 42.2216 39.1125 42.9875 39.1125H48.5375V41.1938ZM45.7625 28.0125H48.6069C48.5791 28.2484 48.5375 28.4704 48.5375 28.7063V30.7875H45.7625C44.9994 30.7875 44.375 30.1631 44.375 29.4C44.375 28.6369 44.9994 28.0125 45.7625 28.0125ZM42.9875 34.95C42.9875 34.1869 43.6119 33.5625 44.375 33.5625H48.5375V36.3375H44.375C43.6119 36.3375 42.9875 35.7131 42.9875 34.95Z" fill="#4E67AA"/>
</g>
<path d="M102.43 27.4545V42H99.7741L93.446 32.8452H93.3395V42H90.2642V27.4545H92.9631L99.2415 36.6023H99.3693V27.4545H102.43ZM109.886 42.2131C108.764 42.2131 107.798 41.9858 106.988 41.5312C106.183 41.072 105.563 40.4233 105.127 39.5852C104.692 38.7424 104.474 37.7457 104.474 36.5952C104.474 35.473 104.692 34.4882 105.127 33.6406C105.563 32.7931 106.176 32.1326 106.967 31.6591C107.762 31.1856 108.695 30.9489 109.765 30.9489C110.485 30.9489 111.155 31.0649 111.775 31.2969C112.4 31.5241 112.945 31.8674 113.409 32.3267C113.877 32.786 114.242 33.3636 114.502 34.0597C114.763 34.7509 114.893 35.5606 114.893 36.4886V37.3196H105.681V35.4446H112.045C112.045 35.009 111.95 34.6231 111.761 34.2869C111.572 33.9508 111.309 33.688 110.973 33.4986C110.641 33.3045 110.255 33.2074 109.815 33.2074C109.356 33.2074 108.949 33.3139 108.593 33.527C108.243 33.7353 107.968 34.017 107.77 34.3722C107.571 34.7225 107.469 35.1132 107.464 35.544V37.3267C107.464 37.8665 107.564 38.3329 107.762 38.7259C107.966 39.1188 108.252 39.4219 108.622 39.6349C108.991 39.848 109.429 39.9545 109.936 39.9545C110.272 39.9545 110.58 39.9072 110.859 39.8125C111.138 39.7178 111.377 39.5758 111.576 39.3864C111.775 39.197 111.927 38.965 112.031 38.6903L114.829 38.875C114.687 39.5473 114.396 40.1345 113.956 40.6364C113.52 41.1335 112.957 41.5218 112.265 41.8011C111.579 42.0758 110.786 42.2131 109.886 42.2131ZM118.941 42L115.973 31.0909H119.034L120.724 38.4205H120.824L122.585 31.0909H125.589L127.379 38.3778H127.471L129.133 31.0909H132.187L129.225 42H126.022L124.147 35.1392H124.012L122.137 42H118.941ZM142.878 34.2017L140.108 34.3722C140.061 34.1354 139.959 33.9223 139.803 33.733C139.646 33.5388 139.44 33.3849 139.185 33.2713C138.934 33.1529 138.633 33.0938 138.283 33.0938C137.814 33.0938 137.419 33.1932 137.097 33.392C136.775 33.5862 136.614 33.8466 136.614 34.1733C136.614 34.4337 136.718 34.6539 136.926 34.8338C137.134 35.0137 137.492 35.1581 137.999 35.267L139.973 35.6648C141.034 35.8826 141.824 36.233 142.345 36.7159C142.866 37.1989 143.126 37.8333 143.126 38.6193C143.126 39.3343 142.916 39.9616 142.494 40.5014C142.078 41.0412 141.505 41.4626 140.776 41.7656C140.051 42.0639 139.215 42.2131 138.268 42.2131C136.824 42.2131 135.674 41.9124 134.817 41.3111C133.964 40.705 133.465 39.8812 133.318 38.8395L136.294 38.6832C136.384 39.1236 136.602 39.4598 136.947 39.6918C137.293 39.919 137.736 40.0327 138.276 40.0327C138.806 40.0327 139.232 39.9309 139.554 39.7273C139.881 39.5189 140.046 39.2514 140.051 38.9247C140.046 38.6501 139.93 38.4252 139.703 38.25C139.476 38.0701 139.125 37.9328 138.652 37.8381L136.763 37.4616C135.697 37.2486 134.904 36.8793 134.384 36.3537C133.867 35.8281 133.609 35.1581 133.609 34.3438C133.609 33.643 133.799 33.0393 134.178 32.5327C134.561 32.026 135.098 31.6354 135.79 31.3608C136.486 31.0862 137.3 30.9489 138.233 30.9489C139.611 30.9489 140.695 31.2401 141.486 31.8224C142.281 32.4048 142.745 33.1979 142.878 34.2017ZM148.057 27.4545V42H145.032V27.4545H148.057ZM155.452 42.2131C154.33 42.2131 153.364 41.9858 152.555 41.5312C151.75 41.072 151.129 40.4233 150.694 39.5852C150.258 38.7424 150.04 37.7457 150.04 36.5952C150.04 35.473 150.258 34.4882 150.694 33.6406C151.129 32.7931 151.743 32.1326 152.533 31.6591C153.329 31.1856 154.262 30.9489 155.332 30.9489C156.051 30.9489 156.721 31.0649 157.342 31.2969C157.967 31.5241 158.511 31.8674 158.975 32.3267C159.444 32.786 159.808 33.3636 160.069 34.0597C160.329 34.7509 160.46 35.5606 160.46 36.4886V37.3196H151.248V35.4446H157.612C157.612 35.009 157.517 34.6231 157.327 34.2869C157.138 33.9508 156.875 33.688 156.539 33.4986C156.208 33.3045 155.822 33.2074 155.381 33.2074C154.922 33.2074 154.515 33.3139 154.16 33.527C153.809 33.7353 153.535 34.017 153.336 34.3722C153.137 34.7225 153.035 35.1132 153.031 35.544V37.3267C153.031 37.8665 153.13 38.3329 153.329 38.7259C153.532 39.1188 153.819 39.4219 154.188 39.6349C154.558 39.848 154.996 39.9545 155.502 39.9545C155.838 39.9545 156.146 39.9072 156.425 39.8125C156.705 39.7178 156.944 39.5758 157.143 39.3864C157.342 39.197 157.493 38.965 157.597 38.6903L160.396 38.875C160.254 39.5473 159.962 40.1345 159.522 40.6364C159.086 41.1335 158.523 41.5218 157.832 41.8011C157.145 42.0758 156.352 42.2131 155.452 42.2131ZM168.237 31.0909V33.3636H161.667V31.0909H168.237ZM163.158 28.4773H166.184V38.6477C166.184 38.9271 166.227 39.1449 166.312 39.3011C166.397 39.4527 166.515 39.5592 166.667 39.6207C166.823 39.6823 167.003 39.7131 167.207 39.7131C167.349 39.7131 167.491 39.7012 167.633 39.6776C167.775 39.6491 167.884 39.6278 167.96 39.6136L168.435 41.8651C168.284 41.9124 168.071 41.9669 167.796 42.0284C167.522 42.0947 167.188 42.1349 166.795 42.1491C166.066 42.1776 165.426 42.0805 164.877 41.858C164.333 41.6354 163.909 41.2898 163.606 40.821C163.303 40.3523 163.154 39.7604 163.158 39.0455V28.4773ZM176.01 31.0909V33.3636H169.44V31.0909H176.01ZM170.932 28.4773H173.957V38.6477C173.957 38.9271 174 39.1449 174.085 39.3011C174.17 39.4527 174.289 39.5592 174.44 39.6207C174.597 39.6823 174.777 39.7131 174.98 39.7131C175.122 39.7131 175.264 39.7012 175.406 39.6776C175.548 39.6491 175.657 39.6278 175.733 39.6136L176.209 41.8651C176.057 41.9124 175.844 41.9669 175.57 42.0284C175.295 42.0947 174.961 42.1349 174.568 42.1491C173.839 42.1776 173.2 42.0805 172.651 41.858C172.106 41.6354 171.682 41.2898 171.379 40.821C171.076 40.3523 170.927 39.7604 170.932 39.0455V28.4773ZM182.835 42.2131C181.713 42.2131 180.747 41.9858 179.938 41.5312C179.133 41.072 178.512 40.4233 178.077 39.5852C177.641 38.7424 177.423 37.7457 177.423 36.5952C177.423 35.473 177.641 34.4882 178.077 33.6406C178.512 32.7931 179.125 32.1326 179.916 31.6591C180.712 31.1856 181.644 30.9489 182.714 30.9489C183.434 30.9489 184.104 31.0649 184.724 31.2969C185.349 31.5241 185.894 31.8674 186.358 32.3267C186.827 32.786 187.191 33.3636 187.452 34.0597C187.712 34.7509 187.842 35.5606 187.842 36.4886V37.3196H178.631V35.4446H184.994C184.994 35.009 184.9 34.6231 184.71 34.2869C184.521 33.9508 184.258 33.688 183.922 33.4986C183.59 33.3045 183.205 33.2074 182.764 33.2074C182.305 33.2074 181.898 33.3139 181.543 33.527C181.192 33.7353 180.918 34.017 180.719 34.3722C180.52 34.7225 180.418 35.1132 180.413 35.544V37.3267C180.413 37.8665 180.513 38.3329 180.712 38.7259C180.915 39.1188 181.202 39.4219 181.571 39.6349C181.94 39.848 182.378 39.9545 182.885 39.9545C183.221 39.9545 183.529 39.9072 183.808 39.8125C184.088 39.7178 184.327 39.5758 184.526 39.3864C184.724 39.197 184.876 38.965 184.98 38.6903L187.778 38.875C187.636 39.5473 187.345 40.1345 186.905 40.6364C186.469 41.1335 185.906 41.5218 185.214 41.8011C184.528 42.0758 183.735 42.2131 182.835 42.2131ZM189.817 42V31.0909H192.75V32.9943H192.864C193.063 32.3172 193.396 31.8059 193.865 31.4602C194.334 31.1098 194.874 30.9347 195.484 30.9347C195.636 30.9347 195.799 30.9441 195.974 30.9631C196.15 30.982 196.304 31.008 196.436 31.0412V33.7259C196.294 33.6832 196.098 33.6454 195.847 33.6122C195.596 33.5791 195.366 33.5625 195.158 33.5625C194.713 33.5625 194.315 33.6596 193.964 33.8537C193.619 34.0431 193.344 34.3082 193.141 34.6491C192.942 34.9901 192.842 35.383 192.842 35.8281V42H189.817Z" fill="#4E67AA"/>
<defs>
<filter id="filter0_d_6_261" x="22" y="9" width="280" height="60" filterUnits="userSpaceOnUse" color-interpolation-filters="sRGB">
<feFlood flood-opacity="0" result="BackgroundImageFix"/>
<feColorMatrix in="SourceAlpha" type="matrix" values="0 0 0 0 0 0 0 0 0 0 0 0 0 0 0 0 0 0 127 0" result="hardAlpha"/>
<feOffset dx="2" dy="4"/>
<feGaussianBlur stdDeviation="2.5"/>
<feComposite in2="hardAlpha" operator="out"/>
<feColorMatrix type="matrix" values="0 0 0 0 0 0 0 0 0 0 0 0 0 0 0 0 0 0 0.25 0"/>
<feBlend mode="normal" in2="BackgroundImageFix" result="effect1_dropShadow_6_261"/>
<feBlend mode="normal" in="SourceGraphic" in2="effect1_dropShadow_6_261" result="shape"/>
</filter>
<clipPath id="clip0_6_261">
<rect width="33.3" height="33.3" fill="white" transform="translate(41.6 18.3)"/>
</clipPath>
</defs>
</svg>
