<svg width="320" height="70" viewBox="0 0 320 70" fill="none" xmlns="http://www.w3.org/2000/svg">
<g filter="url(#filter0_d_6_428)">
<rect x="25" y="10" width="270" height="50" rx="15" fill="white"/>
</g>
<g clip-path="url(#clip0_6_428)">
<path d="M57.4449 18.7455L44.5704 26.1696C44.0883 26.4333 43.7972 26.967 43.7898 27.5222L43.8005 42.3802C43.793 42.9354 44.0804 43.4292 44.5551 43.7207L57.4402 51.1546C57.9266 51.4224 58.5055 51.4415 58.9993 51.1541L71.85 43.7184C72.3322 43.4548 72.6233 42.921 72.6307 42.3658L72.62 27.5078C72.6274 26.9526 72.3401 26.4588 71.8654 26.1673L58.9802 18.7334C58.7431 18.6172 58.4827 18.5484 58.2228 18.5386C57.9275 18.5409 57.6918 18.6018 57.4449 18.7455Z" fill="url(#paint0_linear_6_428)"/>
<path d="M44.1173 43.3284C44.2378 43.4914 44.3909 43.6304 44.5525 43.7127L55.6268 50.1024L57.4444 51.1293C57.735 51.318 58.0427 51.3932 58.3348 51.3791C58.4568 51.3394 58.5461 51.3238 58.6354 51.3082L72.1967 26.4644C72.1003 26.3339 71.9954 26.2601 71.8338 26.1779L63.4334 21.2916L58.9745 18.7371C58.837 18.6875 58.7321 18.6137 58.5619 18.5882L44.1173 43.3284Z" fill="url(#paint1_linear_6_428)"/>
<path d="M58.059 18.5494C57.8507 18.5792 57.6127 18.6387 57.4342 18.7576L44.6124 26.1354L58.4457 51.3328C58.6242 51.303 58.8027 51.2435 58.9812 51.1543L71.8625 43.717C72.2492 43.479 72.517 43.0923 72.6062 42.6758L58.5052 18.5792C58.3862 18.5494 58.297 18.5494 58.178 18.5494C58.1482 18.5494 58.0887 18.5494 58.059 18.5494Z" fill="url(#paint2_linear_6_428)"/>
</g>
<path d="M102.43 27.4545V42H99.7741L93.446 32.8452H93.3395V42H90.2642V27.4545H92.9631L99.2415 36.6023H99.3693V27.4545H102.43ZM109.843 42.2131C108.74 42.2131 107.786 41.9787 106.981 41.5099C106.181 41.0365 105.563 40.3783 105.127 39.5355C104.692 38.688 104.474 37.7055 104.474 36.5881C104.474 35.4612 104.692 34.4763 105.127 33.6335C105.563 32.786 106.181 32.1278 106.981 31.6591C107.786 31.1856 108.74 30.9489 109.843 30.9489C110.947 30.9489 111.898 31.1856 112.699 31.6591C113.503 32.1278 114.124 32.786 114.559 33.6335C114.995 34.4763 115.213 35.4612 115.213 36.5881C115.213 37.7055 114.995 38.688 114.559 39.5355C114.124 40.3783 113.503 41.0365 112.699 41.5099C111.898 41.9787 110.947 42.2131 109.843 42.2131ZM109.858 39.8693C110.359 39.8693 110.779 39.7273 111.115 39.4432C111.451 39.1544 111.704 38.7614 111.875 38.2642C112.05 37.767 112.137 37.2012 112.137 36.5668C112.137 35.9323 112.05 35.3665 111.875 34.8693C111.704 34.3722 111.451 33.9792 111.115 33.6903C110.779 33.4015 110.359 33.2571 109.858 33.2571C109.351 33.2571 108.925 33.4015 108.579 33.6903C108.238 33.9792 107.98 34.3722 107.805 34.8693C107.635 35.3665 107.549 35.9323 107.549 36.5668C107.549 37.2012 107.635 37.767 107.805 38.2642C107.98 38.7614 108.238 39.1544 108.579 39.4432C108.925 39.7273 109.351 39.8693 109.858 39.8693ZM121.2 42.1776C120.371 42.1776 119.621 41.9645 118.949 41.5384C118.281 41.1075 117.751 40.4754 117.358 39.642C116.969 38.804 116.775 37.7765 116.775 36.5597C116.775 35.3097 116.976 34.2704 117.379 33.4418C117.781 32.6084 118.316 31.9858 118.984 31.5739C119.656 31.1572 120.393 30.9489 121.193 30.9489C121.804 30.9489 122.313 31.053 122.72 31.2614C123.132 31.465 123.463 31.7206 123.714 32.0284C123.97 32.3314 124.164 32.6297 124.297 32.9233H124.389V27.4545H127.407V42H124.424V40.2528H124.297C124.154 40.5559 123.953 40.8565 123.693 41.1548C123.437 41.4484 123.103 41.6922 122.691 41.8864C122.284 42.0805 121.787 42.1776 121.2 42.1776ZM122.159 39.7699C122.646 39.7699 123.058 39.6373 123.395 39.3722C123.735 39.1023 123.996 38.7259 124.176 38.2429C124.36 37.7599 124.453 37.1941 124.453 36.5455C124.453 35.8968 124.363 35.3333 124.183 34.8551C124.003 34.3769 123.743 34.0076 123.402 33.7472C123.061 33.4867 122.646 33.3565 122.159 33.3565C121.662 33.3565 121.243 33.4915 120.902 33.7614C120.561 34.0312 120.303 34.4053 120.127 34.8835C119.952 35.3617 119.865 35.9157 119.865 36.5455C119.865 37.1799 119.952 37.741 120.127 38.2287C120.307 38.7116 120.565 39.0904 120.902 39.3651C121.243 39.6349 121.662 39.7699 122.159 39.7699ZM134.866 42.2131C133.744 42.2131 132.778 41.9858 131.969 41.5312C131.164 41.072 130.544 40.4233 130.108 39.5852C129.672 38.7424 129.455 37.7457 129.455 36.5952C129.455 35.473 129.672 34.4882 130.108 33.6406C130.544 32.7931 131.157 32.1326 131.947 31.6591C132.743 31.1856 133.676 30.9489 134.746 30.9489C135.465 30.9489 136.135 31.0649 136.756 31.2969C137.381 31.5241 137.925 31.8674 138.389 32.3267C138.858 32.786 139.223 33.3636 139.483 34.0597C139.743 34.7509 139.874 35.5606 139.874 36.4886V37.3196H130.662V35.4446H137.026C137.026 35.009 136.931 34.6231 136.741 34.2869C136.552 33.9508 136.289 33.688 135.953 33.4986C135.622 33.3045 135.236 33.2074 134.795 33.2074C134.336 33.2074 133.929 33.3139 133.574 33.527C133.223 33.7353 132.949 34.017 132.75 34.3722C132.551 34.7225 132.449 35.1132 132.445 35.544V37.3267C132.445 37.8665 132.544 38.3329 132.743 38.7259C132.946 39.1188 133.233 39.4219 133.602 39.6349C133.972 39.848 134.41 39.9545 134.916 39.9545C135.252 39.9545 135.56 39.9072 135.839 39.8125C136.119 39.7178 136.358 39.5758 136.557 39.3864C136.756 39.197 136.907 38.965 137.011 38.6903L139.81 38.875C139.668 39.5473 139.376 40.1345 138.936 40.6364C138.5 41.1335 137.937 41.5218 137.246 41.8011C136.559 42.0758 135.766 42.2131 134.866 42.2131ZM147.729 27.4545H150.768V37.5966C150.768 38.5341 150.558 39.3485 150.136 40.0398C149.72 40.7311 149.14 41.2637 148.396 41.6378C147.653 42.0118 146.789 42.1989 145.804 42.1989C144.928 42.1989 144.133 42.045 143.418 41.7372C142.707 41.4247 142.144 40.9512 141.727 40.3168C141.311 39.6776 141.105 38.875 141.109 37.9091H144.17C144.18 38.2926 144.258 38.6217 144.405 38.8963C144.556 39.1662 144.762 39.3745 145.023 39.5213C145.288 39.6634 145.6 39.7344 145.96 39.7344C146.339 39.7344 146.659 39.6539 146.919 39.4929C147.184 39.3272 147.385 39.0857 147.523 38.7685C147.66 38.4512 147.729 38.0606 147.729 37.5966V27.4545ZM162.331 34.2017L159.561 34.3722C159.514 34.1354 159.412 33.9223 159.256 33.733C159.099 33.5388 158.893 33.3849 158.638 33.2713C158.387 33.1529 158.086 33.0938 157.736 33.0938C157.267 33.0938 156.872 33.1932 156.55 33.392C156.228 33.5862 156.067 33.8466 156.067 34.1733C156.067 34.4337 156.171 34.6539 156.379 34.8338C156.588 35.0137 156.945 35.1581 157.452 35.267L159.426 35.6648C160.487 35.8826 161.277 36.233 161.798 36.7159C162.319 37.1989 162.58 37.8333 162.58 38.6193C162.58 39.3343 162.369 39.9616 161.947 40.5014C161.531 41.0412 160.958 41.4626 160.229 41.7656C159.504 42.0639 158.669 42.2131 157.722 42.2131C156.277 42.2131 155.127 41.9124 154.27 41.3111C153.418 40.705 152.918 39.8812 152.771 38.8395L155.747 38.6832C155.837 39.1236 156.055 39.4598 156.401 39.6918C156.746 39.919 157.189 40.0327 157.729 40.0327C158.259 40.0327 158.685 39.9309 159.007 39.7273C159.334 39.5189 159.5 39.2514 159.504 38.9247C159.5 38.6501 159.384 38.4252 159.156 38.25C158.929 38.0701 158.579 37.9328 158.105 37.8381L156.216 37.4616C155.151 37.2486 154.357 36.8793 153.837 36.3537C153.321 35.8281 153.062 35.1581 153.062 34.3438C153.062 33.643 153.252 33.0393 153.631 32.5327C154.014 32.026 154.552 31.6354 155.243 31.3608C155.939 31.0862 156.753 30.9489 157.686 30.9489C159.064 30.9489 160.148 31.2401 160.939 31.8224C161.734 32.4048 162.198 33.1979 162.331 34.2017Z" fill="#4E67AA"/>
<defs>
<filter id="filter0_d_6_428" x="22" y="9" width="280" height="60" filterUnits="userSpaceOnUse" color-interpolation-filters="sRGB">
<feFlood flood-opacity="0" result="BackgroundImageFix"/>
<feColorMatrix in="SourceAlpha" type="matrix" values="0 0 0 0 0 0 0 0 0 0 0 0 0 0 0 0 0 0 127 0" result="hardAlpha"/>
<feOffset dx="2" dy="4"/>
<feGaussianBlur stdDeviation="2.5"/>
<feComposite in2="hardAlpha" operator="out"/>
<feColorMatrix type="matrix" values="0 0 0 0 0 0 0 0 0 0 0 0 0 0 0 0 0 0 0.25 0"/>
<feBlend mode="normal" in2="BackgroundImageFix" result="effect1_dropShadow_6_428"/>
<feBlend mode="normal" in="SourceGraphic" in2="effect1_dropShadow_6_428" result="shape"/>
</filter>
<linearGradient id="paint0_linear_6_428" x1="63.4413" y1="24.2731" x2="51.8171" y2="47.9864" gradientUnits="userSpaceOnUse">
<stop stop-color="#4E67AA"/>
<stop offset="1" stop-color="#37A2C3"/>
</linearGradient>
<linearGradient id="paint1_linear_6_428" x1="56.2516" y1="36.685" x2="88.8682" y2="12.5862" gradientUnits="userSpaceOnUse">
<stop stop-color="#4E67AA"/>
<stop offset="0.14" stop-color="#4E67AA"/>
<stop offset="0.91" stop-color="#37A2C3"/>
<stop offset="1" stop-color="#37A2C3"/>
</linearGradient>
<linearGradient id="paint2_linear_6_428" x1="43.3332" y1="34.9426" x2="73.0822" y2="34.9426" gradientUnits="userSpaceOnUse">
<stop stop-color="#37A2C3"/>
<stop offset="0.09" stop-color="#37A2C3"/>
<stop offset="0.86" stop-color="#4E67AA"/>
<stop offset="1" stop-color="#4E67AA"/>
</linearGradient>
<clipPath id="clip0_6_428">
<rect width="33.3" height="33.3" fill="white" transform="translate(41.6 18.3)"/>
</clipPath>
</defs>
</svg>
