<svg width="320" height="70" viewBox="0 0 320 70" fill="none" xmlns="http://www.w3.org/2000/svg">
<g filter="url(#filter0_d_6_301)">
<rect x="25" y="10" width="270" height="50" rx="15" fill="white"/>
</g>
<path fill-rule="evenodd" clip-rule="evenodd" d="M56.5715 25.5925C55.7062 24.1047 53.543 24.1046 52.6777 25.5925L43.2473 41.8073C42.382 43.2951 43.4636 45.1548 45.1942 45.1548H52.5561C51.8166 44.5086 51.5428 43.3906 52.1024 42.4313L59.2445 30.1885L56.5715 25.5925Z" fill="#37A2C3"/>
<path d="M62.5468 29.1493C63.2629 27.932 65.0532 27.932 65.7693 29.1493L73.5736 42.4159C74.2899 43.6332 73.3948 45.1548 71.9626 45.1548H56.3536C54.9214 45.1548 54.0263 43.6332 54.7424 42.4159L62.5468 29.1493Z" fill="#4E67AA"/>
<path d="M102.43 27.4545V42H99.7741L93.446 32.8452H93.3395V42H90.2642V27.4545H92.9631L99.2415 36.6023H99.3693V27.4545H102.43ZM111.91 37.3551V31.0909H114.936V42H112.031V40.0185H111.917C111.671 40.6577 111.261 41.1714 110.689 41.5597C110.12 41.9479 109.427 42.142 108.608 42.142C107.878 42.142 107.237 41.9763 106.683 41.6449C106.129 41.3134 105.696 40.8423 105.383 40.2315C105.075 39.6207 104.919 38.8892 104.914 38.0369V31.0909H107.94V37.4972C107.945 38.1411 108.118 38.6501 108.458 39.0241C108.799 39.3982 109.256 39.5852 109.829 39.5852C110.194 39.5852 110.535 39.5024 110.852 39.3366C111.169 39.1662 111.425 38.9152 111.619 38.5838C111.818 38.2524 111.915 37.8428 111.91 37.3551ZM119.884 31.0909L121.887 34.9048L123.94 31.0909H127.043L123.883 36.5455L127.129 42H124.039L121.887 38.2287L119.771 42H116.646L119.884 36.5455L116.759 31.0909H119.884ZM134.643 31.0909V33.3636H128.073V31.0909H134.643ZM129.565 28.4773H132.59V38.6477C132.59 38.9271 132.633 39.1449 132.718 39.3011C132.803 39.4527 132.922 39.5592 133.073 39.6207C133.229 39.6823 133.409 39.7131 133.613 39.7131C133.755 39.7131 133.897 39.7012 134.039 39.6776C134.181 39.6491 134.29 39.6278 134.366 39.6136L134.842 41.8651C134.69 41.9124 134.477 41.9669 134.202 42.0284C133.928 42.0947 133.594 42.1349 133.201 42.1491C132.472 42.1776 131.833 42.0805 131.283 41.858C130.739 41.6354 130.315 41.2898 130.012 40.821C129.709 40.3523 129.56 39.7604 129.565 39.0455V28.4773Z" fill="#4E67AA"/>
<defs>
<filter id="filter0_d_6_301" x="22" y="9" width="280" height="60" filterUnits="userSpaceOnUse" color-interpolation-filters="sRGB">
<feFlood flood-opacity="0" result="BackgroundImageFix"/>
<feColorMatrix in="SourceAlpha" type="matrix" values="0 0 0 0 0 0 0 0 0 0 0 0 0 0 0 0 0 0 127 0" result="hardAlpha"/>
<feOffset dx="2" dy="4"/>
<feGaussianBlur stdDeviation="2.5"/>
<feComposite in2="hardAlpha" operator="out"/>
<feColorMatrix type="matrix" values="0 0 0 0 0 0 0 0 0 0 0 0 0 0 0 0 0 0 0.25 0"/>
<feBlend mode="normal" in2="BackgroundImageFix" result="effect1_dropShadow_6_301"/>
<feBlend mode="normal" in="SourceGraphic" in2="effect1_dropShadow_6_301" result="shape"/>
</filter>
</defs>
</svg>
