<svg width="320" height="70" viewBox="0 0 320 70" fill="none" xmlns="http://www.w3.org/2000/svg">
<g filter="url(#filter0_d_6_276)">
<rect x="25" y="10" width="270" height="50" rx="15" fill="white"/>
</g>
<path d="M56.8625 30.7875H59.6375V26.625H63.8V23.85H59.6375V19.6875H56.8625V23.85H52.7V26.625H56.8625V30.7875ZM51.3125 43.275C50.5765 43.275 49.8707 43.5674 49.3503 44.0878C48.8299 44.6082 48.5375 45.314 48.5375 46.05C48.5375 46.786 48.8299 47.4918 49.3503 48.0122C49.8707 48.5326 50.5765 48.825 51.3125 48.825C52.0485 48.825 52.7543 48.5326 53.2747 48.0122C53.7951 47.4918 54.0875 46.786 54.0875 46.05C54.0875 45.314 53.7951 44.6082 53.2747 44.0878C52.7543 43.5674 52.0485 43.275 51.3125 43.275ZM65.1875 43.275C64.4515 43.275 63.7457 43.5674 63.2253 44.0878C62.7049 44.6082 62.4125 45.314 62.4125 46.05C62.4125 46.786 62.7049 47.4918 63.2253 48.0122C63.7457 48.5326 64.4515 48.825 65.1875 48.825C65.9235 48.825 66.6293 48.5326 67.1497 48.0122C67.6701 47.4918 67.9625 46.786 67.9625 46.05C67.9625 45.314 67.6701 44.6082 67.1497 44.0878C66.6293 43.5674 65.9235 43.275 65.1875 43.275ZM51.5484 38.7656L51.59 38.5991L52.8387 36.3375H63.1756C64.2162 36.3375 65.132 35.7686 65.6037 34.9084L70.9595 25.182L68.5452 23.85H68.5314L67.0051 26.625L63.1756 33.5625H53.4354L53.255 33.1879L50.147 26.625L48.8289 23.85L47.5246 21.075H42.9875V23.85H45.7625L50.7575 34.3811L48.8844 37.7805C48.6624 38.169 48.5375 38.6269 48.5375 39.1125C48.5375 39.8485 48.8299 40.5543 49.3503 41.0747C49.8707 41.5951 50.5765 41.8875 51.3125 41.8875H67.9625V39.1125H51.8952C51.7149 39.1125 51.5484 38.9599 51.5484 38.7656Z" fill="#4E67AA"/>
<path d="M103.631 34.7273C103.631 36.3134 103.33 37.6629 102.729 38.7756C102.132 39.8883 101.318 40.7382 100.286 41.3253C99.258 41.9077 98.1027 42.1989 96.8196 42.1989C95.527 42.1989 94.367 41.9053 93.3395 41.3182C92.312 40.7311 91.5 39.8812 90.9034 38.7685C90.3068 37.6558 90.0085 36.3087 90.0085 34.7273C90.0085 33.1411 90.3068 31.7917 90.9034 30.679C91.5 29.5663 92.312 28.7187 93.3395 28.1364C94.367 27.5492 95.527 27.2557 96.8196 27.2557C98.1027 27.2557 99.258 27.5492 100.286 28.1364C101.318 28.7187 102.132 29.5663 102.729 30.679C103.33 31.7917 103.631 33.1411 103.631 34.7273ZM100.513 34.7273C100.513 33.6998 100.359 32.8333 100.051 32.1278C99.7481 31.4223 99.3196 30.8873 98.7656 30.5227C98.2116 30.1581 97.563 29.9759 96.8196 29.9759C96.0762 29.9759 95.4276 30.1581 94.8736 30.5227C94.3196 30.8873 93.8887 31.4223 93.581 32.1278C93.2779 32.8333 93.1264 33.6998 93.1264 34.7273C93.1264 35.7547 93.2779 36.6212 93.581 37.3267C93.8887 38.0322 94.3196 38.5672 94.8736 38.9318C95.4276 39.2964 96.0762 39.4787 96.8196 39.4787C97.563 39.4787 98.2116 39.2964 98.7656 38.9318C99.3196 38.5672 99.7481 38.0322 100.051 37.3267C100.359 36.6212 100.513 35.7547 100.513 34.7273ZM108.877 35.6932V42H105.852V31.0909H108.735V33.0156H108.863C109.105 32.3812 109.51 31.8793 110.078 31.5099C110.646 31.1359 111.335 30.9489 112.145 30.9489C112.902 30.9489 113.563 31.1146 114.126 31.446C114.69 31.7775 115.127 32.2509 115.44 32.8665C115.752 33.4773 115.909 34.2064 115.909 35.054V42H112.883V35.5938C112.888 34.9261 112.717 34.4053 112.372 34.0312C112.026 33.6525 111.55 33.4631 110.944 33.4631C110.537 33.4631 110.177 33.5507 109.865 33.7259C109.557 33.901 109.315 34.1567 109.14 34.4929C108.97 34.8243 108.882 35.2244 108.877 35.6932ZM121.319 27.4545V42H118.293V27.4545H121.319ZM123.743 42V31.0909H126.768V42H123.743ZM125.262 29.6847C124.813 29.6847 124.427 29.5355 124.105 29.2372C123.788 28.9342 123.629 28.572 123.629 28.1506C123.629 27.7339 123.788 27.3764 124.105 27.0781C124.427 26.7751 124.813 26.6236 125.262 26.6236C125.712 26.6236 126.096 26.7751 126.413 27.0781C126.735 27.3764 126.896 27.7339 126.896 28.1506C126.896 28.572 126.735 28.9342 126.413 29.2372C126.096 29.5355 125.712 29.6847 125.262 29.6847ZM132.217 35.6932V42H129.192V31.0909H132.075V33.0156H132.203C132.445 32.3812 132.849 31.8793 133.418 31.5099C133.986 31.1359 134.675 30.9489 135.484 30.9489C136.242 30.9489 136.902 31.1146 137.466 31.446C138.029 31.7775 138.467 32.2509 138.78 32.8665C139.092 33.4773 139.249 34.2064 139.249 35.054V42H136.223V35.5938C136.228 34.9261 136.057 34.4053 135.712 34.0312C135.366 33.6525 134.89 33.4631 134.284 33.4631C133.877 33.4631 133.517 33.5507 133.205 33.7259C132.897 33.901 132.655 34.1567 132.48 34.4929C132.31 34.8243 132.222 35.2244 132.217 35.6932ZM146.605 42.2131C145.483 42.2131 144.517 41.9858 143.707 41.5312C142.902 41.072 142.282 40.4233 141.846 39.5852C141.411 38.7424 141.193 37.7457 141.193 36.5952C141.193 35.473 141.411 34.4882 141.846 33.6406C142.282 32.7931 142.895 32.1326 143.686 31.6591C144.481 31.1856 145.414 30.9489 146.484 30.9489C147.204 30.9489 147.874 31.0649 148.494 31.2969C149.119 31.5241 149.663 31.8674 150.127 32.3267C150.596 32.786 150.961 33.3636 151.221 34.0597C151.482 34.7509 151.612 35.5606 151.612 36.4886V37.3196H142.4V35.4446H148.764C148.764 35.009 148.669 34.6231 148.48 34.2869C148.29 33.9508 148.028 33.688 147.691 33.4986C147.36 33.3045 146.974 33.2074 146.534 33.2074C146.074 33.2074 145.667 33.3139 145.312 33.527C144.962 33.7353 144.687 34.017 144.488 34.3722C144.289 34.7225 144.188 35.1132 144.183 35.544V37.3267C144.183 37.8665 144.282 38.3329 144.481 38.7259C144.685 39.1188 144.971 39.4219 145.341 39.6349C145.71 39.848 146.148 39.9545 146.654 39.9545C146.991 39.9545 147.298 39.9072 147.578 39.8125C147.857 39.7178 148.096 39.5758 148.295 39.3864C148.494 39.197 148.645 38.965 148.75 38.6903L151.548 38.875C151.406 39.5473 151.115 40.1345 150.674 40.6364C150.239 41.1335 149.675 41.5218 148.984 41.8011C148.297 42.0758 147.504 42.2131 146.605 42.2131ZM160.383 34.8267V37.2273H153.75V34.8267H160.383ZM170.909 31.6378C170.852 31.0649 170.608 30.6198 170.177 30.3026C169.746 29.9853 169.162 29.8267 168.423 29.8267C167.921 29.8267 167.497 29.8977 167.152 30.0398C166.806 30.1771 166.541 30.3688 166.356 30.6151C166.176 30.8613 166.086 31.1406 166.086 31.4531C166.077 31.7135 166.131 31.9408 166.25 32.1349C166.373 32.3291 166.541 32.4972 166.754 32.6392C166.967 32.7765 167.213 32.8973 167.493 33.0014C167.772 33.1009 168.07 33.1861 168.387 33.2571L169.694 33.5696C170.329 33.7116 170.911 33.901 171.441 34.1378C171.972 34.3745 172.431 34.6657 172.819 35.0114C173.208 35.357 173.508 35.7642 173.721 36.233C173.939 36.7017 174.05 37.2391 174.055 37.8452C174.05 38.7353 173.823 39.5071 173.373 40.1605C172.928 40.8092 172.284 41.3134 171.441 41.6733C170.603 42.0284 169.592 42.206 168.409 42.206C167.234 42.206 166.212 42.026 165.341 41.6662C164.474 41.3063 163.797 40.7737 163.309 40.0682C162.826 39.358 162.573 38.4796 162.549 37.4332H165.525C165.558 37.9209 165.698 38.3281 165.944 38.6548C166.195 38.9768 166.529 39.2206 166.946 39.3864C167.367 39.5473 167.843 39.6278 168.373 39.6278C168.894 39.6278 169.346 39.5521 169.73 39.4006C170.118 39.2491 170.419 39.0384 170.632 38.7685C170.845 38.4986 170.951 38.1884 170.951 37.8381C170.951 37.5114 170.854 37.2367 170.66 37.0142C170.471 36.7917 170.191 36.6023 169.822 36.446C169.458 36.2898 169.01 36.1477 168.48 36.0199L166.896 35.6222C165.67 35.3239 164.701 34.8575 163.991 34.223C163.281 33.5885 162.928 32.7339 162.933 31.6591C162.928 30.7784 163.163 30.009 163.636 29.3509C164.114 28.6927 164.77 28.179 165.603 27.8097C166.437 27.4403 167.384 27.2557 168.444 27.2557C169.524 27.2557 170.466 27.4403 171.271 27.8097C172.081 28.179 172.71 28.6927 173.16 29.3509C173.61 30.009 173.842 30.7713 173.856 31.6378H170.909ZM179.092 35.6932V42H176.067V27.4545H179.007V33.0156H179.135C179.381 32.3717 179.779 31.8674 180.328 31.5028C180.877 31.1335 181.566 30.9489 182.395 30.9489C183.152 30.9489 183.813 31.1146 184.376 31.446C184.945 31.7727 185.385 32.2438 185.697 32.8594C186.015 33.4702 186.171 34.2017 186.166 35.054V42H183.141V35.5938C183.145 34.9214 182.975 34.3982 182.629 34.0241C182.288 33.6501 181.81 33.4631 181.195 33.4631C180.783 33.4631 180.418 33.5507 180.101 33.7259C179.788 33.901 179.542 34.1567 179.362 34.4929C179.187 34.8243 179.097 35.2244 179.092 35.6932ZM193.476 42.2131C192.373 42.2131 191.419 41.9787 190.614 41.5099C189.814 41.0365 189.196 40.3783 188.76 39.5355C188.325 38.688 188.107 37.7055 188.107 36.5881C188.107 35.4612 188.325 34.4763 188.76 33.6335C189.196 32.786 189.814 32.1278 190.614 31.6591C191.419 31.1856 192.373 30.9489 193.476 30.9489C194.579 30.9489 195.531 31.1856 196.331 31.6591C197.136 32.1278 197.757 32.786 198.192 33.6335C198.628 34.4763 198.846 35.4612 198.846 36.5881C198.846 37.7055 198.628 38.688 198.192 39.5355C197.757 40.3783 197.136 41.0365 196.331 41.5099C195.531 41.9787 194.579 42.2131 193.476 42.2131ZM193.49 39.8693C193.992 39.8693 194.411 39.7273 194.748 39.4432C195.084 39.1544 195.337 38.7614 195.507 38.2642C195.683 37.767 195.77 37.2012 195.77 36.5668C195.77 35.9323 195.683 35.3665 195.507 34.8693C195.337 34.3722 195.084 33.9792 194.748 33.6903C194.411 33.4015 193.992 33.2571 193.49 33.2571C192.984 33.2571 192.558 33.4015 192.212 33.6903C191.871 33.9792 191.613 34.3722 191.438 34.8693C191.267 35.3665 191.182 35.9323 191.182 36.5668C191.182 37.2012 191.267 37.767 191.438 38.2642C191.613 38.7614 191.871 39.1544 192.212 39.4432C192.558 39.7273 192.984 39.8693 193.49 39.8693ZM200.813 46.0909V31.0909H203.796V32.9233H203.931C204.063 32.6297 204.255 32.3314 204.506 32.0284C204.762 31.7206 205.093 31.465 205.5 31.2614C205.912 31.053 206.424 30.9489 207.034 30.9489C207.83 30.9489 208.564 31.1572 209.236 31.5739C209.908 31.9858 210.446 32.6084 210.848 33.4418C211.251 34.2704 211.452 35.3097 211.452 36.5597C211.452 37.7765 211.256 38.804 210.863 39.642C210.474 40.4754 209.944 41.1075 209.272 41.5384C208.604 41.9645 207.856 42.1776 207.027 42.1776C206.44 42.1776 205.941 42.0805 205.529 41.8864C205.122 41.6922 204.788 41.4484 204.527 41.1548C204.267 40.8565 204.068 40.5559 203.931 40.2528H203.838V46.0909H200.813ZM203.775 36.5455C203.775 37.1941 203.864 37.7599 204.044 38.2429C204.224 38.7259 204.485 39.1023 204.826 39.3722C205.167 39.6373 205.581 39.7699 206.069 39.7699C206.561 39.7699 206.978 39.6349 207.319 39.3651C207.659 39.0904 207.917 38.7116 208.093 38.2287C208.273 37.741 208.363 37.1799 208.363 36.5455C208.363 35.9157 208.275 35.3617 208.1 34.8835C207.925 34.4053 207.667 34.0312 207.326 33.7614C206.985 33.4915 206.566 33.3565 206.069 33.3565C205.576 33.3565 205.159 33.4867 204.819 33.7472C204.482 34.0076 204.224 34.3769 204.044 34.8551C203.864 35.3333 203.775 35.8968 203.775 36.5455ZM222.546 34.2017L219.776 34.3722C219.729 34.1354 219.627 33.9223 219.471 33.733C219.314 33.5388 219.108 33.3849 218.853 33.2713C218.602 33.1529 218.301 33.0938 217.951 33.0938C217.482 33.0938 217.087 33.1932 216.765 33.392C216.443 33.5862 216.282 33.8466 216.282 34.1733C216.282 34.4337 216.386 34.6539 216.594 34.8338C216.802 35.0137 217.16 35.1581 217.667 35.267L219.641 35.6648C220.702 35.8826 221.492 36.233 222.013 36.7159C222.534 37.1989 222.794 37.8333 222.794 38.6193C222.794 39.3343 222.584 39.9616 222.162 40.5014C221.746 41.0412 221.173 41.4626 220.444 41.7656C219.719 42.0639 218.883 42.2131 217.936 42.2131C216.492 42.2131 215.342 41.9124 214.485 41.3111C213.632 40.705 213.133 39.8812 212.986 38.8395L215.962 38.6832C216.052 39.1236 216.27 39.4598 216.615 39.6918C216.961 39.919 217.404 40.0327 217.944 40.0327C218.474 40.0327 218.9 39.9309 219.222 39.7273C219.549 39.5189 219.714 39.2514 219.719 38.9247C219.714 38.6501 219.598 38.4252 219.371 38.25C219.144 38.0701 218.793 37.9328 218.32 37.8381L216.431 37.4616C215.365 37.2486 214.572 36.8793 214.051 36.3537C213.535 35.8281 213.277 35.1581 213.277 34.3438C213.277 33.643 213.467 33.0393 213.846 32.5327C214.229 32.026 214.766 31.6354 215.458 31.3608C216.154 31.0862 216.968 30.9489 217.901 30.9489C219.279 30.9489 220.363 31.2401 221.154 31.8224C221.949 32.4048 222.413 33.1979 222.546 34.2017Z" fill="#4E67AA"/>
<defs>
<filter id="filter0_d_6_276" x="22" y="9" width="280" height="60" filterUnits="userSpaceOnUse" color-interpolation-filters="sRGB">
<feFlood flood-opacity="0" result="BackgroundImageFix"/>
<feColorMatrix in="SourceAlpha" type="matrix" values="0 0 0 0 0 0 0 0 0 0 0 0 0 0 0 0 0 0 127 0" result="hardAlpha"/>
<feOffset dx="2" dy="4"/>
<feGaussianBlur stdDeviation="2.5"/>
<feComposite in2="hardAlpha" operator="out"/>
<feColorMatrix type="matrix" values="0 0 0 0 0 0 0 0 0 0 0 0 0 0 0 0 0 0 0.25 0"/>
<feBlend mode="normal" in2="BackgroundImageFix" result="effect1_dropShadow_6_276"/>
<feBlend mode="normal" in="SourceGraphic" in2="effect1_dropShadow_6_276" result="shape"/>
</filter>
</defs>
</svg>
