<svg width="320" height="70" viewBox="0 0 320 70" fill="none" xmlns="http://www.w3.org/2000/svg">
<g filter="url(#filter0_d_6_270)">
<rect x="25" y="10" width="270" height="50" rx="15" fill="white"/>
</g>
<path d="M49.925 41.1937L45.7625 45.273V33.5625H49.925V41.1937ZM56.8625 38.6407L54.6841 36.7815L52.7 38.613V28.0125H56.8625V38.6407ZM63.8 36.3375L59.6375 40.5V22.4625H63.8V36.3375ZM67.6989 36.0739L65.1875 33.5625H72.125V40.5L69.6414 38.0164L59.6375 47.937L54.8229 43.7467L49.5781 48.825H45.7625L54.7396 40.0282L59.6375 44.163" fill="#4E67AA"/>
<path d="M103.631 34.7273C103.631 36.3134 103.33 37.6629 102.729 38.7756C102.132 39.8883 101.318 40.7382 100.286 41.3253C99.258 41.9077 98.1027 42.1989 96.8196 42.1989C95.527 42.1989 94.367 41.9053 93.3395 41.3182C92.312 40.7311 91.5 39.8812 90.9034 38.7685C90.3068 37.6558 90.0085 36.3087 90.0085 34.7273C90.0085 33.1411 90.3068 31.7917 90.9034 30.679C91.5 29.5663 92.312 28.7187 93.3395 28.1364C94.367 27.5492 95.527 27.2557 96.8196 27.2557C98.1027 27.2557 99.258 27.5492 100.286 28.1364C101.318 28.7187 102.132 29.5663 102.729 30.679C103.33 31.7917 103.631 33.1411 103.631 34.7273ZM100.513 34.7273C100.513 33.6998 100.359 32.8333 100.051 32.1278C99.7481 31.4223 99.3196 30.8873 98.7656 30.5227C98.2116 30.1581 97.563 29.9759 96.8196 29.9759C96.0762 29.9759 95.4276 30.1581 94.8736 30.5227C94.3196 30.8873 93.8887 31.4223 93.581 32.1278C93.2779 32.8333 93.1264 33.6998 93.1264 34.7273C93.1264 35.7547 93.2779 36.6212 93.581 37.3267C93.8887 38.0322 94.3196 38.5672 94.8736 38.9318C95.4276 39.2964 96.0762 39.4787 96.8196 39.4787C97.563 39.4787 98.2116 39.2964 98.7656 38.9318C99.3196 38.5672 99.7481 38.0322 100.051 37.3267C100.359 36.6212 100.513 35.7547 100.513 34.7273ZM108.877 35.6932V42H105.852V31.0909H108.735V33.0156H108.863C109.105 32.3812 109.51 31.8793 110.078 31.5099C110.646 31.1359 111.335 30.9489 112.145 30.9489C112.902 30.9489 113.563 31.1146 114.126 31.446C114.69 31.7775 115.127 32.2509 115.44 32.8665C115.752 33.4773 115.909 34.2064 115.909 35.054V42H112.883V35.5938C112.888 34.9261 112.717 34.4053 112.372 34.0312C112.026 33.6525 111.55 33.4631 110.944 33.4631C110.537 33.4631 110.177 33.5507 109.865 33.7259C109.557 33.901 109.315 34.1567 109.14 34.4929C108.97 34.8243 108.882 35.2244 108.877 35.6932ZM121.319 27.4545V42H118.293V27.4545H121.319ZM123.743 42V31.0909H126.768V42H123.743ZM125.262 29.6847C124.813 29.6847 124.427 29.5355 124.105 29.2372C123.788 28.9342 123.629 28.572 123.629 28.1506C123.629 27.7339 123.788 27.3764 124.105 27.0781C124.427 26.7751 124.813 26.6236 125.262 26.6236C125.712 26.6236 126.096 26.7751 126.413 27.0781C126.735 27.3764 126.896 27.7339 126.896 28.1506C126.896 28.572 126.735 28.9342 126.413 29.2372C126.096 29.5355 125.712 29.6847 125.262 29.6847ZM132.217 35.6932V42H129.192V31.0909H132.075V33.0156H132.203C132.445 32.3812 132.849 31.8793 133.418 31.5099C133.986 31.1359 134.675 30.9489 135.484 30.9489C136.242 30.9489 136.902 31.1146 137.466 31.446C138.029 31.7775 138.467 32.2509 138.78 32.8665C139.092 33.4773 139.249 34.2064 139.249 35.054V42H136.223V35.5938C136.228 34.9261 136.057 34.4053 135.712 34.0312C135.366 33.6525 134.89 33.4631 134.284 33.4631C133.877 33.4631 133.517 33.5507 133.205 33.7259C132.897 33.901 132.655 34.1567 132.48 34.4929C132.31 34.8243 132.222 35.2244 132.217 35.6932ZM146.605 42.2131C145.483 42.2131 144.517 41.9858 143.707 41.5312C142.902 41.072 142.282 40.4233 141.846 39.5852C141.411 38.7424 141.193 37.7457 141.193 36.5952C141.193 35.473 141.411 34.4882 141.846 33.6406C142.282 32.7931 142.895 32.1326 143.686 31.6591C144.481 31.1856 145.414 30.9489 146.484 30.9489C147.204 30.9489 147.874 31.0649 148.494 31.2969C149.119 31.5241 149.663 31.8674 150.127 32.3267C150.596 32.786 150.961 33.3636 151.221 34.0597C151.482 34.7509 151.612 35.5606 151.612 36.4886V37.3196H142.4V35.4446H148.764C148.764 35.009 148.669 34.6231 148.48 34.2869C148.29 33.9508 148.028 33.688 147.691 33.4986C147.36 33.3045 146.974 33.2074 146.534 33.2074C146.074 33.2074 145.667 33.3139 145.312 33.527C144.962 33.7353 144.687 34.017 144.488 34.3722C144.289 34.7225 144.188 35.1132 144.183 35.544V37.3267C144.183 37.8665 144.282 38.3329 144.481 38.7259C144.685 39.1188 144.971 39.4219 145.341 39.6349C145.71 39.848 146.148 39.9545 146.654 39.9545C146.991 39.9545 147.298 39.9072 147.578 39.8125C147.857 39.7178 148.096 39.5758 148.295 39.3864C148.494 39.197 148.645 38.965 148.75 38.6903L151.548 38.875C151.406 39.5473 151.115 40.1345 150.674 40.6364C150.239 41.1335 149.675 41.5218 148.984 41.8011C148.297 42.0758 147.504 42.2131 146.605 42.2131ZM160.383 34.8267V37.2273H153.75V34.8267H160.383ZM163.018 27.4545H166.811L170.816 37.2273H170.987L174.993 27.4545H178.785V42H175.802V32.5327H175.681L171.917 41.929H169.886L166.122 32.4972H166.001V42H163.018V27.4545ZM184.373 42.206C183.677 42.206 183.057 42.0852 182.512 41.8438C181.968 41.5975 181.537 41.2353 181.219 40.7571C180.907 40.2741 180.751 39.6728 180.751 38.9531C180.751 38.3471 180.862 37.8381 181.085 37.4261C181.307 37.0142 181.61 36.6828 181.994 36.4318C182.377 36.1809 182.813 35.9915 183.3 35.8636C183.793 35.7358 184.309 35.6458 184.849 35.5938C185.483 35.5275 185.995 35.4659 186.383 35.4091C186.771 35.3475 187.053 35.2576 187.228 35.1392C187.403 35.0208 187.491 34.8456 187.491 34.6136V34.571C187.491 34.1212 187.349 33.7732 187.065 33.527C186.785 33.2808 186.388 33.1577 185.871 33.1577C185.327 33.1577 184.894 33.2784 184.572 33.5199C184.25 33.7566 184.037 34.0549 183.933 34.4148L181.134 34.1875C181.276 33.5246 181.556 32.9517 181.972 32.4688C182.389 31.9811 182.926 31.607 183.585 31.3466C184.247 31.0814 185.014 30.9489 185.886 30.9489C186.492 30.9489 187.072 31.0199 187.626 31.1619C188.184 31.304 188.679 31.5241 189.11 31.8224C189.546 32.1207 189.889 32.5043 190.14 32.973C190.391 33.437 190.516 33.9934 190.516 34.642V42H187.647V40.4872H187.562C187.387 40.8281 187.152 41.1288 186.859 41.3892C186.565 41.6449 186.212 41.8461 185.8 41.9929C185.388 42.1349 184.913 42.206 184.373 42.206ZM185.239 40.1179C185.684 40.1179 186.077 40.0303 186.418 39.8551C186.759 39.6752 187.027 39.4337 187.221 39.1307C187.415 38.8277 187.512 38.4844 187.512 38.1009V36.9432C187.417 37.0047 187.287 37.0616 187.121 37.1136C186.96 37.161 186.778 37.206 186.575 37.2486C186.371 37.2865 186.167 37.322 185.964 37.3551C185.76 37.3835 185.576 37.4096 185.41 37.4332C185.055 37.4853 184.745 37.5682 184.479 37.6818C184.214 37.7955 184.008 37.9493 183.862 38.1435C183.715 38.3329 183.641 38.5696 183.641 38.8537C183.641 39.2656 183.79 39.5805 184.089 39.7983C184.392 40.0114 184.775 40.1179 185.239 40.1179ZM192.864 42V31.0909H195.797V32.9943H195.911C196.109 32.3172 196.443 31.8059 196.912 31.4602C197.381 31.1098 197.92 30.9347 198.531 30.9347C198.683 30.9347 198.846 30.9441 199.021 30.9631C199.196 30.982 199.35 31.008 199.483 31.0412V33.7259C199.341 33.6832 199.144 33.6454 198.893 33.6122C198.643 33.5791 198.413 33.5625 198.205 33.5625C197.759 33.5625 197.362 33.6596 197.011 33.8537C196.666 34.0431 196.391 34.3082 196.188 34.6491C195.989 34.9901 195.889 35.383 195.889 35.8281V42H192.864ZM203.789 38.8608L203.796 35.2315H204.236L207.73 31.0909H211.203L206.509 36.5739H205.792L203.789 38.8608ZM201.047 42V27.4545H204.073V42H201.047ZM207.865 42L204.655 37.2486L206.672 35.1108L211.409 42H207.865ZM217.21 42.2131C216.088 42.2131 215.122 41.9858 214.312 41.5312C213.508 41.072 212.887 40.4233 212.452 39.5852C212.016 38.7424 211.798 37.7457 211.798 36.5952C211.798 35.473 212.016 34.4882 212.452 33.6406C212.887 32.7931 213.5 32.1326 214.291 31.6591C215.087 31.1856 216.019 30.9489 217.089 30.9489C217.809 30.9489 218.479 31.0649 219.099 31.2969C219.724 31.5241 220.269 31.8674 220.733 32.3267C221.202 32.786 221.566 33.3636 221.827 34.0597C222.087 34.7509 222.217 35.5606 222.217 36.4886V37.3196H213.006V35.4446H219.369C219.369 35.009 219.275 34.6231 219.085 34.2869C218.896 33.9508 218.633 33.688 218.297 33.4986C217.965 33.3045 217.58 33.2074 217.139 33.2074C216.68 33.2074 216.273 33.3139 215.918 33.527C215.567 33.7353 215.293 34.017 215.094 34.3722C214.895 34.7225 214.793 35.1132 214.788 35.544V37.3267C214.788 37.8665 214.888 38.3329 215.087 38.7259C215.29 39.1188 215.577 39.4219 215.946 39.6349C216.315 39.848 216.753 39.9545 217.26 39.9545C217.596 39.9545 217.904 39.9072 218.183 39.8125C218.463 39.7178 218.702 39.5758 218.901 39.3864C219.099 39.197 219.251 38.965 219.355 38.6903L222.153 38.875C222.011 39.5473 221.72 40.1345 221.28 40.6364C220.844 41.1335 220.281 41.5218 219.589 41.8011C218.903 42.0758 218.11 42.2131 217.21 42.2131ZM229.994 31.0909V33.3636H223.425V31.0909H229.994ZM224.916 28.4773H227.942V38.6477C227.942 38.9271 227.984 39.1449 228.07 39.3011C228.155 39.4527 228.273 39.5592 228.425 39.6207C228.581 39.6823 228.761 39.7131 228.964 39.7131C229.107 39.7131 229.249 39.7012 229.391 39.6776C229.533 39.6491 229.642 39.6278 229.717 39.6136L230.193 41.8651C230.042 41.9124 229.829 41.9669 229.554 42.0284C229.279 42.0947 228.946 42.1349 228.553 42.1491C227.823 42.1776 227.184 42.0805 226.635 41.858C226.09 41.6354 225.667 41.2898 225.364 40.821C225.061 40.3523 224.911 39.7604 224.916 39.0455V28.4773ZM231.965 42V31.0909H234.991V42H231.965ZM233.485 29.6847C233.035 29.6847 232.649 29.5355 232.327 29.2372C232.01 28.9342 231.852 28.572 231.852 28.1506C231.852 27.7339 232.01 27.3764 232.327 27.0781C232.649 26.7751 233.035 26.6236 233.485 26.6236C233.935 26.6236 234.318 26.7751 234.636 27.0781C234.958 27.3764 235.119 27.7339 235.119 28.1506C235.119 28.572 234.958 28.9342 234.636 29.2372C234.318 29.5355 233.935 29.6847 233.485 29.6847ZM240.44 35.6932V42H237.414V31.0909H240.298V33.0156H240.426C240.667 32.3812 241.072 31.8793 241.64 31.5099C242.208 31.1359 242.897 30.9489 243.707 30.9489C244.465 30.9489 245.125 31.1146 245.689 31.446C246.252 31.7775 246.69 32.2509 247.002 32.8665C247.315 33.4773 247.471 34.2064 247.471 35.054V42H244.446V35.5938C244.45 34.9261 244.28 34.4053 243.934 34.0312C243.589 33.6525 243.113 33.4631 242.507 33.4631C242.1 33.4631 241.74 33.5507 241.427 33.7259C241.119 33.901 240.878 34.1567 240.703 34.4929C240.532 34.8243 240.445 35.2244 240.44 35.6932ZM254.771 46.3182C253.79 46.3182 252.95 46.1832 252.249 45.9134C251.553 45.6482 250.999 45.286 250.587 44.8267C250.175 44.3674 249.908 43.8513 249.785 43.2784L252.583 42.902C252.668 43.1198 252.803 43.3234 252.988 43.5128C253.173 43.7022 253.416 43.8537 253.719 43.9673C254.027 44.0857 254.401 44.1449 254.842 44.1449C255.5 44.1449 256.042 43.9839 256.468 43.6619C256.899 43.3447 257.114 42.812 257.114 42.0639V40.0682H256.987C256.854 40.3712 256.655 40.6577 256.39 40.9276C256.125 41.1974 255.784 41.4176 255.367 41.5881C254.951 41.7585 254.453 41.8438 253.876 41.8438C253.057 41.8438 252.311 41.6544 251.638 41.2756C250.971 40.892 250.438 40.3073 250.04 39.5213C249.647 38.7306 249.451 37.7315 249.451 36.5241C249.451 35.2884 249.652 34.2562 250.055 33.4276C250.457 32.599 250.992 31.9787 251.66 31.5668C252.332 31.1548 253.068 30.9489 253.869 30.9489C254.479 30.9489 254.991 31.053 255.403 31.2614C255.815 31.465 256.146 31.7206 256.397 32.0284C256.653 32.3314 256.849 32.6297 256.987 32.9233H257.1V31.0909H260.104V42.1065C260.104 43.0346 259.877 43.8111 259.423 44.4361C258.968 45.0611 258.338 45.5298 257.533 45.8423C256.733 46.1596 255.812 46.3182 254.771 46.3182ZM254.835 39.571C255.322 39.571 255.734 39.4503 256.07 39.2088C256.411 38.9626 256.672 38.6122 256.852 38.1577C257.036 37.6984 257.129 37.1491 257.129 36.5099C257.129 35.8707 257.039 35.3168 256.859 34.848C256.679 34.3745 256.418 34.0076 256.077 33.7472C255.737 33.4867 255.322 33.3565 254.835 33.3565C254.337 33.3565 253.918 33.4915 253.577 33.7614C253.237 34.0265 252.978 34.3958 252.803 34.8693C252.628 35.3428 252.54 35.8897 252.54 36.5099C252.54 37.1397 252.628 37.6842 252.803 38.1435C252.983 38.598 253.241 38.9508 253.577 39.2017C253.918 39.4479 254.337 39.571 254.835 39.571Z" fill="#4E67AA"/>
<defs>
<filter id="filter0_d_6_270" x="22" y="9" width="280" height="60" filterUnits="userSpaceOnUse" color-interpolation-filters="sRGB">
<feFlood flood-opacity="0" result="BackgroundImageFix"/>
<feColorMatrix in="SourceAlpha" type="matrix" values="0 0 0 0 0 0 0 0 0 0 0 0 0 0 0 0 0 0 127 0" result="hardAlpha"/>
<feOffset dx="2" dy="4"/>
<feGaussianBlur stdDeviation="2.5"/>
<feComposite in2="hardAlpha" operator="out"/>
<feColorMatrix type="matrix" values="0 0 0 0 0 0 0 0 0 0 0 0 0 0 0 0 0 0 0.25 0"/>
<feBlend mode="normal" in2="BackgroundImageFix" result="effect1_dropShadow_6_270"/>
<feBlend mode="normal" in="SourceGraphic" in2="effect1_dropShadow_6_270" result="shape"/>
</filter>
</defs>
</svg>
