<svg width="320" height="70" viewBox="0 0 320 70" fill="none" xmlns="http://www.w3.org/2000/svg">
<g filter="url(#filter0_d_6_315)">
<rect x="25" y="10" width="270" height="50" rx="15" fill="white"/>
</g>
<g clip-path="url(#clip0_6_315)">
<path fill-rule="evenodd" clip-rule="evenodd" d="M58.25 25.3636C53.81 25.3636 51.035 27.5657 49.925 31.9698C51.59 29.7677 53.5325 28.942 55.7525 29.4925C57.0191 29.8063 57.9244 30.7183 58.9265 31.727C60.5588 33.3706 62.4483 35.2729 66.575 35.2729C71.015 35.2729 73.79 33.0708 74.9 28.6667C73.235 30.8688 71.2925 31.6945 69.0725 31.144C67.8059 30.8302 66.9006 29.9182 65.8985 28.9095C64.2662 27.266 62.3767 25.3636 58.25 25.3636ZM49.925 35.2729C45.485 35.2729 42.71 37.4749 41.6 41.8791C43.265 39.677 45.2075 38.8512 47.4275 39.4018C48.6941 39.7162 49.5994 40.6276 50.6015 41.6362C52.2338 43.2798 54.1233 45.1822 58.25 45.1822C62.69 45.1822 65.465 42.9801 66.575 38.576C64.91 40.778 62.9675 41.6038 60.7475 41.0533C59.4809 40.7395 58.5756 39.8275 57.5735 38.8188C55.9412 37.1752 54.0517 35.2729 49.925 35.2729Z" fill="#4E67AA"/>
</g>
<path d="M89.7102 29.9901V27.4545H101.656V29.9901H97.2031V42H94.1634V29.9901H89.7102ZM105.193 42.206C104.497 42.206 103.877 42.0852 103.332 41.8438C102.788 41.5975 102.357 41.2353 102.04 40.7571C101.727 40.2741 101.571 39.6728 101.571 38.9531C101.571 38.3471 101.682 37.8381 101.905 37.4261C102.127 37.0142 102.43 36.6828 102.814 36.4318C103.197 36.1809 103.633 35.9915 104.121 35.8636C104.613 35.7358 105.129 35.6458 105.669 35.5938C106.304 35.5275 106.815 35.4659 107.203 35.4091C107.591 35.3475 107.873 35.2576 108.048 35.1392C108.223 35.0208 108.311 34.8456 108.311 34.6136V34.571C108.311 34.1212 108.169 33.7732 107.885 33.527C107.606 33.2808 107.208 33.1577 106.692 33.1577C106.147 33.1577 105.714 33.2784 105.392 33.5199C105.07 33.7566 104.857 34.0549 104.753 34.4148L101.955 34.1875C102.097 33.5246 102.376 32.9517 102.793 32.4688C103.209 31.9811 103.747 31.607 104.405 31.3466C105.068 31.0814 105.835 30.9489 106.706 30.9489C107.312 30.9489 107.892 31.0199 108.446 31.1619C109.005 31.304 109.5 31.5241 109.93 31.8224C110.366 32.1207 110.709 32.5043 110.96 32.973C111.211 33.437 111.337 33.9934 111.337 34.642V42H108.467V40.4872H108.382C108.207 40.8281 107.973 41.1288 107.679 41.3892C107.385 41.6449 107.033 41.8461 106.621 41.9929C106.209 42.1349 105.733 42.206 105.193 42.206ZM106.06 40.1179C106.505 40.1179 106.898 40.0303 107.239 39.8551C107.58 39.6752 107.847 39.4337 108.041 39.1307C108.235 38.8277 108.332 38.4844 108.332 38.1009V36.9432C108.238 37.0047 108.107 37.0616 107.942 37.1136C107.781 37.161 107.598 37.206 107.395 37.2486C107.191 37.2865 106.988 37.322 106.784 37.3551C106.58 37.3835 106.396 37.4096 106.23 37.4332C105.875 37.4853 105.565 37.5682 105.3 37.6818C105.035 37.7955 104.829 37.9493 104.682 38.1435C104.535 38.3329 104.462 38.5696 104.462 38.8537C104.462 39.2656 104.611 39.5805 104.909 39.7983C105.212 40.0114 105.596 40.1179 106.06 40.1179ZM113.684 42V31.0909H116.71V42H113.684ZM115.204 29.6847C114.754 29.6847 114.368 29.5355 114.046 29.2372C113.729 28.9342 113.57 28.572 113.57 28.1506C113.57 27.7339 113.729 27.3764 114.046 27.0781C114.368 26.7751 114.754 26.6236 115.204 26.6236C115.654 26.6236 116.037 26.7751 116.354 27.0781C116.676 27.3764 116.837 27.7339 116.837 28.1506C116.837 28.572 116.676 28.9342 116.354 29.2372C116.037 29.5355 115.654 29.6847 115.204 29.6847ZM122.159 27.4545V42H119.133V27.4545H122.159ZM126.734 42L123.766 31.0909H126.827L128.517 38.4205H128.616L130.378 31.0909H133.382L135.172 38.3778H135.264L136.926 31.0909H139.98L137.018 42H133.815L131.94 35.1392H131.805L129.93 42H126.734ZM141.594 42V31.0909H144.62V42H141.594ZM143.114 29.6847C142.664 29.6847 142.278 29.5355 141.956 29.2372C141.639 28.9342 141.48 28.572 141.48 28.1506C141.48 27.7339 141.639 27.3764 141.956 27.0781C142.278 26.7751 142.664 26.6236 143.114 26.6236C143.564 26.6236 143.947 26.7751 144.265 27.0781C144.587 27.3764 144.748 27.7339 144.748 28.1506C144.748 28.572 144.587 28.9342 144.265 29.2372C143.947 29.5355 143.564 29.6847 143.114 29.6847ZM150.069 35.6932V42H147.043V31.0909H149.927V33.0156H150.055C150.296 32.3812 150.701 31.8793 151.269 31.5099C151.837 31.1359 152.526 30.9489 153.336 30.9489C154.094 30.9489 154.754 31.1146 155.317 31.446C155.881 31.7775 156.319 32.2509 156.631 32.8665C156.944 33.4773 157.1 34.2064 157.1 35.054V42H154.075V35.5938C154.079 34.9261 153.909 34.4053 153.563 34.0312C153.218 33.6525 152.742 33.4631 152.136 33.4631C151.728 33.4631 151.369 33.5507 151.056 33.7259C150.748 33.901 150.507 34.1567 150.332 34.4929C150.161 34.8243 150.074 35.2244 150.069 35.6932ZM163.505 42.1776C162.676 42.1776 161.926 41.9645 161.253 41.5384C160.586 41.1075 160.055 40.4754 159.662 39.642C159.274 38.804 159.08 37.7765 159.08 36.5597C159.08 35.3097 159.281 34.2704 159.684 33.4418C160.086 32.6084 160.621 31.9858 161.289 31.5739C161.961 31.1572 162.697 30.9489 163.498 30.9489C164.108 30.9489 164.617 31.053 165.025 31.2614C165.436 31.465 165.768 31.7206 166.019 32.0284C166.275 32.3314 166.469 32.6297 166.601 32.9233H166.694V27.4545H169.712V42H166.729V40.2528H166.601C166.459 40.5559 166.258 40.8565 165.998 41.1548C165.742 41.4484 165.408 41.6922 164.996 41.8864C164.589 42.0805 164.092 42.1776 163.505 42.1776ZM164.463 39.7699C164.951 39.7699 165.363 39.6373 165.699 39.3722C166.04 39.1023 166.301 38.7259 166.48 38.2429C166.665 37.7599 166.757 37.1941 166.757 36.5455C166.757 35.8968 166.667 35.3333 166.488 34.8551C166.308 34.3769 166.047 34.0076 165.706 33.7472C165.365 33.4867 164.951 33.3565 164.463 33.3565C163.966 33.3565 163.547 33.4915 163.206 33.7614C162.865 34.0312 162.607 34.4053 162.432 34.8835C162.257 35.3617 162.169 35.9157 162.169 36.5455C162.169 37.1799 162.257 37.741 162.432 38.2287C162.612 38.7116 162.87 39.0904 163.206 39.3651C163.547 39.6349 163.966 39.7699 164.463 39.7699Z" fill="#4E67AA"/>
<defs>
<filter id="filter0_d_6_315" x="22" y="9" width="280" height="60" filterUnits="userSpaceOnUse" color-interpolation-filters="sRGB">
<feFlood flood-opacity="0" result="BackgroundImageFix"/>
<feColorMatrix in="SourceAlpha" type="matrix" values="0 0 0 0 0 0 0 0 0 0 0 0 0 0 0 0 0 0 127 0" result="hardAlpha"/>
<feOffset dx="2" dy="4"/>
<feGaussianBlur stdDeviation="2.5"/>
<feComposite in2="hardAlpha" operator="out"/>
<feColorMatrix type="matrix" values="0 0 0 0 0 0 0 0 0 0 0 0 0 0 0 0 0 0 0.25 0"/>
<feBlend mode="normal" in2="BackgroundImageFix" result="effect1_dropShadow_6_315"/>
<feBlend mode="normal" in="SourceGraphic" in2="effect1_dropShadow_6_315" result="shape"/>
</filter>
<clipPath id="clip0_6_315">
<rect width="33.3" height="33.3" fill="white" transform="translate(41.6 18.3)"/>
</clipPath>
</defs>
</svg>
