<svg width="320" height="70" viewBox="0 0 320 70" fill="none" xmlns="http://www.w3.org/2000/svg">
<g filter="url(#filter0_d_6_308)">
<rect x="25" y="10" width="270" height="50" rx="15" fill="white"/>
</g>
<g clip-path="url(#clip0_6_308)">
<path d="M58.6027 27.6677L51.9631 39.2145L58.25 50.1522L66.5769 35.6739L74.9 21.1956H62.3225L58.6027 27.6677Z" fill="#4E67AA"/>
<path d="M49.9269 35.6739L50.363 36.4353L56.574 25.6309L59.1259 21.1956H58.25H41.6L49.9269 35.6739Z" fill="#37A2C3"/>
<path d="M62.3225 21.1956C65.4697 31.5928 58.25 50.1522 58.25 50.1522L51.9631 39.2145L62.3225 21.1956Z" fill="black" fill-opacity="0.2"/>
<path d="M59.1259 21.1956C45.8659 21.1956 50.363 36.4353 50.363 36.4353L59.1259 21.1956Z" fill="black" fill-opacity="0.2"/>
</g>
<path d="M92.892 27.4545L96.4077 38.5057H96.5426L100.065 27.4545H103.474L98.4602 42H94.4972L89.4759 27.4545H92.892ZM112.164 37.3551V31.0909H115.19V42H112.285V40.0185H112.171C111.925 40.6577 111.515 41.1714 110.942 41.5597C110.374 41.9479 109.681 42.142 108.862 42.142C108.132 42.142 107.491 41.9763 106.937 41.6449C106.383 41.3134 105.95 40.8423 105.637 40.2315C105.329 39.6207 105.173 38.8892 105.168 38.0369V31.0909H108.194V37.4972C108.199 38.1411 108.371 38.6501 108.712 39.0241C109.053 39.3982 109.51 39.5852 110.083 39.5852C110.448 39.5852 110.789 39.5024 111.106 39.3366C111.423 39.1662 111.679 38.9152 111.873 38.5838C112.072 38.2524 112.169 37.8428 112.164 37.3551ZM122.581 42.2131C121.459 42.2131 120.493 41.9858 119.684 41.5312C118.879 41.072 118.258 40.4233 117.823 39.5852C117.387 38.7424 117.169 37.7457 117.169 36.5952C117.169 35.473 117.387 34.4882 117.823 33.6406C118.258 32.7931 118.872 32.1326 119.662 31.6591C120.458 31.1856 121.391 30.9489 122.461 30.9489C123.18 30.9489 123.85 31.0649 124.471 31.2969C125.096 31.5241 125.64 31.8674 126.104 32.3267C126.573 32.786 126.937 33.3636 127.198 34.0597C127.458 34.7509 127.588 35.5606 127.588 36.4886V37.3196H118.377V35.4446H124.74C124.74 35.009 124.646 34.6231 124.456 34.2869C124.267 33.9508 124.004 33.688 123.668 33.4986C123.337 33.3045 122.951 33.2074 122.51 33.2074C122.051 33.2074 121.644 33.3139 121.289 33.527C120.938 33.7353 120.664 34.017 120.465 34.3722C120.266 34.7225 120.164 35.1132 120.159 35.544V37.3267C120.159 37.8665 120.259 38.3329 120.458 38.7259C120.661 39.1188 120.948 39.4219 121.317 39.6349C121.686 39.848 122.124 39.9545 122.631 39.9545C122.967 39.9545 123.275 39.9072 123.554 39.8125C123.834 39.7178 124.073 39.5758 124.272 39.3864C124.471 39.197 124.622 38.965 124.726 38.6903L127.525 38.875C127.382 39.5473 127.091 40.1345 126.651 40.6364C126.215 41.1335 125.652 41.5218 124.961 41.8011C124.274 42.0758 123.481 42.2131 122.581 42.2131ZM135.365 31.0909V33.3636H128.796V31.0909H135.365ZM130.287 28.4773H133.313V38.6477C133.313 38.9271 133.355 39.1449 133.441 39.3011C133.526 39.4527 133.644 39.5592 133.796 39.6207C133.952 39.6823 134.132 39.7131 134.336 39.7131C134.478 39.7131 134.62 39.7012 134.762 39.6776C134.904 39.6491 135.013 39.6278 135.088 39.6136L135.564 41.8651C135.413 41.9124 135.2 41.9669 134.925 42.0284C134.65 42.0947 134.317 42.1349 133.924 42.1491C133.194 42.1776 132.555 42.0805 132.006 41.858C131.462 41.6354 131.038 41.2898 130.735 40.821C130.432 40.3523 130.283 39.7604 130.287 39.0455V28.4773ZM137.336 42V31.0909H140.362V42H137.336ZM138.856 29.6847C138.406 29.6847 138.02 29.5355 137.699 29.2372C137.381 28.9342 137.223 28.572 137.223 28.1506C137.223 27.7339 137.381 27.3764 137.699 27.0781C138.02 26.7751 138.406 26.6236 138.856 26.6236C139.306 26.6236 139.69 26.7751 140.007 27.0781C140.329 27.3764 140.49 27.7339 140.49 28.1506C140.49 28.572 140.329 28.9342 140.007 29.2372C139.69 29.5355 139.306 29.6847 138.856 29.6847ZM148.652 31.0909V33.3636H141.919V31.0909H148.652ZM143.46 42V30.3026C143.46 29.5118 143.614 28.8561 143.922 28.3352C144.234 27.8144 144.661 27.4238 145.2 27.1634C145.74 26.9029 146.353 26.7727 147.04 26.7727C147.504 26.7727 147.928 26.8082 148.311 26.8793C148.699 26.9503 148.988 27.0142 149.178 27.071L148.638 29.3438C148.519 29.3059 148.373 29.2704 148.197 29.2372C148.027 29.2041 147.852 29.1875 147.672 29.1875C147.227 29.1875 146.917 29.2917 146.741 29.5C146.566 29.7036 146.479 29.9901 146.479 30.3594V42H143.46ZM152.368 46.0909C151.985 46.0909 151.625 46.0601 151.289 45.9986C150.957 45.9418 150.683 45.8684 150.465 45.7784L151.147 43.5199C151.502 43.6288 151.821 43.688 152.105 43.6974C152.394 43.7069 152.643 43.6406 152.851 43.4986C153.064 43.3565 153.237 43.1151 153.37 42.7741L153.547 42.3125L149.634 31.0909H152.816L155.074 39.1023H155.188L157.468 31.0909H160.671L156.431 43.179C156.227 43.7661 155.95 44.2775 155.6 44.7131C155.254 45.1534 154.816 45.492 154.286 45.7287C153.756 45.9702 153.116 46.0909 152.368 46.0909Z" fill="#4E67AA"/>
<defs>
<filter id="filter0_d_6_308" x="22" y="9" width="280" height="60" filterUnits="userSpaceOnUse" color-interpolation-filters="sRGB">
<feFlood flood-opacity="0" result="BackgroundImageFix"/>
<feColorMatrix in="SourceAlpha" type="matrix" values="0 0 0 0 0 0 0 0 0 0 0 0 0 0 0 0 0 0 127 0" result="hardAlpha"/>
<feOffset dx="2" dy="4"/>
<feGaussianBlur stdDeviation="2.5"/>
<feComposite in2="hardAlpha" operator="out"/>
<feColorMatrix type="matrix" values="0 0 0 0 0 0 0 0 0 0 0 0 0 0 0 0 0 0 0.25 0"/>
<feBlend mode="normal" in2="BackgroundImageFix" result="effect1_dropShadow_6_308"/>
<feBlend mode="normal" in="SourceGraphic" in2="effect1_dropShadow_6_308" result="shape"/>
</filter>
<clipPath id="clip0_6_308">
<rect width="33.3" height="33.3" fill="white" transform="translate(41.6 18.3)"/>
</clipPath>
</defs>
</svg>
