<svg width="320" height="70" viewBox="0 0 320 70" fill="none" xmlns="http://www.w3.org/2000/svg">
<g filter="url(#filter0_d_6_486)">
<rect x="25" y="10" width="270" height="50" rx="15" fill="white"/>
</g>
<path d="M56.8625 43.275H59.6375V40.5H56.8625V43.275ZM58.25 21.075C56.4279 21.075 54.6237 21.4339 52.9403 22.1312C51.2569 22.8285 49.7273 23.8505 48.4389 25.1389C45.8368 27.741 44.375 31.2701 44.375 34.95C44.375 38.6299 45.8368 42.159 48.4389 44.7611C49.7273 46.0495 51.2569 47.0715 52.9403 47.7688C54.6237 48.4661 56.4279 48.825 58.25 48.825C61.9299 48.825 65.459 47.3632 68.0611 44.7611C70.6632 42.159 72.125 38.6299 72.125 34.95C72.125 33.1279 71.7661 31.3237 71.0688 29.6403C70.3715 27.9569 69.3495 26.4273 68.0611 25.1389C66.7727 23.8505 65.2431 22.8285 63.5597 22.1312C61.8763 21.4339 60.0721 21.075 58.25 21.075V21.075ZM58.25 46.05C52.1311 46.05 47.15 41.0689 47.15 34.95C47.15 28.8311 52.1311 23.85 58.25 23.85C64.3689 23.85 69.35 28.8311 69.35 34.95C69.35 41.0689 64.3689 46.05 58.25 46.05ZM58.25 26.625C56.778 26.625 55.3664 27.2097 54.3256 28.2506C53.2847 29.2914 52.7 30.7031 52.7 32.175H55.475C55.475 31.439 55.7674 30.7332 56.2878 30.2128C56.8082 29.6924 57.514 29.4 58.25 29.4C58.986 29.4 59.6918 29.6924 60.2122 30.2128C60.7326 30.7332 61.025 31.439 61.025 32.175C61.025 34.95 56.8625 34.6031 56.8625 39.1125H59.6375C59.6375 35.9906 63.8 35.6438 63.8 32.175C63.8 30.7031 63.2153 29.2914 62.1744 28.2506C61.1336 27.2097 59.722 26.625 58.25 26.625Z" fill="#4E67AA"/>
<path d="M91.9759 42.1847C91.5071 42.1847 91.1046 42.0189 90.7685 41.6875C90.437 41.3513 90.2713 40.9489 90.2713 40.4801C90.2713 40.0161 90.437 39.6184 90.7685 39.2869C91.1046 38.9555 91.5071 38.7898 91.9759 38.7898C92.4304 38.7898 92.8281 38.9555 93.169 39.2869C93.5099 39.6184 93.6804 40.0161 93.6804 40.4801C93.6804 40.7926 93.5999 41.0791 93.4389 41.3395C93.2827 41.5952 93.0767 41.8011 92.821 41.9574C92.5653 42.1089 92.2836 42.1847 91.9759 42.1847ZM97.9329 42.1847C97.4641 42.1847 97.0617 42.0189 96.7255 41.6875C96.3941 41.3513 96.2283 40.9489 96.2283 40.4801C96.2283 40.0161 96.3941 39.6184 96.7255 39.2869C97.0617 38.9555 97.4641 38.7898 97.9329 38.7898C98.3874 38.7898 98.7852 38.9555 99.1261 39.2869C99.467 39.6184 99.6374 40.0161 99.6374 40.4801C99.6374 40.7926 99.5569 41.0791 99.396 41.3395C99.2397 41.5952 99.0337 41.8011 98.7781 41.9574C98.5224 42.1089 98.2406 42.1847 97.9329 42.1847ZM103.89 42.1847C103.421 42.1847 103.019 42.0189 102.683 41.6875C102.351 41.3513 102.185 40.9489 102.185 40.4801C102.185 40.0161 102.351 39.6184 102.683 39.2869C103.019 38.9555 103.421 38.7898 103.89 38.7898C104.344 38.7898 104.742 38.9555 105.083 39.2869C105.424 39.6184 105.594 40.0161 105.594 40.4801C105.594 40.7926 105.514 41.0791 105.353 41.3395C105.197 41.5952 104.991 41.8011 104.735 41.9574C104.479 42.1089 104.198 42.1847 103.89 42.1847ZM105.916 27.4545H109.36L112.677 33.7188H112.819L116.136 27.4545H119.581L114.275 36.858V42H111.221V36.858L105.916 27.4545ZM133.748 34.7273C133.748 36.3134 133.447 37.6629 132.846 38.7756C132.249 39.8883 131.435 40.7382 130.403 41.3253C129.375 41.9077 128.22 42.1989 126.937 42.1989C125.644 42.1989 124.484 41.9053 123.457 41.3182C122.429 40.7311 121.617 39.8812 121.021 38.7685C120.424 37.6558 120.126 36.3087 120.126 34.7273C120.126 33.1411 120.424 31.7917 121.021 30.679C121.617 29.5663 122.429 28.7187 123.457 28.1364C124.484 27.5492 125.644 27.2557 126.937 27.2557C128.22 27.2557 129.375 27.5492 130.403 28.1364C131.435 28.7187 132.249 29.5663 132.846 30.679C133.447 31.7917 133.748 33.1411 133.748 34.7273ZM130.63 34.7273C130.63 33.6998 130.476 32.8333 130.168 32.1278C129.865 31.4223 129.437 30.8873 128.883 30.5227C128.329 30.1581 127.68 29.9759 126.937 29.9759C126.193 29.9759 125.545 30.1581 124.991 30.5227C124.437 30.8873 124.006 31.4223 123.698 32.1278C123.395 32.8333 123.244 33.6998 123.244 34.7273C123.244 35.7547 123.395 36.6212 123.698 37.3267C124.006 38.0322 124.437 38.5672 124.991 38.9318C125.545 39.2964 126.193 39.4787 126.937 39.4787C127.68 39.4787 128.329 39.2964 128.883 38.9318C129.437 38.5672 129.865 38.0322 130.168 37.3267C130.476 36.6212 130.63 35.7547 130.63 34.7273ZM145.01 27.4545H148.086V36.9006C148.086 37.9612 147.832 38.8892 147.326 39.6847C146.824 40.4801 146.121 41.1004 145.216 41.5455C144.312 41.9858 143.258 42.206 142.056 42.206C140.848 42.206 139.792 41.9858 138.888 41.5455C137.984 41.1004 137.281 40.4801 136.779 39.6847C136.277 38.8892 136.026 37.9612 136.026 36.9006V27.4545H139.101V36.6378C139.101 37.1918 139.222 37.6842 139.463 38.1151C139.71 38.5459 140.055 38.8845 140.5 39.1307C140.945 39.3769 141.464 39.5 142.056 39.5C142.652 39.5 143.171 39.3769 143.611 39.1307C144.056 38.8845 144.4 38.5459 144.641 38.1151C144.887 37.6842 145.01 37.1918 145.01 36.6378V27.4545ZM150.616 42V27.4545H156.354C157.453 27.4545 158.39 27.651 159.167 28.044C159.948 28.4323 160.542 28.9839 160.95 29.6989C161.362 30.4091 161.567 31.2448 161.567 32.206C161.567 33.1719 161.359 34.0028 160.942 34.6989C160.526 35.3902 159.922 35.9205 159.131 36.2898C158.345 36.6591 157.394 36.8438 156.276 36.8438H152.434V34.3722H155.779C156.366 34.3722 156.854 34.2917 157.242 34.1307C157.63 33.9697 157.919 33.7282 158.109 33.4062C158.303 33.0843 158.4 32.6842 158.4 32.206C158.4 31.723 158.303 31.3158 158.109 30.9844C157.919 30.6529 157.628 30.402 157.235 30.2315C156.847 30.0563 156.357 29.9688 155.765 29.9688H153.691V42H150.616ZM158.471 35.3807L162.086 42H158.691L155.154 35.3807H158.471ZM168.37 42V27.4545H174.108C175.212 27.4545 176.151 27.6652 176.928 28.0866C177.704 28.5033 178.296 29.0833 178.703 29.8267C179.115 30.5653 179.321 31.4176 179.321 32.3835C179.321 33.3494 179.113 34.2017 178.696 34.9403C178.28 35.679 177.676 36.2543 176.885 36.6662C176.099 37.0781 175.148 37.2841 174.03 37.2841H170.373V34.8196H173.533C174.125 34.8196 174.613 34.7178 174.996 34.5142C175.384 34.3059 175.673 34.0194 175.863 33.6548C176.057 33.2855 176.154 32.8617 176.154 32.3835C176.154 31.9006 176.057 31.4792 175.863 31.1193C175.673 30.7547 175.384 30.473 174.996 30.2741C174.608 30.0705 174.115 29.9688 173.519 29.9688H171.445V42H168.37ZM181.319 42V27.4545H187.058C188.156 27.4545 189.094 27.651 189.87 28.044C190.651 28.4323 191.246 28.9839 191.653 29.6989C192.065 30.4091 192.271 31.2448 192.271 32.206C192.271 33.1719 192.062 34.0028 191.646 34.6989C191.229 35.3902 190.625 35.9205 189.835 36.2898C189.049 36.6591 188.097 36.8438 186.979 36.8438H183.137V34.3722H186.482C187.069 34.3722 187.557 34.2917 187.945 34.1307C188.334 33.9697 188.622 33.7282 188.812 33.4062C189.006 33.0843 189.103 32.6842 189.103 32.206C189.103 31.723 189.006 31.3158 188.812 30.9844C188.622 30.6529 188.331 30.402 187.938 30.2315C187.55 30.0563 187.06 29.9688 186.468 29.9688H184.394V42H181.319ZM189.174 35.3807L192.789 42H189.394L185.857 35.3807H189.174ZM207.81 34.7273C207.81 36.3134 207.51 37.6629 206.908 38.7756C206.312 39.8883 205.497 40.7382 204.465 41.3253C203.438 41.9077 202.282 42.1989 200.999 42.1989C199.707 42.1989 198.547 41.9053 197.519 41.3182C196.492 40.7311 195.68 39.8812 195.083 38.7685C194.487 37.6558 194.188 36.3087 194.188 34.7273C194.188 33.1411 194.487 31.7917 195.083 30.679C195.68 29.5663 196.492 28.7187 197.519 28.1364C198.547 27.5492 199.707 27.2557 200.999 27.2557C202.282 27.2557 203.438 27.5492 204.465 28.1364C205.497 28.7187 206.312 29.5663 206.908 30.679C207.51 31.7917 207.81 33.1411 207.81 34.7273ZM204.692 34.7273C204.692 33.6998 204.539 32.8333 204.231 32.1278C203.928 31.4223 203.499 30.8873 202.945 30.5227C202.391 30.1581 201.743 29.9759 200.999 29.9759C200.256 29.9759 199.607 30.1581 199.053 30.5227C198.499 30.8873 198.068 31.4223 197.761 32.1278C197.458 32.8333 197.306 33.6998 197.306 34.7273C197.306 35.7547 197.458 36.6212 197.761 37.3267C198.068 38.0322 198.499 38.5672 199.053 38.9318C199.607 39.2964 200.256 39.4787 200.999 39.4787C201.743 39.4787 202.391 39.2964 202.945 38.9318C203.499 38.5672 203.928 38.0322 204.231 37.3267C204.539 36.6212 204.692 35.7547 204.692 34.7273ZM215.912 27.4545H218.952V37.5966C218.952 38.5341 218.741 39.3485 218.32 40.0398C217.903 40.7311 217.323 41.2637 216.58 41.6378C215.837 42.0118 214.972 42.1989 213.988 42.1989C213.112 42.1989 212.316 42.045 211.601 41.7372C210.891 41.4247 210.328 40.9512 209.911 40.3168C209.494 39.6776 209.288 38.875 209.293 37.9091H212.354C212.364 38.2926 212.442 38.6217 212.588 38.8963C212.74 39.1662 212.946 39.3745 213.206 39.5213C213.471 39.6634 213.784 39.7344 214.144 39.7344C214.523 39.7344 214.842 39.6539 215.103 39.4929C215.368 39.3272 215.569 39.0857 215.706 38.7685C215.844 38.4512 215.912 38.0606 215.912 37.5966V27.4545ZM221.495 42V27.4545H231.296V29.9901H224.57V33.456H230.792V35.9915H224.57V39.4645H231.324V42H221.495ZM246.575 32.5469H243.464C243.407 32.1444 243.291 31.7869 243.116 31.4744C242.941 31.1572 242.716 30.8873 242.441 30.6648C242.166 30.4422 241.849 30.2718 241.489 30.1534C241.134 30.035 240.748 29.9759 240.332 29.9759C239.579 29.9759 238.923 30.1629 238.364 30.5369C237.806 30.9062 237.372 31.446 237.065 32.1562C236.757 32.8617 236.603 33.7187 236.603 34.7273C236.603 35.7642 236.757 36.6354 237.065 37.3409C237.377 38.0464 237.813 38.5791 238.371 38.9389C238.93 39.2988 239.576 39.4787 240.31 39.4787C240.722 39.4787 241.103 39.4242 241.454 39.3153C241.809 39.2064 242.124 39.0478 242.398 38.8395C242.673 38.6264 242.9 38.3684 243.08 38.0653C243.265 37.7623 243.393 37.4167 243.464 37.0284L246.575 37.0426C246.494 37.7102 246.293 38.3542 245.971 38.9744C245.654 39.59 245.225 40.1416 244.685 40.6293C244.15 41.1122 243.511 41.4957 242.768 41.7798C242.029 42.0592 241.193 42.1989 240.261 42.1989C238.963 42.1989 237.803 41.9053 236.781 41.3182C235.763 40.7311 234.958 39.8812 234.366 38.7685C233.779 37.6558 233.485 36.3087 233.485 34.7273C233.485 33.1411 233.783 31.7917 234.38 30.679C234.977 29.5663 235.786 28.7187 236.809 28.1364C237.832 27.5492 238.982 27.2557 240.261 27.2557C241.103 27.2557 241.885 27.3741 242.604 27.6108C243.329 27.8475 243.97 28.1932 244.529 28.6477C245.088 29.0975 245.542 29.6491 245.893 30.3026C246.248 30.956 246.475 31.7041 246.575 32.5469ZM248.226 29.9901V27.4545H260.172V29.9901H255.719V42H252.679V29.9901H248.226ZM264.682 37.6392V37.3977C264.687 36.5691 264.76 35.9086 264.902 35.4162C265.049 34.9238 265.262 34.526 265.541 34.223C265.821 33.92 266.157 33.6454 266.55 33.3991C266.843 33.2098 267.106 33.0133 267.338 32.8097C267.57 32.6061 267.755 32.3812 267.892 32.1349C268.029 31.884 268.098 31.6046 268.098 31.2969C268.098 30.9702 268.02 30.6837 267.864 30.4375C267.707 30.1913 267.497 30.0019 267.232 29.8693C266.971 29.7367 266.682 29.6705 266.365 29.6705C266.057 29.6705 265.766 29.7391 265.491 29.8764C265.217 30.009 264.992 30.2079 264.817 30.473C264.642 30.7334 264.547 31.0578 264.533 31.446H261.635C261.659 30.4991 261.886 29.7178 262.317 29.1023C262.748 28.482 263.318 28.0204 264.028 27.7173C264.739 27.4096 265.522 27.2557 266.379 27.2557C267.321 27.2557 268.155 27.4119 268.879 27.7244C269.604 28.0322 270.172 28.4796 270.584 29.0668C270.996 29.6539 271.202 30.3617 271.202 31.1903C271.202 31.7443 271.109 32.2367 270.925 32.6676C270.745 33.0937 270.491 33.4725 270.165 33.804C269.838 34.1307 269.452 34.4266 269.007 34.6918C268.633 34.9143 268.325 35.1463 268.084 35.3878C267.847 35.6293 267.67 35.9086 267.551 36.2259C267.438 36.5431 267.378 36.9337 267.374 37.3977V37.6392H264.682ZM266.088 42.1847C265.615 42.1847 265.21 42.0189 264.874 41.6875C264.542 41.3513 264.379 40.9489 264.384 40.4801C264.379 40.0161 264.542 39.6184 264.874 39.2869C265.21 38.9555 265.615 38.7898 266.088 38.7898C266.538 38.7898 266.933 38.9555 267.274 39.2869C267.615 39.6184 267.788 40.0161 267.793 40.4801C267.788 40.7926 267.705 41.0791 267.544 41.3395C267.388 41.5952 267.182 41.8011 266.926 41.9574C266.67 42.1089 266.391 42.1847 266.088 42.1847Z" fill="#4E67AA"/>
<defs>
<filter id="filter0_d_6_486" x="22" y="9" width="280" height="60" filterUnits="userSpaceOnUse" color-interpolation-filters="sRGB">
<feFlood flood-opacity="0" result="BackgroundImageFix"/>
<feColorMatrix in="SourceAlpha" type="matrix" values="0 0 0 0 0 0 0 0 0 0 0 0 0 0 0 0 0 0 127 0" result="hardAlpha"/>
<feOffset dx="2" dy="4"/>
<feGaussianBlur stdDeviation="2.5"/>
<feComposite in2="hardAlpha" operator="out"/>
<feColorMatrix type="matrix" values="0 0 0 0 0 0 0 0 0 0 0 0 0 0 0 0 0 0 0.25 0"/>
<feBlend mode="normal" in2="BackgroundImageFix" result="effect1_dropShadow_6_486"/>
<feBlend mode="normal" in="SourceGraphic" in2="effect1_dropShadow_6_486" result="shape"/>
</filter>
</defs>
</svg>
