<svg width="270" height="70" viewBox="0 0 270 70" fill="none" xmlns="http://www.w3.org/2000/svg">
<g filter="url(#filter0_d_6_472)">
<rect x="25" y="10" width="220" height="50" rx="15" fill="white"/>
</g>
<path d="M48.5375 22.4625L47.6356 27.0967H66.4918L65.8813 30.0937H47.039L46.1233 34.7141H64.9794L63.9249 40.0005L56.3214 42.5119L49.7308 40.0005L50.1886 37.725H45.5544L44.4583 43.275L55.3501 47.4375L67.907 43.275L69.572 34.9084L69.905 33.2295L72.0418 22.4625H48.5375Z" fill="#4E67AA"/>
<path d="M103.098 32.5469H99.9872C99.9304 32.1444 99.8144 31.7869 99.6392 31.4744C99.464 31.1572 99.2391 30.8873 98.9645 30.6648C98.6899 30.4422 98.3726 30.2718 98.0128 30.1534C97.6577 30.035 97.2718 29.9759 96.8551 29.9759C96.1023 29.9759 95.4465 30.1629 94.8878 30.5369C94.3291 30.9062 93.8958 31.446 93.5881 32.1562C93.2803 32.8617 93.1264 33.7187 93.1264 34.7273C93.1264 35.7642 93.2803 36.6354 93.5881 37.3409C93.9006 38.0464 94.3362 38.5791 94.8949 38.9389C95.4536 39.2988 96.0999 39.4787 96.8338 39.4787C97.2457 39.4787 97.6269 39.4242 97.9773 39.3153C98.3324 39.2064 98.6473 39.0478 98.9219 38.8395C99.1965 38.6264 99.4238 38.3684 99.6037 38.0653C99.7884 37.7623 99.9162 37.4167 99.9872 37.0284L103.098 37.0426C103.018 37.7102 102.816 38.3542 102.494 38.9744C102.177 39.59 101.749 40.1416 101.209 40.6293C100.674 41.1122 100.035 41.4957 99.2912 41.7798C98.5526 42.0592 97.7169 42.1989 96.7841 42.1989C95.4867 42.1989 94.3267 41.9053 93.304 41.3182C92.286 40.7311 91.4811 39.8812 90.8892 38.7685C90.3021 37.6558 90.0085 36.3087 90.0085 34.7273C90.0085 33.1411 90.3068 31.7917 90.9034 30.679C91.5 29.5663 92.3097 28.7187 93.3324 28.1364C94.3551 27.5492 95.5057 27.2557 96.7841 27.2557C97.6269 27.2557 98.4081 27.3741 99.1278 27.6108C99.8523 27.8475 100.494 28.1932 101.053 28.6477C101.611 29.0975 102.066 29.6491 102.416 30.3026C102.771 30.956 102.999 31.7041 103.098 32.5469ZM113.194 31.6378C113.137 31.0649 112.893 30.6198 112.462 30.3026C112.031 29.9853 111.447 29.8267 110.708 29.8267C110.206 29.8267 109.782 29.8977 109.437 30.0398C109.091 30.1771 108.826 30.3688 108.641 30.6151C108.461 30.8613 108.371 31.1406 108.371 31.4531C108.362 31.7135 108.416 31.9408 108.535 32.1349C108.658 32.3291 108.826 32.4972 109.039 32.6392C109.252 32.7765 109.498 32.8973 109.778 33.0014C110.057 33.1009 110.355 33.1861 110.673 33.2571L111.979 33.5696C112.614 33.7116 113.196 33.901 113.727 34.1378C114.257 34.3745 114.716 34.6657 115.104 35.0114C115.493 35.357 115.793 35.7642 116.006 36.233C116.224 36.7017 116.335 37.2391 116.34 37.8452C116.335 38.7353 116.108 39.5071 115.658 40.1605C115.213 40.8092 114.569 41.3134 113.727 41.6733C112.888 42.0284 111.878 42.206 110.694 42.206C109.52 42.206 108.497 42.026 107.626 41.6662C106.759 41.3063 106.082 40.7737 105.594 40.0682C105.112 39.358 104.858 38.4796 104.835 37.4332H107.81C107.844 37.9209 107.983 38.3281 108.229 38.6548C108.48 38.9768 108.814 39.2206 109.231 39.3864C109.652 39.5473 110.128 39.6278 110.658 39.6278C111.179 39.6278 111.631 39.5521 112.015 39.4006C112.403 39.2491 112.704 39.0384 112.917 38.7685C113.13 38.4986 113.237 38.1884 113.237 37.8381C113.237 37.5114 113.139 37.2367 112.945 37.0142C112.756 36.7917 112.477 36.6023 112.107 36.446C111.743 36.2898 111.295 36.1477 110.765 36.0199L109.181 35.6222C107.955 35.3239 106.987 34.8575 106.276 34.223C105.566 33.5885 105.213 32.7339 105.218 31.6591C105.213 30.7784 105.448 30.009 105.921 29.3509C106.399 28.6927 107.055 28.179 107.888 27.8097C108.722 27.4403 109.669 27.2557 110.729 27.2557C111.809 27.2557 112.751 27.4403 113.556 27.8097C114.366 28.179 114.996 28.6927 115.445 29.3509C115.895 30.009 116.127 30.7713 116.141 31.6378H113.194ZM126.299 31.6378C126.243 31.0649 125.999 30.6198 125.568 30.3026C125.137 29.9853 124.552 29.8267 123.814 29.8267C123.312 29.8267 122.888 29.8977 122.542 30.0398C122.197 30.1771 121.931 30.3688 121.747 30.6151C121.567 30.8613 121.477 31.1406 121.477 31.4531C121.467 31.7135 121.522 31.9408 121.64 32.1349C121.763 32.3291 121.931 32.4972 122.145 32.6392C122.358 32.7765 122.604 32.8973 122.883 33.0014C123.163 33.1009 123.461 33.1861 123.778 33.2571L125.085 33.5696C125.719 33.7116 126.302 33.901 126.832 34.1378C127.362 34.3745 127.822 34.6657 128.21 35.0114C128.598 35.357 128.899 35.7642 129.112 36.233C129.33 36.7017 129.441 37.2391 129.446 37.8452C129.441 38.7353 129.214 39.5071 128.764 40.1605C128.319 40.8092 127.675 41.3134 126.832 41.6733C125.994 42.0284 124.983 42.206 123.799 42.206C122.625 42.206 121.602 42.026 120.731 41.6662C119.865 41.3063 119.188 40.7737 118.7 40.0682C118.217 39.358 117.964 38.4796 117.94 37.4332H120.916C120.949 37.9209 121.089 38.3281 121.335 38.6548C121.586 38.9768 121.92 39.2206 122.336 39.3864C122.758 39.5473 123.234 39.6278 123.764 39.6278C124.285 39.6278 124.737 39.5521 125.12 39.4006C125.509 39.2491 125.809 39.0384 126.022 38.7685C126.235 38.4986 126.342 38.1884 126.342 37.8381C126.342 37.5114 126.245 37.2367 126.051 37.0142C125.861 36.7917 125.582 36.6023 125.213 36.446C124.848 36.2898 124.401 36.1477 123.87 36.0199L122.287 35.6222C121.06 35.3239 120.092 34.8575 119.382 34.223C118.672 33.5885 118.319 32.7339 118.324 31.6591C118.319 30.7784 118.553 30.009 119.027 29.3509C119.505 28.6927 120.161 28.179 120.994 27.8097C121.827 27.4403 122.774 27.2557 123.835 27.2557C124.914 27.2557 125.857 27.4403 126.662 27.8097C127.471 28.179 128.101 28.6927 128.551 29.3509C129.001 30.009 129.233 30.7713 129.247 31.6378H126.299Z" fill="#4E67AA"/>
<defs>
<filter id="filter0_d_6_472" x="22" y="9" width="230" height="60" filterUnits="userSpaceOnUse" color-interpolation-filters="sRGB">
<feFlood flood-opacity="0" result="BackgroundImageFix"/>
<feColorMatrix in="SourceAlpha" type="matrix" values="0 0 0 0 0 0 0 0 0 0 0 0 0 0 0 0 0 0 127 0" result="hardAlpha"/>
<feOffset dx="2" dy="4"/>
<feGaussianBlur stdDeviation="2.5"/>
<feComposite in2="hardAlpha" operator="out"/>
<feColorMatrix type="matrix" values="0 0 0 0 0 0 0 0 0 0 0 0 0 0 0 0 0 0 0.25 0"/>
<feBlend mode="normal" in2="BackgroundImageFix" result="effect1_dropShadow_6_472"/>
<feBlend mode="normal" in="SourceGraphic" in2="effect1_dropShadow_6_472" result="shape"/>
</filter>
</defs>
</svg>
