<svg width="270" height="70" viewBox="0 0 270 70" fill="none" xmlns="http://www.w3.org/2000/svg">
<g filter="url(#filter0_d_6_410)">
<rect x="25" y="10" width="220" height="50" rx="15" fill="white"/>
</g>
<path d="M58.25 20.8669C57.8754 20.8669 57.4869 20.964 57.1678 21.1444L46.8448 27.1106C46.1788 27.4991 45.7625 28.2206 45.7625 28.9976V40.9024C45.7625 41.6794 46.1788 42.4008 46.8448 42.7893L49.5504 44.3434C50.8685 44.9816 51.3125 44.9955 51.923 44.9955C53.8655 44.9955 54.9894 43.8161 54.9894 41.7626V30.0105C54.9894 29.844 54.8506 29.7052 54.6841 29.7052H53.3938C53.2134 29.7052 53.0746 29.844 53.0746 30.0105V41.7626C53.0746 42.6783 52.1311 43.5802 50.6188 42.8171L47.7744 41.1937C47.6773 41.1244 47.6218 41.0134 47.6218 40.9024V28.9976C47.6218 28.8727 47.6773 28.7617 47.7744 28.7062L58.0974 22.7539C58.1806 22.6984 58.3194 22.6984 58.4026 22.7539L68.7256 28.7062C68.8228 28.7617 68.8783 28.8727 68.8783 28.9976V40.9024C68.8783 41.0134 68.8228 41.1244 68.7256 41.1937L58.4026 47.1461C58.3194 47.2016 58.1806 47.2016 58.0835 47.1461L55.475 45.5643C55.364 45.5227 55.253 45.5088 55.1836 45.5505C54.4483 45.9667 54.3095 46.05 53.6296 46.2581C53.4631 46.3136 53.1995 46.4107 53.7268 46.7021L57.1678 48.7417C57.5008 48.936 57.8615 49.0331 58.25 49.0331C58.6385 49.0331 58.9993 48.936 59.3323 48.7417L69.6553 42.7893C70.3213 42.4008 70.7375 41.6794 70.7375 40.9024V28.9976C70.7375 28.2206 70.3213 27.4991 69.6553 27.1106L59.3323 21.1444C59.0131 20.964 58.6385 20.8669 58.25 20.8669ZM61.025 29.4C58.0835 29.4 56.3214 30.6349 56.3214 32.7161C56.3214 34.95 58.0696 35.6021 60.9001 35.8796C64.2718 36.2126 64.5354 36.7121 64.5354 37.3781C64.5354 38.5297 63.6058 39.0154 61.4413 39.0154C58.694 39.0154 58.1113 38.3355 57.9031 36.9757C57.8754 36.837 57.7505 36.726 57.5979 36.726H56.2659C56.0994 36.726 55.9745 36.8509 55.9745 37.0312C55.9745 38.7517 56.918 40.833 61.4413 40.833C64.7019 40.833 66.575 39.5426 66.575 37.2948C66.575 35.061 65.0765 34.4782 61.8991 34.0481C58.694 33.6319 58.3749 33.4099 58.3749 32.6606C58.3749 32.0362 58.6524 31.2037 61.025 31.2037C63.1063 31.2037 63.9249 31.6616 64.244 33.0907C64.2718 33.2295 64.3966 33.3266 64.5354 33.3266H65.8813C65.9506 33.3266 66.0339 33.2989 66.0894 33.2295C66.1449 33.174 66.1865 33.0907 66.1588 33.0075C65.9645 30.5377 64.3273 29.4 61.025 29.4Z" fill="#4E67AA"/>
<path d="M90.2642 42V27.4545H100.065V29.9901H93.3395V33.456H99.5611V35.9915H93.3395V39.4645H100.094V42H90.2642ZM104.982 31.0909L106.985 34.9048L109.037 31.0909H112.141L108.98 36.5455L112.226 42H109.137L106.985 38.2287L104.868 42H101.743L104.982 36.5455L101.857 31.0909H104.982ZM113.938 46.0909V31.0909H116.921V32.9233H117.056C117.188 32.6297 117.38 32.3314 117.631 32.0284C117.887 31.7206 118.218 31.465 118.625 31.2614C119.037 31.053 119.549 30.9489 120.159 30.9489C120.955 30.9489 121.689 31.1572 122.361 31.5739C123.033 31.9858 123.571 32.6084 123.973 33.4418C124.376 34.2704 124.577 35.3097 124.577 36.5597C124.577 37.7765 124.381 38.804 123.988 39.642C123.599 40.4754 123.069 41.1075 122.397 41.5384C121.729 41.9645 120.981 42.1776 120.152 42.1776C119.565 42.1776 119.066 42.0805 118.654 41.8864C118.247 41.6922 117.913 41.4484 117.652 41.1548C117.392 40.8565 117.193 40.5559 117.056 40.2528H116.963V46.0909H113.938ZM116.9 36.5455C116.9 37.1941 116.989 37.7599 117.169 38.2429C117.349 38.7259 117.61 39.1023 117.951 39.3722C118.292 39.6373 118.706 39.7699 119.194 39.7699C119.686 39.7699 120.103 39.6349 120.444 39.3651C120.784 39.0904 121.042 38.7116 121.218 38.2287C121.398 37.741 121.488 37.1799 121.488 36.5455C121.488 35.9157 121.4 35.3617 121.225 34.8835C121.05 34.4053 120.792 34.0312 120.451 33.7614C120.11 33.4915 119.691 33.3565 119.194 33.3565C118.701 33.3565 118.284 33.4867 117.944 33.7472C117.607 34.0076 117.349 34.3769 117.169 34.8551C116.989 35.3333 116.9 35.8968 116.9 36.5455ZM126.594 42V31.0909H129.527V32.9943H129.641C129.84 32.3172 130.174 31.8059 130.642 31.4602C131.111 31.1098 131.651 30.9347 132.262 30.9347C132.413 30.9347 132.577 30.9441 132.752 30.9631C132.927 30.982 133.081 31.008 133.213 31.0412V33.7259C133.071 33.6832 132.875 33.6454 132.624 33.6122C132.373 33.5791 132.143 33.5625 131.935 33.5625C131.49 33.5625 131.092 33.6596 130.742 33.8537C130.396 34.0431 130.122 34.3082 129.918 34.6491C129.719 34.9901 129.62 35.383 129.62 35.8281V42H126.594ZM139.241 42.2131C138.119 42.2131 137.153 41.9858 136.344 41.5312C135.539 41.072 134.919 40.4233 134.483 39.5852C134.047 38.7424 133.83 37.7457 133.83 36.5952C133.83 35.473 134.047 34.4882 134.483 33.6406C134.919 32.7931 135.532 32.1326 136.322 31.6591C137.118 31.1856 138.051 30.9489 139.121 30.9489C139.84 30.9489 140.51 31.0649 141.131 31.2969C141.756 31.5241 142.3 31.8674 142.764 32.3267C143.233 32.786 143.598 33.3636 143.858 34.0597C144.118 34.7509 144.249 35.5606 144.249 36.4886V37.3196H135.037V35.4446H141.401C141.401 35.009 141.306 34.6231 141.116 34.2869C140.927 33.9508 140.664 33.688 140.328 33.4986C139.997 33.3045 139.611 33.2074 139.17 33.2074C138.711 33.2074 138.304 33.3139 137.949 33.527C137.598 33.7353 137.324 34.017 137.125 34.3722C136.926 34.7225 136.824 35.1132 136.82 35.544V37.3267C136.82 37.8665 136.919 38.3329 137.118 38.7259C137.321 39.1188 137.608 39.4219 137.977 39.6349C138.347 39.848 138.785 39.9545 139.291 39.9545C139.627 39.9545 139.935 39.9072 140.214 39.8125C140.494 39.7178 140.733 39.5758 140.932 39.3864C141.131 39.197 141.282 38.965 141.386 38.6903L144.185 38.875C144.043 39.5473 143.751 40.1345 143.311 40.6364C142.875 41.1335 142.312 41.5218 141.621 41.8011C140.934 42.0758 140.141 42.2131 139.241 42.2131ZM155.3 34.2017L152.53 34.3722C152.482 34.1354 152.381 33.9223 152.224 33.733C152.068 33.5388 151.862 33.3849 151.607 33.2713C151.356 33.1529 151.055 33.0938 150.705 33.0938C150.236 33.0938 149.84 33.1932 149.518 33.392C149.196 33.5862 149.036 33.8466 149.036 34.1733C149.036 34.4337 149.14 34.6539 149.348 34.8338C149.556 35.0137 149.914 35.1581 150.42 35.267L152.395 35.6648C153.455 35.8826 154.246 36.233 154.767 36.7159C155.288 37.1989 155.548 37.8333 155.548 38.6193C155.548 39.3343 155.338 39.9616 154.916 40.5014C154.5 41.0412 153.927 41.4626 153.197 41.7656C152.473 42.0639 151.637 42.2131 150.69 42.2131C149.246 42.2131 148.096 41.9124 147.239 41.3111C146.386 40.705 145.887 39.8812 145.74 38.8395L148.716 38.6832C148.806 39.1236 149.024 39.4598 149.369 39.6918C149.715 39.919 150.158 40.0327 150.697 40.0327C151.228 40.0327 151.654 39.9309 151.976 39.7273C152.303 39.5189 152.468 39.2514 152.473 38.9247C152.468 38.6501 152.352 38.4252 152.125 38.25C151.898 38.0701 151.547 37.9328 151.074 37.8381L149.185 37.4616C148.119 37.2486 147.326 36.8793 146.805 36.3537C146.289 35.8281 146.031 35.1581 146.031 34.3438C146.031 33.643 146.221 33.0393 146.599 32.5327C146.983 32.026 147.52 31.6354 148.212 31.3608C148.908 31.0862 149.722 30.9489 150.655 30.9489C152.033 30.9489 153.117 31.2401 153.908 31.8224C154.703 32.4048 155.167 33.1979 155.3 34.2017ZM166.53 34.2017L163.76 34.3722C163.713 34.1354 163.611 33.9223 163.455 33.733C163.299 33.5388 163.093 33.3849 162.837 33.2713C162.586 33.1529 162.285 33.0938 161.935 33.0938C161.466 33.0938 161.071 33.1932 160.749 33.392C160.427 33.5862 160.266 33.8466 160.266 34.1733C160.266 34.4337 160.37 34.6539 160.578 34.8338C160.787 35.0137 161.144 35.1581 161.651 35.267L163.625 35.6648C164.686 35.8826 165.477 36.233 165.998 36.7159C166.518 37.1989 166.779 37.8333 166.779 38.6193C166.779 39.3343 166.568 39.9616 166.147 40.5014C165.73 41.0412 165.157 41.4626 164.428 41.7656C163.703 42.0639 162.868 42.2131 161.921 42.2131C160.477 42.2131 159.326 41.9124 158.469 41.3111C157.617 40.705 157.117 39.8812 156.971 38.8395L159.946 38.6832C160.036 39.1236 160.254 39.4598 160.6 39.6918C160.945 39.919 161.388 40.0327 161.928 40.0327C162.458 40.0327 162.884 39.9309 163.206 39.7273C163.533 39.5189 163.699 39.2514 163.703 38.9247C163.699 38.6501 163.583 38.4252 163.355 38.25C163.128 38.0701 162.778 37.9328 162.304 37.8381L160.415 37.4616C159.35 37.2486 158.557 36.8793 158.036 36.3537C157.52 35.8281 157.262 35.1581 157.262 34.3438C157.262 33.643 157.451 33.0393 157.83 32.5327C158.213 32.026 158.751 31.6354 159.442 31.3608C160.138 31.0862 160.953 30.9489 161.885 30.9489C163.263 30.9489 164.347 31.2401 165.138 31.8224C165.934 32.4048 166.398 33.1979 166.53 34.2017Z" fill="#4E67AA"/>
<defs>
<filter id="filter0_d_6_410" x="22" y="9" width="230" height="60" filterUnits="userSpaceOnUse" color-interpolation-filters="sRGB">
<feFlood flood-opacity="0" result="BackgroundImageFix"/>
<feColorMatrix in="SourceAlpha" type="matrix" values="0 0 0 0 0 0 0 0 0 0 0 0 0 0 0 0 0 0 127 0" result="hardAlpha"/>
<feOffset dx="2" dy="4"/>
<feGaussianBlur stdDeviation="2.5"/>
<feComposite in2="hardAlpha" operator="out"/>
<feColorMatrix type="matrix" values="0 0 0 0 0 0 0 0 0 0 0 0 0 0 0 0 0 0 0.25 0"/>
<feBlend mode="normal" in2="BackgroundImageFix" result="effect1_dropShadow_6_410"/>
<feBlend mode="normal" in="SourceGraphic" in2="effect1_dropShadow_6_410" result="shape"/>
</filter>
</defs>
</svg>
