<svg width="270" height="70" viewBox="0 0 270 70" fill="none" xmlns="http://www.w3.org/2000/svg">
<g filter="url(#filter0_d_6_427)">
<rect x="25" y="10" width="220" height="50" rx="15" fill="white"/>
</g>
<path d="M45.7625 22.4625H70.7374V47.4375H45.7625V22.4625ZM52.3253 43.3305C52.8803 44.5099 53.9765 45.4811 55.8496 45.4811C57.9308 45.4811 59.36 44.3711 59.36 41.943V33.9233H57.0012V41.8875C57.0012 43.0808 56.5156 43.386 55.7525 43.386C54.9477 43.386 54.6147 42.831 54.2401 42.1789L52.3253 43.3305ZM60.6226 43.0808C61.3163 44.4405 62.7177 45.4811 64.9099 45.4811C67.1299 45.4811 68.795 44.3295 68.795 42.2066C68.795 40.2503 67.6711 39.3761 65.6731 38.5159L65.0903 38.2661C64.0775 37.836 63.6473 37.5446 63.6473 36.8509C63.6473 36.282 64.0775 35.838 64.7712 35.838C65.4372 35.838 65.8812 36.1294 66.2836 36.8509L68.1012 35.6438C67.3381 34.3118 66.2558 33.7984 64.7712 33.7984C62.6761 33.7984 61.3302 35.1304 61.3302 36.8925C61.3302 38.8073 62.4541 39.7091 64.1468 40.4306L64.7296 40.6804C65.8118 41.1521 66.4501 41.4435 66.4501 42.2483C66.4501 42.9143 65.8257 43.3999 64.8545 43.3999C63.7028 43.3999 63.0368 42.8033 62.5373 41.9708L60.6226 43.0808Z" fill="#4E67AA"/>
<path d="M96.0881 27.4545H99.1278V37.5966C99.1278 38.5341 98.9171 39.3485 98.4957 40.0398C98.0791 40.7311 97.4991 41.2637 96.7557 41.6378C96.0123 42.0118 95.1482 42.1989 94.1634 42.1989C93.2874 42.1989 92.492 42.045 91.777 41.7372C91.0668 41.4247 90.5033 40.9512 90.0866 40.3168C89.67 39.6776 89.464 38.875 89.4688 37.9091H92.5298C92.5393 38.2926 92.6174 38.6217 92.7642 38.8963C92.9157 39.1662 93.1217 39.3745 93.3821 39.5213C93.6473 39.6634 93.9598 39.7344 94.3196 39.7344C94.6984 39.7344 95.018 39.6539 95.2784 39.4929C95.5436 39.3272 95.7448 39.0857 95.8821 38.7685C96.0194 38.4512 96.0881 38.0606 96.0881 37.5966V27.4545ZM104.724 42.206C104.028 42.206 103.408 42.0852 102.864 41.8438C102.319 41.5975 101.888 41.2353 101.571 40.7571C101.259 40.2741 101.102 39.6728 101.102 38.9531C101.102 38.3471 101.214 37.8381 101.436 37.4261C101.659 37.0142 101.962 36.6828 102.345 36.4318C102.729 36.1809 103.164 35.9915 103.652 35.8636C104.144 35.7358 104.661 35.6458 105.2 35.5938C105.835 35.5275 106.346 35.4659 106.734 35.4091C107.123 35.3475 107.404 35.2576 107.58 35.1392C107.755 35.0208 107.842 34.8456 107.842 34.6136V34.571C107.842 34.1212 107.7 33.7732 107.416 33.527C107.137 33.2808 106.739 33.1577 106.223 33.1577C105.679 33.1577 105.245 33.2784 104.923 33.5199C104.601 33.7566 104.388 34.0549 104.284 34.4148L101.486 34.1875C101.628 33.5246 101.907 32.9517 102.324 32.4688C102.741 31.9811 103.278 31.607 103.936 31.3466C104.599 31.0814 105.366 30.9489 106.237 30.9489C106.843 30.9489 107.423 31.0199 107.977 31.1619C108.536 31.304 109.031 31.5241 109.462 31.8224C109.897 32.1207 110.241 32.5043 110.491 32.973C110.742 33.437 110.868 33.9934 110.868 34.642V42H107.999V40.4872H107.913C107.738 40.8281 107.504 41.1288 107.21 41.3892C106.917 41.6449 106.564 41.8461 106.152 41.9929C105.74 42.1349 105.264 42.206 104.724 42.206ZM105.591 40.1179C106.036 40.1179 106.429 40.0303 106.77 39.8551C107.111 39.6752 107.378 39.4337 107.572 39.1307C107.767 38.8277 107.864 38.4844 107.864 38.1009V36.9432C107.769 37.0047 107.639 37.0616 107.473 37.1136C107.312 37.161 107.13 37.206 106.926 37.2486C106.723 37.2865 106.519 37.322 106.315 37.3551C106.112 37.3835 105.927 37.4096 105.761 37.4332C105.406 37.4853 105.096 37.5682 104.831 37.6818C104.566 37.7955 104.36 37.9493 104.213 38.1435C104.066 38.3329 103.993 38.5696 103.993 38.8537C103.993 39.2656 104.142 39.5805 104.44 39.7983C104.743 40.0114 105.127 40.1179 105.591 40.1179ZM122.995 31.0909L119.181 42H115.772L111.958 31.0909H115.154L117.42 38.8963H117.533L119.792 31.0909H122.995ZM127.361 42.206C126.665 42.206 126.045 42.0852 125.5 41.8438C124.956 41.5975 124.525 41.2353 124.208 40.7571C123.895 40.2741 123.739 39.6728 123.739 38.9531C123.739 38.3471 123.85 37.8381 124.073 37.4261C124.295 37.0142 124.598 36.6828 124.982 36.4318C125.365 36.1809 125.801 35.9915 126.289 35.8636C126.781 35.7358 127.297 35.6458 127.837 35.5938C128.471 35.5275 128.983 35.4659 129.371 35.4091C129.759 35.3475 130.041 35.2576 130.216 35.1392C130.391 35.0208 130.479 34.8456 130.479 34.6136V34.571C130.479 34.1212 130.337 33.7732 130.053 33.527C129.774 33.2808 129.376 33.1577 128.86 33.1577C128.315 33.1577 127.882 33.2784 127.56 33.5199C127.238 33.7566 127.025 34.0549 126.921 34.4148L124.123 34.1875C124.265 33.5246 124.544 32.9517 124.961 32.4688C125.377 31.9811 125.915 31.607 126.573 31.3466C127.236 31.0814 128.003 30.9489 128.874 30.9489C129.48 30.9489 130.06 31.0199 130.614 31.1619C131.173 31.304 131.667 31.5241 132.098 31.8224C132.534 32.1207 132.877 32.5043 133.128 32.973C133.379 33.437 133.505 33.9934 133.505 34.642V42H130.635V40.4872H130.55C130.375 40.8281 130.141 41.1288 129.847 41.3892C129.553 41.6449 129.201 41.8461 128.789 41.9929C128.377 42.1349 127.901 42.206 127.361 42.206ZM128.228 40.1179C128.673 40.1179 129.066 40.0303 129.407 39.8551C129.748 39.6752 130.015 39.4337 130.209 39.1307C130.403 38.8277 130.5 38.4844 130.5 38.1009V36.9432C130.406 37.0047 130.275 37.0616 130.11 37.1136C129.949 37.161 129.766 37.206 129.563 37.2486C129.359 37.2865 129.156 37.322 128.952 37.3551C128.748 37.3835 128.564 37.4096 128.398 37.4332C128.043 37.4853 127.733 37.5682 127.468 37.6818C127.203 37.7955 126.997 37.9493 126.85 38.1435C126.703 38.3329 126.63 38.5696 126.63 38.8537C126.63 39.2656 126.779 39.5805 127.077 39.7983C127.38 40.0114 127.764 40.1179 128.228 40.1179ZM143.799 31.6378C143.743 31.0649 143.499 30.6198 143.068 30.3026C142.637 29.9853 142.052 29.8267 141.314 29.8267C140.812 29.8267 140.388 29.8977 140.042 30.0398C139.697 30.1771 139.431 30.3688 139.247 30.6151C139.067 30.8613 138.977 31.1406 138.977 31.4531C138.967 31.7135 139.022 31.9408 139.14 32.1349C139.263 32.3291 139.431 32.4972 139.645 32.6392C139.858 32.7765 140.104 32.8973 140.383 33.0014C140.663 33.1009 140.961 33.1861 141.278 33.2571L142.585 33.5696C143.219 33.7116 143.802 33.901 144.332 34.1378C144.862 34.3745 145.322 34.6657 145.71 35.0114C146.098 35.357 146.399 35.7642 146.612 36.233C146.83 36.7017 146.941 37.2391 146.946 37.8452C146.941 38.7353 146.714 39.5071 146.264 40.1605C145.819 40.8092 145.175 41.3134 144.332 41.6733C143.494 42.0284 142.483 42.206 141.299 42.206C140.125 42.206 139.102 42.026 138.231 41.6662C137.365 41.3063 136.688 40.7737 136.2 40.0682C135.717 39.358 135.464 38.4796 135.44 37.4332H138.416C138.449 37.9209 138.589 38.3281 138.835 38.6548C139.086 38.9768 139.42 39.2206 139.836 39.3864C140.258 39.5473 140.734 39.6278 141.264 39.6278C141.785 39.6278 142.237 39.5521 142.62 39.4006C143.009 39.2491 143.309 39.0384 143.522 38.7685C143.735 38.4986 143.842 38.1884 143.842 37.8381C143.842 37.5114 143.745 37.2367 143.551 37.0142C143.361 36.7917 143.082 36.6023 142.713 36.446C142.348 36.2898 141.901 36.1477 141.37 36.0199L139.787 35.6222C138.56 35.3239 137.592 34.8575 136.882 34.223C136.172 33.5885 135.819 32.7339 135.824 31.6591C135.819 30.7784 136.053 30.009 136.527 29.3509C137.005 28.6927 137.661 28.179 138.494 27.8097C139.327 27.4403 140.274 27.2557 141.335 27.2557C142.414 27.2557 143.357 27.4403 144.162 27.8097C144.971 28.179 145.601 28.6927 146.051 29.3509C146.501 30.009 146.733 30.7713 146.747 31.6378H143.799ZM153.886 42.2131C152.769 42.2131 151.808 41.9763 151.003 41.5028C150.203 41.0246 149.587 40.3617 149.156 39.5142C148.73 38.6667 148.517 37.6913 148.517 36.5881C148.517 35.4706 148.732 34.4905 149.163 33.6477C149.599 32.8002 150.217 32.1397 151.017 31.6662C151.817 31.188 152.769 30.9489 153.872 30.9489C154.824 30.9489 155.657 31.1217 156.372 31.4673C157.087 31.813 157.653 32.2983 158.07 32.9233C158.486 33.5483 158.716 34.2822 158.759 35.125H155.903C155.823 34.5805 155.61 34.1425 155.264 33.8111C154.923 33.4749 154.476 33.3068 153.922 33.3068C153.453 33.3068 153.044 33.4347 152.693 33.6903C152.348 33.9413 152.078 34.3082 151.884 34.7912C151.689 35.2741 151.592 35.8589 151.592 36.5455C151.592 37.2415 151.687 37.8333 151.876 38.321C152.071 38.8087 152.343 39.1804 152.693 39.4361C153.044 39.6918 153.453 39.8196 153.922 39.8196C154.268 39.8196 154.578 39.7486 154.852 39.6065C155.132 39.4645 155.361 39.2585 155.541 38.9886C155.726 38.714 155.847 38.3849 155.903 38.0014H158.759C158.711 38.8348 158.484 39.5687 158.077 40.2031C157.674 40.8329 157.118 41.3253 156.408 41.6804C155.697 42.0355 154.857 42.2131 153.886 42.2131ZM160.696 42V31.0909H163.629V32.9943H163.743C163.941 32.3172 164.275 31.8059 164.744 31.4602C165.213 31.1098 165.752 30.9347 166.363 30.9347C166.515 30.9347 166.678 30.9441 166.853 30.9631C167.029 30.982 167.182 31.008 167.315 31.0412V33.7259C167.173 33.6832 166.976 33.6454 166.725 33.6122C166.475 33.5791 166.245 33.5625 166.037 33.5625C165.592 33.5625 165.194 33.6596 164.843 33.8537C164.498 34.0431 164.223 34.3082 164.02 34.6491C163.821 34.9901 163.721 35.383 163.721 35.8281V42H160.696ZM168.879 42V31.0909H171.905V42H168.879ZM170.399 29.6847C169.949 29.6847 169.563 29.5355 169.241 29.2372C168.924 28.9342 168.766 28.572 168.766 28.1506C168.766 27.7339 168.924 27.3764 169.241 27.0781C169.563 26.7751 169.949 26.6236 170.399 26.6236C170.849 26.6236 171.232 26.7751 171.55 27.0781C171.872 27.3764 172.033 27.7339 172.033 28.1506C172.033 28.572 171.872 28.9342 171.55 29.2372C171.232 29.5355 170.849 29.6847 170.399 29.6847ZM174.328 46.0909V31.0909H177.311V32.9233H177.446C177.579 32.6297 177.771 32.3314 178.022 32.0284C178.277 31.7206 178.609 31.465 179.016 31.2614C179.428 31.053 179.939 30.9489 180.55 30.9489C181.346 30.9489 182.079 31.1572 182.752 31.5739C183.424 31.9858 183.962 32.6084 184.364 33.4418C184.766 34.2704 184.968 35.3097 184.968 36.5597C184.968 37.7765 184.771 38.804 184.378 39.642C183.99 40.4754 183.46 41.1075 182.787 41.5384C182.12 41.9645 181.372 42.1776 180.543 42.1776C179.956 42.1776 179.456 42.0805 179.044 41.8864C178.637 41.6922 178.303 41.4484 178.043 41.1548C177.783 40.8565 177.584 40.5559 177.446 40.2528H177.354V46.0909H174.328ZM177.29 36.5455C177.29 37.1941 177.38 37.7599 177.56 38.2429C177.74 38.7259 178 39.1023 178.341 39.3722C178.682 39.6373 179.096 39.7699 179.584 39.7699C180.077 39.7699 180.493 39.6349 180.834 39.3651C181.175 39.0904 181.433 38.7116 181.608 38.2287C181.788 37.741 181.878 37.1799 181.878 36.5455C181.878 35.9157 181.791 35.3617 181.615 34.8835C181.44 34.4053 181.182 34.0312 180.841 33.7614C180.5 33.4915 180.081 33.3565 179.584 33.3565C179.092 33.3565 178.675 33.4867 178.334 33.7472C177.998 34.0076 177.74 34.3769 177.56 34.8551C177.38 35.3333 177.29 35.8968 177.29 36.5455ZM192.787 31.0909V33.3636H186.218V31.0909H192.787ZM187.709 28.4773H190.735V38.6477C190.735 38.9271 190.777 39.1449 190.863 39.3011C190.948 39.4527 191.066 39.5592 191.218 39.6207C191.374 39.6823 191.554 39.7131 191.757 39.7131C191.9 39.7131 192.042 39.7012 192.184 39.6776C192.326 39.6491 192.435 39.6278 192.51 39.6136L192.986 41.8651C192.835 41.9124 192.622 41.9669 192.347 42.0284C192.072 42.0947 191.739 42.1349 191.346 42.1491C190.616 42.1776 189.977 42.0805 189.428 41.858C188.883 41.6354 188.46 41.2898 188.157 40.821C187.854 40.3523 187.704 39.7604 187.709 39.0455V28.4773Z" fill="#4E67AA"/>
<defs>
<filter id="filter0_d_6_427" x="22" y="9" width="230" height="60" filterUnits="userSpaceOnUse" color-interpolation-filters="sRGB">
<feFlood flood-opacity="0" result="BackgroundImageFix"/>
<feColorMatrix in="SourceAlpha" type="matrix" values="0 0 0 0 0 0 0 0 0 0 0 0 0 0 0 0 0 0 127 0" result="hardAlpha"/>
<feOffset dx="2" dy="4"/>
<feGaussianBlur stdDeviation="2.5"/>
<feComposite in2="hardAlpha" operator="out"/>
<feColorMatrix type="matrix" values="0 0 0 0 0 0 0 0 0 0 0 0 0 0 0 0 0 0 0.25 0"/>
<feBlend mode="normal" in2="BackgroundImageFix" result="effect1_dropShadow_6_427"/>
<feBlend mode="normal" in="SourceGraphic" in2="effect1_dropShadow_6_427" result="shape"/>
</filter>
</defs>
</svg>
