<svg width="270" height="70" viewBox="0 0 270 70" fill="none" xmlns="http://www.w3.org/2000/svg">
<g filter="url(#filter0_d_6_417)">
<rect x="25" y="10" width="220" height="50" rx="15" fill="white"/>
</g>
<g clip-path="url(#clip0_6_417)">
<path d="M74.5488 26.4379C74.5445 26.4232 74.5358 26.4104 74.5303 26.3963C74.5199 26.3702 74.511 26.3438 74.4963 26.3198C74.4863 26.3037 74.4719 26.2906 74.4601 26.2758C74.4446 26.2563 74.4315 26.2356 74.413 26.2184C74.3978 26.2041 74.3784 26.1938 74.3614 26.1814C74.342 26.1672 74.3247 26.1511 74.3032 26.1395C74.3032 26.1395 74.303 26.1395 74.3028 26.1393C74.3026 26.1393 74.3026 26.1391 74.3024 26.139L67.9577 22.7271C67.7945 22.6394 67.5934 22.6394 67.4302 22.7271L61.0856 26.1386C61.0855 26.1386 61.0855 26.1388 61.0853 26.139C61.0851 26.139 61.0849 26.139 61.0849 26.1391C61.0634 26.1508 61.0459 26.1669 61.0267 26.181C61.0096 26.1935 60.9902 26.204 60.9751 26.2181C60.9568 26.2352 60.9434 26.256 60.9279 26.2754C60.9162 26.2902 60.9018 26.3035 60.8918 26.3195C60.877 26.3434 60.8681 26.37 60.8578 26.396C60.8523 26.4101 60.8436 26.4229 60.8393 26.4375C60.8274 26.4789 60.821 26.5223 60.821 26.5665V33.0462L55.5338 35.8894V23.2131C55.5338 23.169 55.5274 23.1256 55.5155 23.0841C55.5112 23.0694 55.5025 23.0566 55.497 23.0425C55.4867 23.0164 55.4778 22.99 55.463 22.966C55.453 22.9499 55.4386 22.9368 55.4269 22.922C55.4114 22.9025 55.3982 22.8817 55.3797 22.8646C55.3646 22.8503 55.3452 22.84 55.3281 22.8276C55.3087 22.8134 55.2914 22.7973 55.2699 22.7857C55.2699 22.7857 55.2697 22.7857 55.2695 22.7855C55.2693 22.7855 55.2693 22.7853 55.2692 22.7852L48.9246 19.3735C48.7614 19.2857 48.5603 19.2857 48.3971 19.3735L42.0525 22.7852C42.0524 22.7852 42.0524 22.7853 42.0522 22.7855C42.052 22.7855 42.0518 22.7855 42.0518 22.7857C42.0303 22.7973 42.0128 22.8134 41.9936 22.8276C41.9765 22.84 41.9571 22.8505 41.942 22.8646C41.9237 22.8817 41.9103 22.9025 41.8948 22.922C41.8831 22.9368 41.8687 22.9501 41.8587 22.966C41.8439 22.99 41.835 23.0166 41.8247 23.0425C41.8192 23.0566 41.8105 23.0694 41.8062 23.0841C41.7943 23.1254 41.7879 23.1688 41.7879 23.2131V43.5088C41.7879 43.6855 41.889 43.8486 42.0529 43.9368L54.7418 50.76C54.7696 50.7748 54.7995 50.7838 54.829 50.7936C54.8429 50.7982 54.8557 50.8059 54.8699 50.8094C54.9143 50.8203 54.96 50.826 55.0056 50.826C55.0511 50.826 55.0967 50.8205 55.1412 50.8094C55.1535 50.8064 55.1647 50.7995 55.1768 50.7956C55.2081 50.7854 55.2398 50.7758 55.2692 50.76L67.9581 43.9368C68.122 43.8487 68.2231 43.6855 68.2231 43.5088V37.0291L74.3026 33.7599C74.4665 33.6718 74.5676 33.5085 74.5676 33.3318V26.5665C74.5671 26.5226 74.5609 26.4793 74.5488 26.4379ZM55.004 42.9409L49.7271 40.1516L55.2688 37.1717C55.2688 37.1717 55.2688 37.1717 55.269 37.1715L61.3496 33.9018L66.631 36.7418L62.756 38.8078L55.004 42.9409ZM67.1653 30.2639V35.8895L64.945 34.6956L61.8782 33.0466V27.421L64.0985 28.6149L67.1653 30.2639ZM67.6939 23.7251L72.9788 26.5669L67.6939 29.4087L62.4091 26.5669L67.6939 23.7251ZM51.4096 38.1071L49.1893 39.301V26.9101L52.2561 25.2611L54.4764 24.0672V36.4579L51.4096 38.1071ZM48.6605 20.3713L53.9453 23.2131L48.6605 26.0549L43.3757 23.2131L48.6605 20.3713ZM42.8447 24.0673L45.0651 25.2612L48.1319 26.9103V40.1553C48.1319 40.1556 48.1321 40.1558 48.1321 40.1561C48.1321 40.1565 48.1319 40.1568 48.1319 40.1571C48.1319 40.1761 48.1376 40.1939 48.1399 40.2125C48.1429 40.2368 48.1436 40.2614 48.1504 40.2846C48.1506 40.285 48.1506 40.2855 48.1507 40.2858C48.1564 40.3052 48.1675 40.3227 48.1757 40.3413C48.1847 40.3619 48.1913 40.3837 48.2034 40.403C48.2036 40.4035 48.2038 40.404 48.2041 40.4045C48.215 40.4219 48.2307 40.4362 48.2437 40.4524C48.2581 40.4698 48.2702 40.4889 48.2871 40.5046C48.2876 40.5051 48.288 40.5057 48.2885 40.5062C48.3035 40.52 48.3223 40.5298 48.3391 40.542C48.3579 40.5558 48.375 40.5716 48.396 40.583C48.3967 40.5834 48.3976 40.5835 48.3983 40.5839C48.399 40.5842 48.3996 40.5849 48.4003 40.5852L54.4764 43.797V49.4781L42.8449 43.2235V24.0673H42.8447ZM67.1653 43.2235L55.5338 49.4781V43.7959L64.148 39.2031L67.1653 37.5944V43.2235V43.2235ZM73.5097 33.0466L68.2226 35.8895V30.2639L71.2894 28.6149L73.5097 27.421V33.0466Z" fill="#4E67AA"/>
</g>
<path d="M90.2642 42V27.4545H93.3395V39.4645H99.5753V42H90.2642ZM104.666 42.206C103.97 42.206 103.35 42.0852 102.805 41.8438C102.261 41.5975 101.83 41.2353 101.512 40.7571C101.2 40.2741 101.044 39.6728 101.044 38.9531C101.044 38.3471 101.155 37.8381 101.377 37.4261C101.6 37.0142 101.903 36.6828 102.287 36.4318C102.67 36.1809 103.106 35.9915 103.593 35.8636C104.086 35.7358 104.602 35.6458 105.142 35.5938C105.776 35.5275 106.288 35.4659 106.676 35.4091C107.064 35.3475 107.346 35.2576 107.521 35.1392C107.696 35.0208 107.784 34.8456 107.784 34.6136V34.571C107.784 34.1212 107.642 33.7732 107.358 33.527C107.078 33.2808 106.681 33.1577 106.164 33.1577C105.62 33.1577 105.187 33.2784 104.865 33.5199C104.543 33.7566 104.33 34.0549 104.225 34.4148L101.427 34.1875C101.569 33.5246 101.849 32.9517 102.265 32.4688C102.682 31.9811 103.219 31.607 103.877 31.3466C104.54 31.0814 105.307 30.9489 106.179 30.9489C106.785 30.9489 107.365 31.0199 107.919 31.1619C108.477 31.304 108.972 31.5241 109.403 31.8224C109.839 32.1207 110.182 32.5043 110.433 32.973C110.684 33.437 110.809 33.9934 110.809 34.642V42H107.94V40.4872H107.855C107.68 40.8281 107.445 41.1288 107.152 41.3892C106.858 41.6449 106.505 41.8461 106.093 41.9929C105.681 42.1349 105.206 42.206 104.666 42.206ZM105.532 40.1179C105.977 40.1179 106.37 40.0303 106.711 39.8551C107.052 39.6752 107.32 39.4337 107.514 39.1307C107.708 38.8277 107.805 38.4844 107.805 38.1009V36.9432C107.71 37.0047 107.58 37.0616 107.414 37.1136C107.253 37.161 107.071 37.206 106.868 37.2486C106.664 37.2865 106.46 37.322 106.257 37.3551C106.053 37.3835 105.868 37.4096 105.703 37.4332C105.348 37.4853 105.038 37.5682 104.772 37.6818C104.507 37.7955 104.301 37.9493 104.154 38.1435C104.008 38.3329 103.934 38.5696 103.934 38.8537C103.934 39.2656 104.083 39.5805 104.382 39.7983C104.685 40.0114 105.068 40.1179 105.532 40.1179ZM113.157 42V31.0909H116.09V32.9943H116.203C116.402 32.3172 116.736 31.8059 117.205 31.4602C117.674 31.1098 118.213 30.9347 118.824 30.9347C118.976 30.9347 119.139 30.9441 119.314 30.9631C119.489 30.982 119.643 31.008 119.776 31.0412V33.7259C119.634 33.6832 119.437 33.6454 119.186 33.6122C118.935 33.5791 118.706 33.5625 118.498 33.5625C118.052 33.5625 117.655 33.6596 117.304 33.8537C116.959 34.0431 116.684 34.3082 116.48 34.6491C116.282 34.9901 116.182 35.383 116.182 35.8281V42H113.157ZM124.138 42.206C123.442 42.206 122.822 42.0852 122.278 41.8438C121.733 41.5975 121.302 41.2353 120.985 40.7571C120.673 40.2741 120.516 39.6728 120.516 38.9531C120.516 38.3471 120.628 37.8381 120.85 37.4261C121.073 37.0142 121.376 36.6828 121.759 36.4318C122.143 36.1809 122.578 35.9915 123.066 35.8636C123.558 35.7358 124.075 35.6458 124.614 35.5938C125.249 35.5275 125.76 35.4659 126.148 35.4091C126.537 35.3475 126.818 35.2576 126.994 35.1392C127.169 35.0208 127.256 34.8456 127.256 34.6136V34.571C127.256 34.1212 127.114 33.7732 126.83 33.527C126.551 33.2808 126.153 33.1577 125.637 33.1577C125.093 33.1577 124.659 33.2784 124.337 33.5199C124.015 33.7566 123.802 34.0549 123.698 34.4148L120.9 34.1875C121.042 33.5246 121.321 32.9517 121.738 32.4688C122.155 31.9811 122.692 31.607 123.35 31.3466C124.013 31.0814 124.78 30.9489 125.651 30.9489C126.257 30.9489 126.837 31.0199 127.391 31.1619C127.95 31.304 128.445 31.5241 128.876 31.8224C129.311 32.1207 129.655 32.5043 129.906 32.973C130.156 33.437 130.282 33.9934 130.282 34.642V42H127.413V40.4872H127.327C127.152 40.8281 126.918 41.1288 126.624 41.3892C126.331 41.6449 125.978 41.8461 125.566 41.9929C125.154 42.1349 124.678 42.206 124.138 42.206ZM125.005 40.1179C125.45 40.1179 125.843 40.0303 126.184 39.8551C126.525 39.6752 126.792 39.4337 126.987 39.1307C127.181 38.8277 127.278 38.4844 127.278 38.1009V36.9432C127.183 37.0047 127.053 37.0616 126.887 37.1136C126.726 37.161 126.544 37.206 126.34 37.2486C126.137 37.2865 125.933 37.322 125.729 37.3551C125.526 37.3835 125.341 37.4096 125.175 37.4332C124.82 37.4853 124.51 37.5682 124.245 37.6818C123.98 37.7955 123.774 37.9493 123.627 38.1435C123.48 38.3329 123.407 38.5696 123.407 38.8537C123.407 39.2656 123.556 39.5805 123.854 39.7983C124.157 40.0114 124.541 40.1179 125.005 40.1179ZM142.409 31.0909L138.595 42H135.186L131.372 31.0909H134.568L136.834 38.8963H136.947L139.206 31.0909H142.409ZM148.577 42.2131C147.455 42.2131 146.489 41.9858 145.68 41.5312C144.875 41.072 144.254 40.4233 143.819 39.5852C143.383 38.7424 143.165 37.7457 143.165 36.5952C143.165 35.473 143.383 34.4882 143.819 33.6406C144.254 32.7931 144.868 32.1326 145.658 31.6591C146.454 31.1856 147.387 30.9489 148.457 30.9489C149.176 30.9489 149.846 31.0649 150.467 31.2969C151.092 31.5241 151.636 31.8674 152.1 32.3267C152.569 32.786 152.933 33.3636 153.194 34.0597C153.454 34.7509 153.585 35.5606 153.585 36.4886V37.3196H144.373V35.4446H150.737C150.737 35.009 150.642 34.6231 150.452 34.2869C150.263 33.9508 150 33.688 149.664 33.4986C149.333 33.3045 148.947 33.2074 148.506 33.2074C148.047 33.2074 147.64 33.3139 147.285 33.527C146.934 33.7353 146.66 34.017 146.461 34.3722C146.262 34.7225 146.16 35.1132 146.156 35.544V37.3267C146.156 37.8665 146.255 38.3329 146.454 38.7259C146.657 39.1188 146.944 39.4219 147.313 39.6349C147.683 39.848 148.121 39.9545 148.627 39.9545C148.963 39.9545 149.271 39.9072 149.55 39.8125C149.83 39.7178 150.069 39.5758 150.268 39.3864C150.467 39.197 150.618 38.965 150.722 38.6903L153.521 38.875C153.379 39.5473 153.087 40.1345 152.647 40.6364C152.211 41.1335 151.648 41.5218 150.957 41.8011C150.27 42.0758 149.477 42.2131 148.577 42.2131ZM158.585 27.4545V42H155.559V27.4545H158.585Z" fill="#4E67AA"/>
<defs>
<filter id="filter0_d_6_417" x="22" y="9" width="230" height="60" filterUnits="userSpaceOnUse" color-interpolation-filters="sRGB">
<feFlood flood-opacity="0" result="BackgroundImageFix"/>
<feColorMatrix in="SourceAlpha" type="matrix" values="0 0 0 0 0 0 0 0 0 0 0 0 0 0 0 0 0 0 127 0" result="hardAlpha"/>
<feOffset dx="2" dy="4"/>
<feGaussianBlur stdDeviation="2.5"/>
<feComposite in2="hardAlpha" operator="out"/>
<feColorMatrix type="matrix" values="0 0 0 0 0 0 0 0 0 0 0 0 0 0 0 0 0 0 0.25 0"/>
<feBlend mode="normal" in2="BackgroundImageFix" result="effect1_dropShadow_6_417"/>
<feBlend mode="normal" in="SourceGraphic" in2="effect1_dropShadow_6_417" result="shape"/>
</filter>
<clipPath id="clip0_6_417">
<rect width="33.3" height="33.3" fill="white" transform="translate(41.6 18.3)"/>
</clipPath>
</defs>
</svg>
