<svg width="270" height="70" viewBox="0 0 270 70" fill="none" xmlns="http://www.w3.org/2000/svg">
<g filter="url(#filter0_d_6_429)">
<rect x="25" y="10" width="220" height="50" rx="15" fill="white"/>
</g>
<g clip-path="url(#clip0_6_429)">
<path d="M58.25 43.386C49.0509 43.386 41.6 39.612 41.6 34.95C41.6 30.288 49.0509 26.514 58.25 26.514C67.4491 26.514 74.9 30.288 74.9 34.95C74.9 39.612 67.4491 43.386 58.25 43.386ZM51.0489 32.3554C51.7981 32.3554 52.3115 32.4941 52.5612 32.7855C52.811 33.063 52.8665 33.5625 52.7416 34.2146C52.6028 34.95 52.3392 35.4218 51.9368 35.727C51.5483 36.0323 50.9517 36.1849 50.147 36.1849H48.9399L49.6752 32.3554H51.0489ZM46.1926 40.056H48.1906L48.6624 37.6279H50.369C51.1182 37.6279 51.7287 37.5446 52.2144 37.392C52.7 37.2255 53.144 36.9619 53.5463 36.5873C53.8793 36.282 54.143 35.949 54.3511 35.5744C54.5592 35.2136 54.7118 34.7974 54.7812 34.3534C55.0032 33.2711 54.8506 32.4248 54.3234 31.8281C53.7822 31.2176 52.9497 30.9263 51.7981 30.9263H47.9686L46.1926 40.056ZM56.252 28.4981L54.476 37.6279H56.4462L57.473 32.397H59.0547C59.5542 32.397 59.8872 32.4803 60.0398 32.6468C60.1925 32.8133 60.2202 33.1185 60.137 33.5625L59.3461 37.6279H61.358L62.1766 33.3683C62.357 32.508 62.2182 31.8836 61.802 31.4813C61.3857 31.1066 60.6226 30.9263 59.5126 30.9263H57.7505L58.25 28.4981H56.252ZM66.575 32.3554C67.3381 32.3554 67.8376 32.4941 68.0873 32.7855C68.3371 33.063 68.3926 33.5625 68.2677 34.2146C68.129 34.95 67.8653 35.4218 67.4768 35.727C67.0745 36.0323 66.4778 36.1849 65.6731 36.1849H64.4937L65.1875 32.3554H66.575ZM61.7187 40.056H63.7167L64.1885 37.6279H65.8812C66.6443 37.6279 67.2687 37.5446 67.7543 37.392C68.24 37.2255 68.6562 36.9619 69.0725 36.5873C69.4055 36.282 69.683 35.949 69.8772 35.5744C70.0853 35.2136 70.238 34.7974 70.3212 34.3534C70.5294 33.2711 70.3767 32.4248 69.8495 31.8281C69.35 31.2176 68.4759 30.9263 67.3242 30.9263H63.5086L61.7187 40.056Z" fill="#4E67AA"/>
</g>
<path d="M90.2642 42V27.4545H96.0028C97.1061 27.4545 98.0459 27.6652 98.8224 28.0866C99.599 28.5033 100.191 29.0833 100.598 29.8267C101.01 30.5653 101.216 31.4176 101.216 32.3835C101.216 33.3494 101.008 34.2017 100.591 34.9403C100.174 35.679 99.5705 36.2543 98.7798 36.6662C97.9938 37.0781 97.0421 37.2841 95.9247 37.2841H92.267V34.8196H95.4276C96.0194 34.8196 96.5071 34.7178 96.8906 34.5142C97.2789 34.3059 97.5677 34.0194 97.7571 33.6548C97.9512 33.2855 98.0483 32.8617 98.0483 32.3835C98.0483 31.9006 97.9512 31.4792 97.7571 31.1193C97.5677 30.7547 97.2789 30.473 96.8906 30.2741C96.5024 30.0705 96.0099 29.9688 95.4134 29.9688H93.3395V42H90.2642ZM103.213 42V27.4545H106.289V33.456H112.532V27.4545H115.6V42H112.532V35.9915H106.289V42H103.213ZM118.135 42V27.4545H123.874C124.977 27.4545 125.917 27.6652 126.694 28.0866C127.47 28.5033 128.062 29.0833 128.469 29.8267C128.881 30.5653 129.087 31.4176 129.087 32.3835C129.087 33.3494 128.879 34.2017 128.462 34.9403C128.045 35.679 127.442 36.2543 126.651 36.6662C125.865 37.0781 124.913 37.2841 123.796 37.2841H120.138V34.8196H123.299C123.891 34.8196 124.378 34.7178 124.762 34.5142C125.15 34.3059 125.439 34.0194 125.628 33.6548C125.822 33.2855 125.919 32.8617 125.919 32.3835C125.919 31.9006 125.822 31.4792 125.628 31.1193C125.439 30.7547 125.15 30.473 124.762 30.2741C124.373 30.0705 123.881 29.9688 123.284 29.9688H121.211V42H118.135Z" fill="#4E67AA"/>
<defs>
<filter id="filter0_d_6_429" x="22" y="9" width="230" height="60" filterUnits="userSpaceOnUse" color-interpolation-filters="sRGB">
<feFlood flood-opacity="0" result="BackgroundImageFix"/>
<feColorMatrix in="SourceAlpha" type="matrix" values="0 0 0 0 0 0 0 0 0 0 0 0 0 0 0 0 0 0 127 0" result="hardAlpha"/>
<feOffset dx="2" dy="4"/>
<feGaussianBlur stdDeviation="2.5"/>
<feComposite in2="hardAlpha" operator="out"/>
<feColorMatrix type="matrix" values="0 0 0 0 0 0 0 0 0 0 0 0 0 0 0 0 0 0 0.25 0"/>
<feBlend mode="normal" in2="BackgroundImageFix" result="effect1_dropShadow_6_429"/>
<feBlend mode="normal" in="SourceGraphic" in2="effect1_dropShadow_6_429" result="shape"/>
</filter>
<clipPath id="clip0_6_429">
<rect width="33.3" height="33.3" fill="white" transform="translate(41.6 18.3)"/>
</clipPath>
</defs>
</svg>
