<svg width="320" height="70" viewBox="0 0 320 70" fill="none" xmlns="http://www.w3.org/2000/svg">
<g filter="url(#filter0_d_8_150)">
<rect x="25" y="10" width="270" height="50" rx="15" fill="white"/>
</g>
<path d="M72.125 37.0312C72.125 39.4732 70.3213 41.499 67.9625 41.832V46.05C67.9625 46.786 67.6701 47.4918 67.1497 48.0122C66.6293 48.5326 65.9235 48.825 65.1875 48.825H59.915V48.4087C59.915 47.4152 59.5203 46.4623 58.8177 45.7597C58.1152 45.0572 57.1623 44.6625 56.1688 44.6625C54.0875 44.6625 52.4225 46.3414 52.4225 48.4087V48.825H47.15C46.414 48.825 45.7082 48.5326 45.1878 48.0122C44.6674 47.4918 44.375 46.786 44.375 46.05V40.7775H44.7912C46.8586 40.7775 48.5375 39.1125 48.5375 37.0312C48.5375 34.95 46.8586 33.285 44.7912 33.285H44.375V28.0125C44.375 27.2765 44.6674 26.5707 45.1878 26.0503C45.7082 25.5298 46.414 25.2375 47.15 25.2375H51.368C51.701 22.8787 53.7268 21.075 56.1688 21.075C58.6108 21.075 60.6365 22.8787 60.9695 25.2375H65.1875C65.9235 25.2375 66.6293 25.5298 67.1497 26.0503C67.6701 26.5707 67.9625 27.2765 67.9625 28.0125V32.2305C70.3213 32.5635 72.125 34.5892 72.125 37.0312ZM65.1875 39.1125H67.2688C67.8207 39.1125 68.3501 38.8932 68.7404 38.5029C69.1307 38.1126 69.35 37.5832 69.35 37.0312C69.35 36.4793 69.1307 35.9499 68.7404 35.5596C68.3501 35.1693 67.8207 34.95 67.2688 34.95H65.1875V28.0125H58.25V25.9312C58.25 25.3793 58.0307 24.8499 57.6404 24.4596C57.2501 24.0693 56.7207 23.85 56.1688 23.85C55.6168 23.85 55.0874 24.0693 54.6971 24.4596C54.3068 24.8499 54.0875 25.3793 54.0875 25.9312V28.0125H47.15V30.954C49.592 31.8975 51.3125 34.2562 51.3125 37.0312C51.3125 39.8062 49.5781 42.165 47.15 43.1085V46.05H50.0915C51.035 43.6219 53.3938 41.8875 56.1688 41.8875C58.9438 41.8875 61.3025 43.6219 62.246 46.05H65.1875V39.1125Z" fill="#4E67AA"/>
<path d="M90.1378 41V27.9091H95.3026C96.2955 27.9091 97.1413 28.0987 97.8402 28.478C98.5391 28.853 99.0717 29.375 99.4382 30.044C99.8089 30.7088 99.9943 31.4759 99.9943 32.3452C99.9943 33.2145 99.8068 33.9815 99.4318 34.6463C99.0568 35.3111 98.5135 35.8288 97.8018 36.1996C97.0945 36.5703 96.2379 36.7557 95.2322 36.7557H91.9403V34.5376H94.7848C95.3175 34.5376 95.7564 34.446 96.1016 34.2628C96.451 34.0753 96.7109 33.8175 96.8814 33.4893C97.0561 33.157 97.1435 32.7756 97.1435 32.3452C97.1435 31.9105 97.0561 31.5312 96.8814 31.2074C96.7109 30.8793 96.451 30.6257 96.1016 30.4467C95.7521 30.2635 95.3089 30.1719 94.772 30.1719H92.9055V41H90.1378ZM104.464 27.9091V41H101.741V27.9091H104.464ZM112.941 36.8196V31.1818H115.664V41H113.05V39.2166H112.948C112.726 39.7919 112.358 40.2543 111.842 40.6037C111.331 40.9531 110.706 41.1278 109.969 41.1278C109.313 41.1278 108.735 40.9787 108.237 40.6804C107.738 40.3821 107.348 39.9581 107.067 39.4084C106.79 38.8587 106.65 38.2003 106.645 37.4332V31.1818H109.368V36.9474C109.373 37.527 109.528 37.9851 109.835 38.3217C110.142 38.6584 110.553 38.8267 111.069 38.8267C111.397 38.8267 111.703 38.7521 111.989 38.603C112.275 38.4496 112.505 38.2237 112.679 37.9254C112.858 37.6271 112.946 37.2585 112.941 36.8196ZM122.266 44.8864C121.384 44.8864 120.627 44.7649 119.997 44.522C119.37 44.2834 118.872 43.9574 118.501 43.544C118.13 43.1307 117.889 42.6662 117.779 42.1506L120.297 41.8118C120.374 42.0078 120.495 42.1911 120.661 42.3615C120.828 42.532 121.047 42.6683 121.32 42.7706C121.597 42.8771 121.933 42.9304 122.33 42.9304C122.922 42.9304 123.41 42.7855 123.794 42.4957C124.181 42.2102 124.375 41.7308 124.375 41.0575V39.2614H124.26C124.141 39.5341 123.962 39.7919 123.723 40.0348C123.485 40.2777 123.178 40.4759 122.803 40.6293C122.428 40.7827 121.98 40.8594 121.46 40.8594C120.723 40.8594 120.052 40.6889 119.447 40.348C118.846 40.0028 118.367 39.4766 118.009 38.7692C117.655 38.0575 117.478 37.1584 117.478 36.0717C117.478 34.9595 117.659 34.0305 118.021 33.2848C118.384 32.5391 118.865 31.9808 119.466 31.6101C120.071 31.2393 120.734 31.054 121.454 31.054C122.004 31.054 122.464 31.1477 122.835 31.3352C123.205 31.5185 123.504 31.7486 123.73 32.0256C123.96 32.2983 124.137 32.5668 124.26 32.831H124.362V31.1818H127.066V41.0959C127.066 41.9311 126.862 42.63 126.453 43.1925C126.044 43.755 125.477 44.1768 124.752 44.4581C124.032 44.7436 123.203 44.8864 122.266 44.8864ZM122.323 38.8139C122.762 38.8139 123.133 38.7053 123.436 38.4879C123.742 38.2663 123.977 37.951 124.139 37.5419C124.305 37.1286 124.388 36.6342 124.388 36.0589C124.388 35.4837 124.307 34.9851 124.145 34.5632C123.983 34.1371 123.749 33.8068 123.442 33.5724C123.135 33.3381 122.762 33.2209 122.323 33.2209C121.876 33.2209 121.499 33.3423 121.192 33.5852C120.885 33.8239 120.653 34.1562 120.495 34.5824C120.338 35.0085 120.259 35.5007 120.259 36.0589C120.259 36.6257 120.338 37.1158 120.495 37.5291C120.657 37.9382 120.889 38.2557 121.192 38.4815C121.499 38.7031 121.876 38.8139 122.323 38.8139ZM129.233 41V31.1818H131.956V41H129.233ZM130.601 29.9162C130.196 29.9162 129.849 29.782 129.559 29.5135C129.274 29.2408 129.131 28.9148 129.131 28.5355C129.131 28.1605 129.274 27.8388 129.559 27.5703C129.849 27.2976 130.196 27.1612 130.601 27.1612C131.006 27.1612 131.351 27.2976 131.637 27.5703C131.926 27.8388 132.071 28.1605 132.071 28.5355C132.071 28.9148 131.926 29.2408 131.637 29.5135C131.351 29.782 131.006 29.9162 130.601 29.9162ZM136.86 35.3239V41H134.137V31.1818H136.733V32.9141H136.848C137.065 32.343 137.429 31.8913 137.941 31.5589C138.452 31.2223 139.072 31.054 139.801 31.054C140.483 31.054 141.077 31.2031 141.584 31.5014C142.091 31.7997 142.485 32.2259 142.767 32.7798C143.048 33.3295 143.189 33.9858 143.189 34.7486V41H140.466V35.2344C140.47 34.6335 140.316 34.1648 140.005 33.8281C139.694 33.4872 139.266 33.3168 138.721 33.3168C138.354 33.3168 138.03 33.3956 137.749 33.5533C137.472 33.7109 137.255 33.9411 137.097 34.2436C136.944 34.5419 136.865 34.902 136.86 35.3239ZM153.504 33.9815L151.011 34.1349C150.968 33.9219 150.877 33.7301 150.736 33.5597C150.595 33.3849 150.41 33.2464 150.18 33.1442C149.954 33.0376 149.683 32.9844 149.368 32.9844C148.946 32.9844 148.59 33.0739 148.301 33.2528C148.011 33.4276 147.866 33.6619 147.866 33.956C147.866 34.1903 147.96 34.3885 148.147 34.5504C148.335 34.7124 148.656 34.8423 149.112 34.9403L150.889 35.2983C151.844 35.4943 152.556 35.8097 153.024 36.2443C153.493 36.679 153.727 37.25 153.727 37.9574C153.727 38.6009 153.538 39.1655 153.159 39.6513C152.784 40.1371 152.268 40.5163 151.612 40.7891C150.96 41.0575 150.208 41.1918 149.355 41.1918C148.056 41.1918 147.02 40.9212 146.249 40.38C145.482 39.8345 145.032 39.093 144.9 38.1555L147.578 38.0149C147.659 38.4112 147.855 38.7138 148.166 38.9226C148.477 39.1271 148.876 39.2294 149.362 39.2294C149.839 39.2294 150.222 39.1378 150.512 38.9545C150.806 38.767 150.955 38.5263 150.96 38.2322C150.955 37.9851 150.851 37.7827 150.646 37.625C150.442 37.4631 150.127 37.3395 149.7 37.2543L148 36.9155C147.041 36.7237 146.328 36.3913 145.859 35.9183C145.394 35.4453 145.162 34.8423 145.162 34.1094C145.162 33.4787 145.333 32.9354 145.673 32.4794C146.019 32.0234 146.502 31.6719 147.124 31.4247C147.751 31.1776 148.484 31.054 149.323 31.054C150.563 31.054 151.539 31.3161 152.251 31.8402C152.967 32.3643 153.384 33.0781 153.504 33.9815ZM165.31 27.2955L161.091 42.9688H158.745L162.964 27.2955H165.31ZM170.839 41V27.9091H179.66V30.1911H173.607V33.3104H179.206V35.5923H173.607V38.718H179.686V41H170.839ZM184.085 31.1818L185.887 34.6143L187.735 31.1818H190.528L187.684 36.0909L190.605 41H187.824L185.887 37.6058L183.983 41H181.17L184.085 36.0909L181.272 31.1818H184.085ZM197.368 31.1818V33.2273H191.455V31.1818H197.368ZM192.797 28.8295H195.52V37.983C195.52 38.2344 195.559 38.4304 195.635 38.571C195.712 38.7074 195.819 38.8033 195.955 38.8587C196.096 38.9141 196.257 38.9418 196.441 38.9418C196.569 38.9418 196.696 38.9311 196.824 38.9098C196.952 38.8842 197.05 38.8651 197.118 38.8523L197.547 40.8786C197.41 40.9212 197.218 40.9702 196.971 41.0256C196.724 41.0852 196.424 41.1214 196.07 41.1342C195.414 41.1598 194.838 41.0724 194.344 40.8722C193.854 40.6719 193.473 40.3608 193.2 39.9389C192.927 39.517 192.793 38.9844 192.797 38.3409V28.8295ZM203.51 41.1918C202.5 41.1918 201.631 40.9872 200.902 40.5781C200.178 40.1648 199.62 39.581 199.228 38.8267C198.836 38.0682 198.64 37.1712 198.64 36.1357C198.64 35.1257 198.836 34.2393 199.228 33.4766C199.62 32.7138 200.172 32.1193 200.883 31.6932C201.599 31.267 202.439 31.054 203.402 31.054C204.049 31.054 204.652 31.1584 205.211 31.3672C205.773 31.5717 206.263 31.8807 206.681 32.294C207.103 32.7074 207.431 33.2273 207.665 33.8537C207.9 34.4759 208.017 35.2045 208.017 36.0398V36.7876H199.726V35.1001H205.453C205.453 34.7081 205.368 34.3608 205.198 34.0582C205.027 33.7557 204.791 33.5192 204.488 33.3487C204.19 33.174 203.843 33.0866 203.446 33.0866C203.033 33.0866 202.667 33.1825 202.347 33.3743C202.032 33.5618 201.784 33.8153 201.605 34.1349C201.426 34.4503 201.335 34.8018 201.331 35.1896V36.794C201.331 37.2798 201.42 37.6996 201.599 38.0533C201.782 38.407 202.04 38.6797 202.373 38.8714C202.705 39.0632 203.099 39.1591 203.555 39.1591C203.858 39.1591 204.135 39.1165 204.386 39.0312C204.637 38.946 204.853 38.8182 205.032 38.6477C205.211 38.4773 205.347 38.2685 205.441 38.0213L207.959 38.1875C207.831 38.7926 207.569 39.321 207.173 39.7727C206.781 40.2202 206.274 40.5696 205.652 40.821C205.034 41.0682 204.32 41.1918 203.51 41.1918ZM212.517 35.3239V41H209.794V31.1818H212.389V32.9141H212.504C212.721 32.343 213.086 31.8913 213.597 31.5589C214.108 31.2223 214.728 31.054 215.457 31.054C216.139 31.054 216.733 31.2031 217.24 31.5014C217.748 31.7997 218.142 32.2259 218.423 32.7798C218.704 33.3295 218.845 33.9858 218.845 34.7486V41H216.122V35.2344C216.126 34.6335 215.973 34.1648 215.662 33.8281C215.35 33.4872 214.922 33.3168 214.377 33.3168C214.01 33.3168 213.686 33.3956 213.405 33.5533C213.128 33.7109 212.911 33.9411 212.753 34.2436C212.6 34.5419 212.521 34.902 212.517 35.3239ZM229.16 33.9815L226.667 34.1349C226.624 33.9219 226.533 33.7301 226.392 33.5597C226.252 33.3849 226.066 33.2464 225.836 33.1442C225.61 33.0376 225.34 32.9844 225.024 32.9844C224.602 32.9844 224.247 33.0739 223.957 33.2528C223.667 33.4276 223.522 33.6619 223.522 33.956C223.522 34.1903 223.616 34.3885 223.803 34.5504C223.991 34.7124 224.313 34.8423 224.769 34.9403L226.546 35.2983C227.5 35.4943 228.212 35.8097 228.681 36.2443C229.149 36.679 229.384 37.25 229.384 37.9574C229.384 38.6009 229.194 39.1655 228.815 39.6513C228.44 40.1371 227.924 40.5163 227.268 40.7891C226.616 41.0575 225.864 41.1918 225.012 41.1918C223.712 41.1918 222.676 40.9212 221.905 40.38C221.138 39.8345 220.688 39.093 220.556 38.1555L223.235 38.0149C223.316 38.4112 223.512 38.7138 223.823 38.9226C224.134 39.1271 224.532 39.2294 225.018 39.2294C225.495 39.2294 225.879 39.1378 226.169 38.9545C226.463 38.767 226.612 38.5263 226.616 38.2322C226.612 37.9851 226.507 37.7827 226.303 37.625C226.098 37.4631 225.783 37.3395 225.357 37.2543L223.656 36.9155C222.698 36.7237 221.984 36.3913 221.515 35.9183C221.051 35.4453 220.818 34.8423 220.818 34.1094C220.818 33.4787 220.989 32.9354 221.33 32.4794C221.675 32.0234 222.159 31.6719 222.781 31.4247C223.407 31.1776 224.14 31.054 224.98 31.054C226.22 31.054 227.195 31.3161 227.907 31.8402C228.623 32.3643 229.041 33.0781 229.16 33.9815ZM231.098 41V31.1818H233.821V41H231.098ZM232.466 29.9162C232.061 29.9162 231.714 29.782 231.424 29.5135C231.139 29.2408 230.996 28.9148 230.996 28.5355C230.996 28.1605 231.139 27.8388 231.424 27.5703C231.714 27.2976 232.061 27.1612 232.466 27.1612C232.871 27.1612 233.216 27.2976 233.502 27.5703C233.792 27.8388 233.936 28.1605 233.936 28.5355C233.936 28.9148 233.792 29.2408 233.502 29.5135C233.216 29.782 232.871 29.9162 232.466 29.9162ZM240.439 41.1918C239.446 41.1918 238.587 40.9808 237.863 40.5589C237.143 40.1328 236.586 39.5405 236.194 38.782C235.802 38.0192 235.606 37.1349 235.606 36.1293C235.606 35.1151 235.802 34.2287 236.194 33.4702C236.586 32.7074 237.143 32.1151 237.863 31.6932C238.587 31.267 239.446 31.054 240.439 31.054C241.432 31.054 242.288 31.267 243.008 31.6932C243.733 32.1151 244.291 32.7074 244.683 33.4702C245.075 34.2287 245.271 35.1151 245.271 36.1293C245.271 37.1349 245.075 38.0192 244.683 38.782C244.291 39.5405 243.733 40.1328 243.008 40.5589C242.288 40.9808 241.432 41.1918 240.439 41.1918ZM240.452 39.0824C240.903 39.0824 241.28 38.9545 241.583 38.6989C241.885 38.4389 242.113 38.0852 242.267 37.6378C242.425 37.1903 242.503 36.6811 242.503 36.1101C242.503 35.5391 242.425 35.0298 242.267 34.5824C242.113 34.1349 241.885 33.7812 241.583 33.5213C241.28 33.2614 240.903 33.1314 240.452 33.1314C239.996 33.1314 239.612 33.2614 239.301 33.5213C238.994 33.7812 238.762 34.1349 238.604 34.5824C238.451 35.0298 238.374 35.5391 238.374 36.1101C238.374 36.6811 238.451 37.1903 238.604 37.6378C238.762 38.0852 238.994 38.4389 239.301 38.6989C239.612 38.9545 239.996 39.0824 240.452 39.0824ZM249.765 35.3239V41H247.042V31.1818H249.637V32.9141H249.752C249.969 32.343 250.334 31.8913 250.845 31.5589C251.356 31.2223 251.976 31.054 252.705 31.054C253.387 31.054 253.981 31.2031 254.488 31.5014C254.996 31.7997 255.39 32.2259 255.671 32.7798C255.952 33.3295 256.093 33.9858 256.093 34.7486V41H253.37V35.2344C253.374 34.6335 253.221 34.1648 252.91 33.8281C252.599 33.4872 252.17 33.3168 251.625 33.3168C251.258 33.3168 250.934 33.3956 250.653 33.5533C250.376 33.7109 250.159 33.9411 250.001 34.2436C249.848 34.5419 249.769 34.902 249.765 35.3239ZM266.408 33.9815L263.915 34.1349C263.873 33.9219 263.781 33.7301 263.64 33.5597C263.5 33.3849 263.314 33.2464 263.084 33.1442C262.858 33.0376 262.588 32.9844 262.272 32.9844C261.85 32.9844 261.495 33.0739 261.205 33.2528C260.915 33.4276 260.77 33.6619 260.77 33.956C260.77 34.1903 260.864 34.3885 261.051 34.5504C261.239 34.7124 261.561 34.8423 262.017 34.9403L263.794 35.2983C264.748 35.4943 265.46 35.8097 265.929 36.2443C266.397 36.679 266.632 37.25 266.632 37.9574C266.632 38.6009 266.442 39.1655 266.063 39.6513C265.688 40.1371 265.172 40.5163 264.516 40.7891C263.864 41.0575 263.112 41.1918 262.26 41.1918C260.96 41.1918 259.924 40.9212 259.153 40.38C258.386 39.8345 257.936 39.093 257.804 38.1555L260.483 38.0149C260.564 38.4112 260.76 38.7138 261.071 38.9226C261.382 39.1271 261.78 39.2294 262.266 39.2294C262.743 39.2294 263.127 39.1378 263.417 38.9545C263.711 38.767 263.86 38.5263 263.864 38.2322C263.86 37.9851 263.755 37.7827 263.551 37.625C263.346 37.4631 263.031 37.3395 262.605 37.2543L260.904 36.9155C259.946 36.7237 259.232 36.3913 258.763 35.9183C258.299 35.4453 258.066 34.8423 258.066 34.1094C258.066 33.4787 258.237 32.9354 258.578 32.4794C258.923 32.0234 259.407 31.6719 260.029 31.4247C260.655 31.1776 261.388 31.054 262.228 31.054C263.468 31.054 264.444 31.3161 265.155 31.8402C265.871 32.3643 266.289 33.0781 266.408 33.9815Z" fill="#4E67AA"/>
<defs>
<filter id="filter0_d_8_150" x="22" y="9" width="280" height="60" filterUnits="userSpaceOnUse" color-interpolation-filters="sRGB">
<feFlood flood-opacity="0" result="BackgroundImageFix"/>
<feColorMatrix in="SourceAlpha" type="matrix" values="0 0 0 0 0 0 0 0 0 0 0 0 0 0 0 0 0 0 127 0" result="hardAlpha"/>
<feOffset dx="2" dy="4"/>
<feGaussianBlur stdDeviation="2.5"/>
<feComposite in2="hardAlpha" operator="out"/>
<feColorMatrix type="matrix" values="0 0 0 0 0 0 0 0 0 0 0 0 0 0 0 0 0 0 0.25 0"/>
<feBlend mode="normal" in2="BackgroundImageFix" result="effect1_dropShadow_8_150"/>
<feBlend mode="normal" in="SourceGraphic" in2="effect1_dropShadow_8_150" result="shape"/>
</filter>
</defs>
</svg>
