<svg width="270" height="70" viewBox="0 0 270 70" fill="none" xmlns="http://www.w3.org/2000/svg">
<g filter="url(#filter0_d_6_479)">
<rect x="25" y="10" width="220" height="50" rx="15" fill="white"/>
</g>
<g clip-path="url(#clip0_6_479)">
<path d="M48.5375 22.4625H51.3125V25.2375H48.5375V32.175C48.5375 32.911 48.2451 33.6168 47.7247 34.1372C47.2043 34.6576 46.4985 34.95 45.7625 34.95C46.4985 34.95 47.2043 35.2424 47.7247 35.7628C48.2451 36.2832 48.5375 36.989 48.5375 37.725V44.6625H51.3125V47.4375H48.5375C47.0529 47.0629 45.7625 46.1887 45.7625 44.6625V39.1125C45.7625 38.3765 45.4701 37.6707 44.9497 37.1503C44.4293 36.6299 43.7235 36.3375 42.9875 36.3375H41.6V33.5625H42.9875C43.7235 33.5625 44.4293 33.2701 44.9497 32.7497C45.4701 32.2293 45.7625 31.5235 45.7625 30.7875V25.2375C45.7625 24.5015 46.0548 23.7957 46.5753 23.2753C47.0957 22.7549 47.8015 22.4625 48.5375 22.4625V22.4625ZM67.9625 22.4625C68.6984 22.4625 69.4043 22.7549 69.9247 23.2753C70.4451 23.7957 70.7375 24.5015 70.7375 25.2375V30.7875C70.7375 31.5235 71.0298 32.2293 71.5503 32.7497C72.0707 33.2701 72.7765 33.5625 73.5125 33.5625H74.9V36.3375H73.5125C72.7765 36.3375 72.0707 36.6299 71.5503 37.1503C71.0298 37.6707 70.7375 38.3765 70.7375 39.1125V44.6625C70.7375 45.3985 70.4451 46.1043 69.9247 46.6247C69.4043 47.1451 68.6984 47.4375 67.9625 47.4375H65.1875V44.6625H67.9625V37.725C67.9625 36.989 68.2548 36.2832 68.7753 35.7628C69.2957 35.2424 70.0015 34.95 70.7375 34.95C70.0015 34.95 69.2957 34.6576 68.7753 34.1372C68.2548 33.6168 67.9625 32.911 67.9625 32.175V25.2375H65.1875V22.4625H67.9625ZM58.25 39.1125C58.618 39.1125 58.9709 39.2587 59.2311 39.5189C59.4913 39.7791 59.6375 40.132 59.6375 40.5C59.6375 40.868 59.4913 41.2209 59.2311 41.4811C58.9709 41.7413 58.618 41.8875 58.25 41.8875C57.882 41.8875 57.5291 41.7413 57.2689 41.4811C57.0087 41.2209 56.8625 40.868 56.8625 40.5C56.8625 40.132 57.0087 39.7791 57.2689 39.5189C57.5291 39.2587 57.882 39.1125 58.25 39.1125V39.1125ZM52.7 39.1125C53.068 39.1125 53.4209 39.2587 53.6811 39.5189C53.9413 39.7791 54.0875 40.132 54.0875 40.5C54.0875 40.868 53.9413 41.2209 53.6811 41.4811C53.4209 41.7413 53.068 41.8875 52.7 41.8875C52.332 41.8875 51.9791 41.7413 51.7189 41.4811C51.4587 41.2209 51.3125 40.868 51.3125 40.5C51.3125 40.132 51.4587 39.7791 51.7189 39.5189C51.9791 39.2587 52.332 39.1125 52.7 39.1125ZM63.8 39.1125C64.168 39.1125 64.5209 39.2587 64.7811 39.5189C65.0413 39.7791 65.1875 40.132 65.1875 40.5C65.1875 40.868 65.0413 41.2209 64.7811 41.4811C64.5209 41.7413 64.168 41.8875 63.8 41.8875C63.432 41.8875 63.0791 41.7413 62.8189 41.4811C62.5587 41.2209 62.4125 40.868 62.4125 40.5C62.4125 40.132 62.5587 39.7791 62.8189 39.5189C63.0791 39.2587 63.432 39.1125 63.8 39.1125V39.1125Z" fill="#4E67AA"/>
</g>
<path d="M90.2642 42V27.4545H96.0028C97.1013 27.4545 98.0388 27.651 98.8153 28.044C99.5966 28.4323 100.191 28.9839 100.598 29.6989C101.01 30.4091 101.216 31.2448 101.216 32.206C101.216 33.1719 101.008 34.0028 100.591 34.6989C100.174 35.3902 99.5705 35.9205 98.7798 36.2898C97.9938 36.6591 97.0421 36.8438 95.9247 36.8438H92.0824V34.3722H95.4276C96.0147 34.3722 96.5024 34.2917 96.8906 34.1307C97.2789 33.9697 97.5677 33.7282 97.7571 33.4062C97.9512 33.0843 98.0483 32.6842 98.0483 32.206C98.0483 31.723 97.9512 31.3158 97.7571 30.9844C97.5677 30.6529 97.2765 30.402 96.8835 30.2315C96.4953 30.0563 96.0052 29.9688 95.4134 29.9688H93.3395V42H90.2642ZM98.1193 35.3807L101.734 42H98.3395L94.8026 35.3807H98.1193ZM103.389 42V27.4545H113.19V29.9901H106.464V33.456H112.686V35.9915H106.464V39.4645H113.219V42H103.389ZM123.526 31.6378C123.469 31.0649 123.225 30.6198 122.794 30.3026C122.364 29.9853 121.779 29.8267 121.04 29.8267C120.538 29.8267 120.114 29.8977 119.769 30.0398C119.423 30.1771 119.158 30.3688 118.973 30.6151C118.793 30.8613 118.703 31.1406 118.703 31.4531C118.694 31.7135 118.748 31.9408 118.867 32.1349C118.99 32.3291 119.158 32.4972 119.371 32.6392C119.584 32.7765 119.83 32.8973 120.11 33.0014C120.389 33.1009 120.687 33.1861 121.005 33.2571L122.311 33.5696C122.946 33.7116 123.528 33.901 124.059 34.1378C124.589 34.3745 125.048 34.6657 125.436 35.0114C125.825 35.357 126.125 35.7642 126.338 36.233C126.556 36.7017 126.667 37.2391 126.672 37.8452C126.667 38.7353 126.44 39.5071 125.99 40.1605C125.545 40.8092 124.901 41.3134 124.059 41.6733C123.221 42.0284 122.21 42.206 121.026 42.206C119.852 42.206 118.829 42.026 117.958 41.6662C117.091 41.3063 116.414 40.7737 115.926 40.0682C115.444 39.358 115.19 38.4796 115.167 37.4332H118.142C118.176 37.9209 118.315 38.3281 118.561 38.6548C118.812 38.9768 119.146 39.2206 119.563 39.3864C119.984 39.5473 120.46 39.6278 120.99 39.6278C121.511 39.6278 121.963 39.5521 122.347 39.4006C122.735 39.2491 123.036 39.0384 123.249 38.7685C123.462 38.4986 123.569 38.1884 123.569 37.8381C123.569 37.5114 123.471 37.2367 123.277 37.0142C123.088 36.7917 122.809 36.6023 122.439 36.446C122.075 36.2898 121.627 36.1477 121.097 36.0199L119.513 35.6222C118.287 35.3239 117.319 34.8575 116.608 34.223C115.898 33.5885 115.545 32.7339 115.55 31.6591C115.545 30.7784 115.78 30.009 116.253 29.3509C116.731 28.6927 117.387 28.179 118.221 27.8097C119.054 27.4403 120.001 27.2557 121.061 27.2557C122.141 27.2557 123.083 27.4403 123.888 27.8097C124.698 28.179 125.328 28.6927 125.777 29.3509C126.227 30.009 126.459 30.7713 126.473 31.6378H123.526ZM128.187 29.9901V27.4545H140.133V29.9901H135.68V42H132.64V29.9901H128.187ZM148.235 33.527V35.9276H141.601V33.527H148.235ZM153.377 42H150.081L155.103 27.4545H159.066L164.08 42H160.784L157.141 30.7784H157.027L153.377 42ZM153.171 36.2827H160.955V38.6832H153.171V36.2827ZM165.831 42V27.4545H171.569C172.672 27.4545 173.612 27.6652 174.389 28.0866C175.165 28.5033 175.757 29.0833 176.164 29.8267C176.576 30.5653 176.782 31.4176 176.782 32.3835C176.782 33.3494 176.574 34.2017 176.157 34.9403C175.741 35.679 175.137 36.2543 174.346 36.6662C173.56 37.0781 172.609 37.2841 171.491 37.2841H167.833V34.8196H170.994C171.586 34.8196 172.074 34.7178 172.457 34.5142C172.845 34.3059 173.134 34.0194 173.324 33.6548C173.518 33.2855 173.615 32.8617 173.615 32.3835C173.615 31.9006 173.518 31.4792 173.324 31.1193C173.134 30.7547 172.845 30.473 172.457 30.2741C172.069 30.0705 171.576 29.9688 170.98 29.9688H168.906V42H165.831ZM181.855 27.4545V42H178.78V27.4545H181.855Z" fill="#4E67AA"/>
<defs>
<filter id="filter0_d_6_479" x="22" y="9" width="230" height="60" filterUnits="userSpaceOnUse" color-interpolation-filters="sRGB">
<feFlood flood-opacity="0" result="BackgroundImageFix"/>
<feColorMatrix in="SourceAlpha" type="matrix" values="0 0 0 0 0 0 0 0 0 0 0 0 0 0 0 0 0 0 127 0" result="hardAlpha"/>
<feOffset dx="2" dy="4"/>
<feGaussianBlur stdDeviation="2.5"/>
<feComposite in2="hardAlpha" operator="out"/>
<feColorMatrix type="matrix" values="0 0 0 0 0 0 0 0 0 0 0 0 0 0 0 0 0 0 0.25 0"/>
<feBlend mode="normal" in2="BackgroundImageFix" result="effect1_dropShadow_6_479"/>
<feBlend mode="normal" in="SourceGraphic" in2="effect1_dropShadow_6_479" result="shape"/>
</filter>
<clipPath id="clip0_6_479">
<rect width="33.3" height="33.3" fill="white" transform="translate(41.6 18.3)"/>
</clipPath>
</defs>
</svg>
