<svg width="270" height="70" viewBox="0 0 270 70" fill="none" xmlns="http://www.w3.org/2000/svg">
<g filter="url(#filter0_d_6_430)">
<rect x="25" y="10" width="220" height="50" rx="15" fill="white"/>
</g>
<path d="M58.25 21.075C60.0721 21.075 61.8763 21.4339 63.5597 22.1312C65.2431 22.8285 66.7727 23.8505 68.0611 25.1389C69.3495 26.4273 70.3715 27.9569 71.0688 29.6403C71.7661 31.3237 72.125 33.1279 72.125 34.95C72.125 38.6299 70.6632 42.159 68.0611 44.7611C65.459 47.3632 61.9299 48.825 58.25 48.825C56.4279 48.825 54.6237 48.4661 52.9403 47.7688C51.2569 47.0715 49.7273 46.0495 48.4389 44.7611C45.8368 42.159 44.375 38.6299 44.375 34.95C44.375 31.2701 45.8368 27.741 48.4389 25.1389C51.041 22.5368 54.5701 21.075 58.25 21.075V21.075ZM55.475 39.5704C55.697 40.3196 55.6693 41.0134 55.475 41.6516C55.475 41.721 55.4195 41.7904 55.3917 41.8875C55.364 41.8875 55.3363 41.9846 55.2946 42.054C55.142 42.387 54.92 42.7061 54.6564 42.9836C53.8516 43.8716 52.7 44.2046 52.2421 43.9271C51.7149 43.6219 52.0063 42.3731 52.922 41.388C53.921 40.3335 55.364 39.6397 55.364 39.6397L55.475 39.5704ZM66.9496 27.0135C66.3253 24.5437 62.2321 23.739 58.3749 25.1126C56.0716 25.9312 53.5741 27.2077 51.7843 28.8866C49.6614 30.8846 49.3145 32.619 49.4532 33.3405C49.925 35.8935 53.4493 37.5724 54.8923 38.8072V38.8211C54.476 39.0292 51.368 40.5971 50.6188 42.2066C49.8695 43.8994 50.7575 45.1204 51.3125 45.2869C53.1718 45.7864 55.0449 44.8845 56.0439 43.3721C57.0151 41.9291 56.9458 40.056 56.5156 39.1125C57.0984 38.9737 57.7783 38.9044 58.6385 39.0015C61.0805 39.2929 61.5523 40.8052 61.4551 41.4435C61.3719 42.0817 60.8585 42.4286 60.692 42.5396C60.5255 42.6367 60.47 42.6784 60.4839 42.7616C60.4978 42.8726 60.581 42.8726 60.7198 42.8449C60.9279 42.8032 62.0101 42.3315 62.0518 41.1521C62.1073 39.6536 60.6781 37.9886 58.1529 38.0302C57.1123 38.058 56.4601 38.1551 55.9884 38.3355L55.8774 38.2106C54.3095 36.5456 51.4235 35.3662 51.5484 33.1185C51.59 32.2999 51.8675 30.1631 57.0984 27.5546C61.3719 25.4179 64.799 26.0006 65.3956 27.3187C66.242 29.1641 63.5641 32.619 59.1241 33.1185C57.4314 33.3127 56.5295 32.6467 56.3075 32.4109C56.0716 32.175 56.0439 32.1334 55.9606 32.175C55.808 32.2721 55.9051 32.4941 55.9606 32.6329C56.0855 32.9797 56.6405 33.5625 57.5563 33.8955C58.3749 34.1591 60.3729 34.3117 62.7733 33.3821C65.465 32.3415 67.574 29.4416 66.9496 27.0135Z" fill="#4E67AA"/>
<path d="M98.1548 31.6378C98.098 31.0649 97.8542 30.6198 97.4233 30.3026C96.9924 29.9853 96.4077 29.8267 95.669 29.8267C95.1671 29.8267 94.7434 29.8977 94.3977 30.0398C94.0521 30.1771 93.7869 30.3688 93.6023 30.6151C93.4223 30.8613 93.3324 31.1406 93.3324 31.4531C93.3229 31.7135 93.3774 31.9408 93.4957 32.1349C93.6188 32.3291 93.7869 32.4972 94 32.6392C94.2131 32.7765 94.4593 32.8973 94.7386 33.0014C95.018 33.1009 95.3163 33.1861 95.6335 33.2571L96.9403 33.5696C97.5748 33.7116 98.1572 33.901 98.6875 34.1378C99.2178 34.3745 99.6771 34.6657 100.065 35.0114C100.454 35.357 100.754 35.7642 100.967 36.233C101.185 36.7017 101.296 37.2391 101.301 37.8452C101.296 38.7353 101.069 39.5071 100.619 40.1605C100.174 40.8092 99.5303 41.3134 98.6875 41.6733C97.8494 42.0284 96.8385 42.206 95.6548 42.206C94.4806 42.206 93.4579 42.026 92.5866 41.6662C91.7202 41.3063 91.0431 40.7737 90.5554 40.0682C90.0724 39.358 89.8191 38.4796 89.7955 37.4332H92.7713C92.8045 37.9209 92.9441 38.3281 93.1903 38.6548C93.4413 38.9768 93.7751 39.2206 94.1918 39.3864C94.6132 39.5473 95.089 39.6278 95.6193 39.6278C96.1402 39.6278 96.5923 39.5521 96.9759 39.4006C97.3641 39.2491 97.6648 39.0384 97.8778 38.7685C98.0909 38.4986 98.1974 38.1884 98.1974 37.8381C98.1974 37.5114 98.1004 37.2367 97.9062 37.0142C97.7169 36.7917 97.4375 36.6023 97.0682 36.446C96.7036 36.2898 96.2562 36.1477 95.7259 36.0199L94.142 35.6222C92.9157 35.3239 91.9474 34.8575 91.2372 34.223C90.527 33.5885 90.1742 32.7339 90.179 31.6591C90.1742 30.7784 90.4086 30.009 90.8821 29.3509C91.3603 28.6927 92.0161 28.179 92.8494 27.8097C93.6828 27.4403 94.6297 27.2557 95.6903 27.2557C96.7699 27.2557 97.7121 27.4403 98.517 27.8097C99.3267 28.179 99.9564 28.6927 100.406 29.3509C100.856 30.009 101.088 30.7713 101.102 31.6378H98.1548ZM105.545 42H102.249L107.271 27.4545H111.234L116.248 42H112.952L109.309 30.7784H109.195L105.545 42ZM105.339 36.2827H113.123V38.6832H105.339V36.2827ZM125.557 31.6378C125.5 31.0649 125.257 30.6198 124.826 30.3026C124.395 29.9853 123.81 29.8267 123.071 29.8267C122.569 29.8267 122.146 29.8977 121.8 30.0398C121.454 30.1771 121.189 30.3688 121.005 30.6151C120.825 30.8613 120.735 31.1406 120.735 31.4531C120.725 31.7135 120.78 31.9408 120.898 32.1349C121.021 32.3291 121.189 32.4972 121.402 32.6392C121.615 32.7765 121.862 32.8973 122.141 33.0014C122.42 33.1009 122.719 33.1861 123.036 33.2571L124.343 33.5696C124.977 33.7116 125.56 33.901 126.09 34.1378C126.62 34.3745 127.079 34.6657 127.468 35.0114C127.856 35.357 128.157 35.7642 128.37 36.233C128.587 36.7017 128.699 37.2391 128.703 37.8452C128.699 38.7353 128.471 39.5071 128.022 40.1605C127.577 40.8092 126.933 41.3134 126.09 41.6733C125.252 42.0284 124.241 42.206 123.057 42.206C121.883 42.206 120.86 42.026 119.989 41.6662C119.123 41.3063 118.445 40.7737 117.958 40.0682C117.475 39.358 117.221 38.4796 117.198 37.4332H120.174C120.207 37.9209 120.346 38.3281 120.593 38.6548C120.844 38.9768 121.177 39.2206 121.594 39.3864C122.016 39.5473 122.491 39.6278 123.022 39.6278C123.542 39.6278 123.995 39.5521 124.378 39.4006C124.766 39.2491 125.067 39.0384 125.28 38.7685C125.493 38.4986 125.6 38.1884 125.6 37.8381C125.6 37.5114 125.503 37.2367 125.309 37.0142C125.119 36.7917 124.84 36.6023 124.471 36.446C124.106 36.2898 123.658 36.1477 123.128 36.0199L121.544 35.6222C120.318 35.3239 119.35 34.8575 118.64 34.223C117.929 33.5885 117.577 32.7339 117.581 31.6591C117.577 30.7784 117.811 30.009 118.284 29.3509C118.763 28.6927 119.418 28.179 120.252 27.8097C121.085 27.4403 122.032 27.2557 123.093 27.2557C124.172 27.2557 125.114 27.4403 125.919 27.8097C126.729 28.179 127.359 28.6927 127.809 29.3509C128.258 30.009 128.49 30.7713 128.505 31.6378H125.557ZM138.663 31.6378C138.606 31.0649 138.362 30.6198 137.931 30.3026C137.5 29.9853 136.915 29.8267 136.177 29.8267C135.675 29.8267 135.251 29.8977 134.906 30.0398C134.56 30.1771 134.295 30.3688 134.11 30.6151C133.93 30.8613 133.84 31.1406 133.84 31.4531C133.831 31.7135 133.885 31.9408 134.004 32.1349C134.127 32.3291 134.295 32.4972 134.508 32.6392C134.721 32.7765 134.967 32.8973 135.246 33.0014C135.526 33.1009 135.824 33.1861 136.141 33.2571L137.448 33.5696C138.083 33.7116 138.665 33.901 139.195 34.1378C139.726 34.3745 140.185 34.6657 140.573 35.0114C140.961 35.357 141.262 35.7642 141.475 36.233C141.693 36.7017 141.804 37.2391 141.809 37.8452C141.804 38.7353 141.577 39.5071 141.127 40.1605C140.682 40.8092 140.038 41.3134 139.195 41.6733C138.357 42.0284 137.346 42.206 136.163 42.206C134.988 42.206 133.966 42.026 133.094 41.6662C132.228 41.3063 131.551 40.7737 131.063 40.0682C130.58 39.358 130.327 38.4796 130.303 37.4332H133.279C133.312 37.9209 133.452 38.3281 133.698 38.6548C133.949 38.9768 134.283 39.2206 134.7 39.3864C135.121 39.5473 135.597 39.6278 136.127 39.6278C136.648 39.6278 137.1 39.5521 137.484 39.4006C137.872 39.2491 138.173 39.0384 138.386 38.7685C138.599 38.4986 138.705 38.1884 138.705 37.8381C138.705 37.5114 138.608 37.2367 138.414 37.0142C138.225 36.7917 137.945 36.6023 137.576 36.446C137.211 36.2898 136.764 36.1477 136.234 36.0199L134.65 35.6222C133.424 35.3239 132.455 34.8575 131.745 34.223C131.035 33.5885 130.682 32.7339 130.687 31.6591C130.682 30.7784 130.916 30.009 131.39 29.3509C131.868 28.6927 132.524 28.179 133.357 27.8097C134.191 27.4403 135.138 27.2557 136.198 27.2557C137.278 27.2557 138.22 27.4403 139.025 27.8097C139.835 28.179 140.464 28.6927 140.914 29.3509C141.364 30.009 141.596 30.7713 141.61 31.6378H138.663ZM150.156 26.7727L145.468 44.1875H142.862L147.549 26.7727H150.156ZM159.561 31.6378C159.504 31.0649 159.26 30.6198 158.83 30.3026C158.399 29.9853 157.814 29.8267 157.075 29.8267C156.573 29.8267 156.15 29.8977 155.804 30.0398C155.458 30.1771 155.193 30.3688 155.009 30.6151C154.829 30.8613 154.739 31.1406 154.739 31.4531C154.729 31.7135 154.784 31.9408 154.902 32.1349C155.025 32.3291 155.193 32.4972 155.406 32.6392C155.619 32.7765 155.866 32.8973 156.145 33.0014C156.424 33.1009 156.723 33.1861 157.04 33.2571L158.347 33.5696C158.981 33.7116 159.563 33.901 160.094 34.1378C160.624 34.3745 161.083 34.6657 161.472 35.0114C161.86 35.357 162.161 35.7642 162.374 36.233C162.591 36.7017 162.703 37.2391 162.707 37.8452C162.703 38.7353 162.475 39.5071 162.026 40.1605C161.58 40.8092 160.937 41.3134 160.094 41.6733C159.256 42.0284 158.245 42.206 157.061 42.206C155.887 42.206 154.864 42.026 153.993 41.6662C153.126 41.3063 152.449 40.7737 151.962 40.0682C151.479 39.358 151.225 38.4796 151.202 37.4332H154.178C154.211 37.9209 154.35 38.3281 154.597 38.6548C154.848 38.9768 155.181 39.2206 155.598 39.3864C156.019 39.5473 156.495 39.6278 157.026 39.6278C157.546 39.6278 157.999 39.5521 158.382 39.4006C158.77 39.2491 159.071 39.0384 159.284 38.7685C159.497 38.4986 159.604 38.1884 159.604 37.8381C159.604 37.5114 159.507 37.2367 159.312 37.0142C159.123 36.7917 158.844 36.6023 158.474 36.446C158.11 36.2898 157.662 36.1477 157.132 36.0199L155.548 35.6222C154.322 35.3239 153.354 34.8575 152.643 34.223C151.933 33.5885 151.58 32.7339 151.585 31.6591C151.58 30.7784 151.815 30.009 152.288 29.3509C152.767 28.6927 153.422 28.179 154.256 27.8097C155.089 27.4403 156.036 27.2557 157.097 27.2557C158.176 27.2557 159.118 27.4403 159.923 27.8097C160.733 28.179 161.363 28.6927 161.812 29.3509C162.262 30.009 162.494 30.7713 162.509 31.6378H159.561ZM177.61 32.5469H174.499C174.442 32.1444 174.326 31.7869 174.151 31.4744C173.976 31.1572 173.751 30.8873 173.476 30.6648C173.202 30.4422 172.884 30.2718 172.525 30.1534C172.169 30.035 171.783 29.9759 171.367 29.9759C170.614 29.9759 169.958 30.1629 169.4 30.5369C168.841 30.9062 168.408 31.446 168.1 32.1562C167.792 32.8617 167.638 33.7187 167.638 34.7273C167.638 35.7642 167.792 36.6354 168.1 37.3409C168.412 38.0464 168.848 38.5791 169.407 38.9389C169.965 39.2988 170.612 39.4787 171.346 39.4787C171.757 39.4787 172.139 39.4242 172.489 39.3153C172.844 39.2064 173.159 39.0478 173.434 38.8395C173.708 38.6264 173.935 38.3684 174.115 38.0653C174.3 37.7623 174.428 37.4167 174.499 37.0284L177.61 37.0426C177.529 37.7102 177.328 38.3542 177.006 38.9744C176.689 39.59 176.26 40.1416 175.721 40.6293C175.185 41.1122 174.546 41.4957 173.803 41.7798C173.064 42.0592 172.229 42.1989 171.296 42.1989C169.998 42.1989 168.838 41.9053 167.816 41.3182C166.798 40.7311 165.993 39.8812 165.401 38.7685C164.814 37.6558 164.52 36.3087 164.52 34.7273C164.52 33.1411 164.819 31.7917 165.415 30.679C166.012 29.5663 166.821 28.7187 167.844 28.1364C168.867 27.5492 170.017 27.2557 171.296 27.2557C172.139 27.2557 172.92 27.3741 173.64 27.6108C174.364 27.8475 175.006 28.1932 175.564 28.6477C176.123 29.0975 176.578 29.6491 176.928 30.3026C177.283 30.956 177.51 31.7041 177.61 32.5469ZM187.706 31.6378C187.649 31.0649 187.405 30.6198 186.974 30.3026C186.543 29.9853 185.958 29.8267 185.22 29.8267C184.718 29.8267 184.294 29.8977 183.949 30.0398C183.603 30.1771 183.338 30.3688 183.153 30.6151C182.973 30.8613 182.883 31.1406 182.883 31.4531C182.874 31.7135 182.928 31.9408 183.047 32.1349C183.17 32.3291 183.338 32.4972 183.551 32.6392C183.764 32.7765 184.01 32.8973 184.289 33.0014C184.569 33.1009 184.867 33.1861 185.184 33.2571L186.491 33.5696C187.126 33.7116 187.708 33.901 188.238 34.1378C188.769 34.3745 189.228 34.6657 189.616 35.0114C190.004 35.357 190.305 35.7642 190.518 36.233C190.736 36.7017 190.847 37.2391 190.852 37.8452C190.847 38.7353 190.62 39.5071 190.17 40.1605C189.725 40.8092 189.081 41.3134 188.238 41.6733C187.4 42.0284 186.389 42.206 185.206 42.206C184.031 42.206 183.009 42.026 182.137 41.6662C181.271 41.3063 180.594 40.7737 180.106 40.0682C179.623 39.358 179.37 38.4796 179.346 37.4332H182.322C182.355 37.9209 182.495 38.3281 182.741 38.6548C182.992 38.9768 183.326 39.2206 183.743 39.3864C184.164 39.5473 184.64 39.6278 185.17 39.6278C185.691 39.6278 186.143 39.5521 186.527 39.4006C186.915 39.2491 187.216 39.0384 187.429 38.7685C187.642 38.4986 187.748 38.1884 187.748 37.8381C187.748 37.5114 187.651 37.2367 187.457 37.0142C187.268 36.7917 186.988 36.6023 186.619 36.446C186.254 36.2898 185.807 36.1477 185.277 36.0199L183.693 35.6222C182.467 35.3239 181.498 34.8575 180.788 34.223C180.078 33.5885 179.725 32.7339 179.73 31.6591C179.725 30.7784 179.959 30.009 180.433 29.3509C180.911 28.6927 181.567 28.179 182.4 27.8097C183.234 27.4403 184.181 27.2557 185.241 27.2557C186.321 27.2557 187.263 27.4403 188.068 27.8097C188.877 28.179 189.507 28.6927 189.957 29.3509C190.407 30.009 190.639 30.7713 190.653 31.6378H187.706ZM200.811 31.6378C200.754 31.0649 200.51 30.6198 200.08 30.3026C199.649 29.9853 199.064 29.8267 198.325 29.8267C197.823 29.8267 197.4 29.8977 197.054 30.0398C196.708 30.1771 196.443 30.3688 196.259 30.6151C196.079 30.8613 195.989 31.1406 195.989 31.4531C195.979 31.7135 196.034 31.9408 196.152 32.1349C196.275 32.3291 196.443 32.4972 196.656 32.6392C196.869 32.7765 197.116 32.8973 197.395 33.0014C197.674 33.1009 197.973 33.1861 198.29 33.2571L199.597 33.5696C200.231 33.7116 200.813 33.901 201.344 34.1378C201.874 34.3745 202.333 34.6657 202.722 35.0114C203.11 35.357 203.411 35.7642 203.624 36.233C203.841 36.7017 203.953 37.2391 203.957 37.8452C203.953 38.7353 203.725 39.5071 203.276 40.1605C202.83 40.8092 202.187 41.3134 201.344 41.6733C200.506 42.0284 199.495 42.206 198.311 42.206C197.137 42.206 196.114 42.026 195.243 41.6662C194.376 41.3063 193.699 40.7737 193.212 40.0682C192.729 39.358 192.475 38.4796 192.452 37.4332H195.428C195.461 37.9209 195.6 38.3281 195.847 38.6548C196.098 38.9768 196.431 39.2206 196.848 39.3864C197.269 39.5473 197.745 39.6278 198.276 39.6278C198.796 39.6278 199.249 39.5521 199.632 39.4006C200.02 39.2491 200.321 39.0384 200.534 38.7685C200.747 38.4986 200.854 38.1884 200.854 37.8381C200.854 37.5114 200.757 37.2367 200.562 37.0142C200.373 36.7917 200.094 36.6023 199.724 36.446C199.36 36.2898 198.912 36.1477 198.382 36.0199L196.798 35.6222C195.572 35.3239 194.604 34.8575 193.893 34.223C193.183 33.5885 192.83 32.7339 192.835 31.6591C192.83 30.7784 193.065 30.009 193.538 29.3509C194.017 28.6927 194.672 28.179 195.506 27.8097C196.339 27.4403 197.286 27.2557 198.347 27.2557C199.426 27.2557 200.368 27.4403 201.173 27.8097C201.983 28.179 202.613 28.6927 203.062 29.3509C203.512 30.009 203.744 30.7713 203.759 31.6378H200.811Z" fill="#4E67AA"/>
<defs>
<filter id="filter0_d_6_430" x="22" y="9" width="230" height="60" filterUnits="userSpaceOnUse" color-interpolation-filters="sRGB">
<feFlood flood-opacity="0" result="BackgroundImageFix"/>
<feColorMatrix in="SourceAlpha" type="matrix" values="0 0 0 0 0 0 0 0 0 0 0 0 0 0 0 0 0 0 127 0" result="hardAlpha"/>
<feOffset dx="2" dy="4"/>
<feGaussianBlur stdDeviation="2.5"/>
<feComposite in2="hardAlpha" operator="out"/>
<feColorMatrix type="matrix" values="0 0 0 0 0 0 0 0 0 0 0 0 0 0 0 0 0 0 0.25 0"/>
<feBlend mode="normal" in2="BackgroundImageFix" result="effect1_dropShadow_6_430"/>
<feBlend mode="normal" in="SourceGraphic" in2="effect1_dropShadow_6_430" result="shape"/>
</filter>
</defs>
</svg>
