<svg width="270" height="70" viewBox="0 0 270 70" fill="none" xmlns="http://www.w3.org/2000/svg">
<g filter="url(#filter0_d_6_288)">
<rect x="25" y="10" width="220" height="50" rx="15" fill="white"/>
</g>
<g clip-path="url(#clip0_6_288)">
<path d="M62.1003 20.9016L58.25 27.5095L54.3997 20.9016H41.6L58.25 49.5188L74.9 20.9016H62.1003Z" fill="#4E67AA"/>
<path d="M62.1003 20.9016L58.25 27.5095L54.3997 20.9016H48.26L58.25 38.0719L68.24 20.9016H62.1003Z" fill="#37A2C3"/>
</g>
<path d="M92.892 27.4545L96.4077 38.5057H96.5426L100.065 27.4545H103.474L98.4602 42H94.4972L89.4759 27.4545H92.892ZM112.164 37.3551V31.0909H115.19V42H112.285V40.0185H112.171C111.925 40.6577 111.515 41.1714 110.942 41.5597C110.374 41.9479 109.681 42.142 108.862 42.142C108.132 42.142 107.491 41.9763 106.937 41.6449C106.383 41.3134 105.95 40.8423 105.637 40.2315C105.329 39.6207 105.173 38.8892 105.168 38.0369V31.0909H108.194V37.4972C108.199 38.1411 108.371 38.6501 108.712 39.0241C109.053 39.3982 109.51 39.5852 110.083 39.5852C110.448 39.5852 110.789 39.5024 111.106 39.3366C111.423 39.1662 111.679 38.9152 111.873 38.5838C112.072 38.2524 112.169 37.8428 112.164 37.3551ZM122.581 42.2131C121.459 42.2131 120.493 41.9858 119.684 41.5312C118.879 41.072 118.258 40.4233 117.823 39.5852C117.387 38.7424 117.169 37.7457 117.169 36.5952C117.169 35.473 117.387 34.4882 117.823 33.6406C118.258 32.7931 118.872 32.1326 119.662 31.6591C120.458 31.1856 121.391 30.9489 122.461 30.9489C123.18 30.9489 123.85 31.0649 124.471 31.2969C125.096 31.5241 125.64 31.8674 126.104 32.3267C126.573 32.786 126.937 33.3636 127.198 34.0597C127.458 34.7509 127.588 35.5606 127.588 36.4886V37.3196H118.377V35.4446H124.74C124.74 35.009 124.646 34.6231 124.456 34.2869C124.267 33.9508 124.004 33.688 123.668 33.4986C123.337 33.3045 122.951 33.2074 122.51 33.2074C122.051 33.2074 121.644 33.3139 121.289 33.527C120.938 33.7353 120.664 34.017 120.465 34.3722C120.266 34.7225 120.164 35.1132 120.159 35.544V37.3267C120.159 37.8665 120.259 38.3329 120.458 38.7259C120.661 39.1188 120.948 39.4219 121.317 39.6349C121.686 39.848 122.124 39.9545 122.631 39.9545C122.967 39.9545 123.275 39.9072 123.554 39.8125C123.834 39.7178 124.073 39.5758 124.272 39.3864C124.471 39.197 124.622 38.965 124.726 38.6903L127.525 38.875C127.382 39.5473 127.091 40.1345 126.651 40.6364C126.215 41.1335 125.652 41.5218 124.961 41.8011C124.274 42.0758 123.481 42.2131 122.581 42.2131ZM135.444 27.4545H138.483V37.5966C138.483 38.5341 138.273 39.3485 137.851 40.0398C137.435 40.7311 136.855 41.2637 136.111 41.6378C135.368 42.0118 134.504 42.1989 133.519 42.1989C132.643 42.1989 131.847 42.045 131.132 41.7372C130.422 41.4247 129.859 40.9512 129.442 40.3168C129.025 39.6776 128.819 38.875 128.824 37.9091H131.885C131.895 38.2926 131.973 38.6217 132.12 38.8963C132.271 39.1662 132.477 39.3745 132.738 39.5213C133.003 39.6634 133.315 39.7344 133.675 39.7344C134.054 39.7344 134.373 39.6539 134.634 39.4929C134.899 39.3272 135.1 39.0857 135.238 38.7685C135.375 38.4512 135.444 38.0606 135.444 37.5966V27.4545ZM150.046 34.2017L147.276 34.3722C147.229 34.1354 147.127 33.9223 146.971 33.733C146.814 33.5388 146.608 33.3849 146.353 33.2713C146.102 33.1529 145.801 33.0938 145.451 33.0938C144.982 33.0938 144.587 33.1932 144.265 33.392C143.943 33.5862 143.782 33.8466 143.782 34.1733C143.782 34.4337 143.886 34.6539 144.094 34.8338C144.302 35.0137 144.66 35.1581 145.167 35.267L147.141 35.6648C148.202 35.8826 148.992 36.233 149.513 36.7159C150.034 37.1989 150.294 37.8333 150.294 38.6193C150.294 39.3343 150.084 39.9616 149.662 40.5014C149.246 41.0412 148.673 41.4626 147.944 41.7656C147.219 42.0639 146.383 42.2131 145.436 42.2131C143.992 42.2131 142.842 41.9124 141.985 41.3111C141.132 40.705 140.633 39.8812 140.486 38.8395L143.462 38.6832C143.552 39.1236 143.77 39.4598 144.115 39.6918C144.461 39.919 144.904 40.0327 145.444 40.0327C145.974 40.0327 146.4 39.9309 146.722 39.7273C147.049 39.5189 147.214 39.2514 147.219 38.9247C147.214 38.6501 147.098 38.4252 146.871 38.25C146.644 38.0701 146.293 37.9328 145.82 37.8381L143.931 37.4616C142.865 37.2486 142.072 36.8793 141.551 36.3537C141.035 35.8281 140.777 35.1581 140.777 34.3438C140.777 33.643 140.967 33.0393 141.346 32.5327C141.729 32.026 142.266 31.6354 142.958 31.3608C143.654 31.0862 144.468 30.9489 145.401 30.9489C146.779 30.9489 147.863 31.2401 148.654 31.8224C149.449 32.4048 149.913 33.1979 150.046 34.2017Z" fill="#4E67AA"/>
<defs>
<filter id="filter0_d_6_288" x="22" y="9" width="230" height="60" filterUnits="userSpaceOnUse" color-interpolation-filters="sRGB">
<feFlood flood-opacity="0" result="BackgroundImageFix"/>
<feColorMatrix in="SourceAlpha" type="matrix" values="0 0 0 0 0 0 0 0 0 0 0 0 0 0 0 0 0 0 127 0" result="hardAlpha"/>
<feOffset dx="2" dy="4"/>
<feGaussianBlur stdDeviation="2.5"/>
<feComposite in2="hardAlpha" operator="out"/>
<feColorMatrix type="matrix" values="0 0 0 0 0 0 0 0 0 0 0 0 0 0 0 0 0 0 0.25 0"/>
<feBlend mode="normal" in2="BackgroundImageFix" result="effect1_dropShadow_6_288"/>
<feBlend mode="normal" in="SourceGraphic" in2="effect1_dropShadow_6_288" result="shape"/>
</filter>
<clipPath id="clip0_6_288">
<rect width="33.3" height="33.3" fill="white" transform="translate(41.6 18.3)"/>
</clipPath>
</defs>
</svg>
