<svg width="320" height="70" viewBox="0 0 320 70" fill="none" xmlns="http://www.w3.org/2000/svg">
<g filter="url(#filter0_d_4_14)">
<rect x="25" y="10" width="270" height="50" rx="15" fill="white"/>
</g>
<path d="M59.4849 22.4625L62.2044 23.0175L57.0151 47.4375L54.2956 46.8825L59.4849 22.4625ZM68.7811 34.95L63.8 29.9689V26.0423L72.7078 34.95L63.8 43.8439V39.9173L68.7811 34.95ZM43.7923 34.95L52.7 26.0423V29.9689L47.7189 34.95L52.7 39.9173V43.8439L43.7923 34.95Z" fill="#4E67AA"/>
<path d="M93.5384 42L89.3764 27.4545H92.7358L95.1435 37.5611H95.2642L97.9205 27.4545H100.797L103.446 37.5824H103.574L105.982 27.4545H109.341L105.179 42H102.182L99.4119 32.4901H99.2983L96.5355 42H93.5384ZM114.73 42.2131C113.608 42.2131 112.642 41.9858 111.832 41.5312C111.027 41.072 110.407 40.4233 109.971 39.5852C109.536 38.7424 109.318 37.7457 109.318 36.5952C109.318 35.473 109.536 34.4882 109.971 33.6406C110.407 32.7931 111.02 32.1326 111.811 31.6591C112.606 31.1856 113.539 30.9489 114.609 30.9489C115.329 30.9489 115.999 31.0649 116.619 31.2969C117.244 31.5241 117.788 31.8674 118.252 32.3267C118.721 32.786 119.086 33.3636 119.346 34.0597C119.607 34.7509 119.737 35.5606 119.737 36.4886V37.3196H110.525V35.4446H116.889C116.889 35.009 116.794 34.6231 116.605 34.2869C116.415 33.9508 116.153 33.688 115.816 33.4986C115.485 33.3045 115.099 33.2074 114.659 33.2074C114.199 33.2074 113.792 33.3139 113.437 33.527C113.087 33.7353 112.812 34.017 112.613 34.3722C112.414 34.7225 112.313 35.1132 112.308 35.544V37.3267C112.308 37.8665 112.407 38.3329 112.606 38.7259C112.81 39.1188 113.096 39.4219 113.466 39.6349C113.835 39.848 114.273 39.9545 114.779 39.9545C115.116 39.9545 115.423 39.9072 115.703 39.8125C115.982 39.7178 116.221 39.5758 116.42 39.3864C116.619 39.197 116.77 38.965 116.875 38.6903L119.673 38.875C119.531 39.5473 119.24 40.1345 118.799 40.6364C118.364 41.1335 117.8 41.5218 117.109 41.8011C116.422 42.0758 115.629 42.2131 114.73 42.2131ZM121.768 42V27.4545H124.794V32.9233H124.886C125.019 32.6297 125.21 32.3314 125.461 32.0284C125.717 31.7206 126.048 31.465 126.456 31.2614C126.868 31.053 127.379 30.9489 127.99 30.9489C128.785 30.9489 129.519 31.1572 130.191 31.5739C130.864 31.9858 131.401 32.6084 131.804 33.4418C132.206 34.2704 132.407 35.3097 132.407 36.5597C132.407 37.7765 132.211 38.804 131.818 39.642C131.43 40.4754 130.899 41.1075 130.227 41.5384C129.559 41.9645 128.811 42.1776 127.983 42.1776C127.395 42.1776 126.896 42.0805 126.484 41.8864C126.077 41.6922 125.743 41.4484 125.483 41.1548C125.222 40.8565 125.023 40.5559 124.886 40.2528H124.751V42H121.768ZM124.73 36.5455C124.73 37.1941 124.82 37.7599 125 38.2429C125.18 38.7259 125.44 39.1023 125.781 39.3722C126.122 39.6373 126.536 39.7699 127.024 39.7699C127.516 39.7699 127.933 39.6349 128.274 39.3651C128.615 39.0904 128.873 38.7116 129.048 38.2287C129.228 37.741 129.318 37.1799 129.318 36.5455C129.318 35.9157 129.23 35.3617 129.055 34.8835C128.88 34.4053 128.622 34.0312 128.281 33.7614C127.94 33.4915 127.521 33.3565 127.024 33.3565C126.531 33.3565 126.115 33.4867 125.774 33.7472C125.438 34.0076 125.18 34.3769 125 34.8551C124.82 35.3333 124.73 35.8968 124.73 36.5455ZM138.446 42.1776C137.617 42.1776 136.867 41.9645 136.195 41.5384C135.527 41.1075 134.997 40.4754 134.604 39.642C134.215 38.804 134.021 37.7765 134.021 36.5597C134.021 35.3097 134.223 34.2704 134.625 33.4418C135.027 32.6084 135.563 31.9858 136.23 31.5739C136.902 31.1572 137.639 30.9489 138.439 30.9489C139.05 30.9489 139.559 31.053 139.966 31.2614C140.378 31.465 140.709 31.7206 140.96 32.0284C141.216 32.3314 141.41 32.6297 141.543 32.9233H141.635V27.4545H144.653V42H141.67V40.2528H141.543C141.401 40.5559 141.199 40.8565 140.939 41.1548C140.683 41.4484 140.349 41.6922 139.938 41.8864C139.53 42.0805 139.033 42.1776 138.446 42.1776ZM139.405 39.7699C139.893 39.7699 140.304 39.6373 140.641 39.3722C140.982 39.1023 141.242 38.7259 141.422 38.2429C141.607 37.7599 141.699 37.1941 141.699 36.5455C141.699 35.8968 141.609 35.3333 141.429 34.8551C141.249 34.3769 140.989 34.0076 140.648 33.7472C140.307 33.4867 139.893 33.3565 139.405 33.3565C138.908 33.3565 138.489 33.4915 138.148 33.7614C137.807 34.0312 137.549 34.4053 137.374 34.8835C137.198 35.3617 137.111 35.9157 137.111 36.5455C137.111 37.1799 137.198 37.741 137.374 38.2287C137.554 38.7116 137.812 39.0904 138.148 39.3651C138.489 39.6349 138.908 39.7699 139.405 39.7699ZM152.113 42.2131C150.99 42.2131 150.025 41.9858 149.215 41.5312C148.41 41.072 147.79 40.4233 147.354 39.5852C146.918 38.7424 146.701 37.7457 146.701 36.5952C146.701 35.473 146.918 34.4882 147.354 33.6406C147.79 32.7931 148.403 32.1326 149.194 31.6591C149.989 31.1856 150.922 30.9489 151.992 30.9489C152.712 30.9489 153.382 31.0649 154.002 31.2969C154.627 31.5241 155.171 31.8674 155.635 32.3267C156.104 32.786 156.469 33.3636 156.729 34.0597C156.989 34.7509 157.12 35.5606 157.12 36.4886V37.3196H147.908V35.4446H154.272C154.272 35.009 154.177 34.6231 153.988 34.2869C153.798 33.9508 153.535 33.688 153.199 33.4986C152.868 33.3045 152.482 33.2074 152.042 33.2074C151.582 33.2074 151.175 33.3139 150.82 33.527C150.47 33.7353 150.195 34.017 149.996 34.3722C149.797 34.7225 149.695 35.1132 149.691 35.544V37.3267C149.691 37.8665 149.79 38.3329 149.989 38.7259C150.193 39.1188 150.479 39.4219 150.848 39.6349C151.218 39.848 151.656 39.9545 152.162 39.9545C152.498 39.9545 152.806 39.9072 153.086 39.8125C153.365 39.7178 153.604 39.5758 153.803 39.3864C154.002 39.197 154.153 38.965 154.257 38.6903L157.056 38.875C156.914 39.5473 156.623 40.1345 156.182 40.6364C155.747 41.1335 155.183 41.5218 154.492 41.8011C153.805 42.0758 153.012 42.2131 152.113 42.2131ZM168.972 31.0909L165.158 42H161.749L157.935 31.0909H161.131L163.396 38.8963H163.51L165.768 31.0909H168.972ZM175.14 42.2131C174.018 42.2131 173.052 41.9858 172.242 41.5312C171.437 41.072 170.817 40.4233 170.381 39.5852C169.946 38.7424 169.728 37.7457 169.728 36.5952C169.728 35.473 169.946 34.4882 170.381 33.6406C170.817 32.7931 171.43 32.1326 172.221 31.6591C173.016 31.1856 173.949 30.9489 175.019 30.9489C175.739 30.9489 176.409 31.0649 177.029 31.2969C177.654 31.5241 178.199 31.8674 178.663 32.3267C179.131 32.786 179.496 33.3636 179.756 34.0597C180.017 34.7509 180.147 35.5606 180.147 36.4886V37.3196H170.935V35.4446H177.299C177.299 35.009 177.204 34.6231 177.015 34.2869C176.826 33.9508 176.563 33.688 176.227 33.4986C175.895 33.3045 175.509 33.2074 175.069 33.2074C174.61 33.2074 174.202 33.3139 173.847 33.527C173.497 33.7353 173.222 34.017 173.023 34.3722C172.825 34.7225 172.723 35.1132 172.718 35.544V37.3267C172.718 37.8665 172.817 38.3329 173.016 38.7259C173.22 39.1188 173.506 39.4219 173.876 39.6349C174.245 39.848 174.683 39.9545 175.19 39.9545C175.526 39.9545 175.834 39.9072 176.113 39.8125C176.392 39.7178 176.631 39.5758 176.83 39.3864C177.029 39.197 177.181 38.965 177.285 38.6903L180.083 38.875C179.941 39.5473 179.65 40.1345 179.21 40.6364C178.774 41.1335 178.21 41.5218 177.519 41.8011C176.833 42.0758 176.04 42.2131 175.14 42.2131ZM185.147 27.4545V42H182.121V27.4545H185.147ZM192.5 42.2131C191.396 42.2131 190.442 41.9787 189.637 41.5099C188.837 41.0365 188.219 40.3783 187.784 39.5355C187.348 38.688 187.13 37.7055 187.13 36.5881C187.13 35.4612 187.348 34.4763 187.784 33.6335C188.219 32.786 188.837 32.1278 189.637 31.6591C190.442 31.1856 191.396 30.9489 192.5 30.9489C193.603 30.9489 194.555 31.1856 195.355 31.6591C196.16 32.1278 196.78 32.786 197.216 33.6335C197.651 34.4763 197.869 35.4612 197.869 36.5881C197.869 37.7055 197.651 38.688 197.216 39.5355C196.78 40.3783 196.16 41.0365 195.355 41.5099C194.555 41.9787 193.603 42.2131 192.5 42.2131ZM192.514 39.8693C193.016 39.8693 193.435 39.7273 193.771 39.4432C194.107 39.1544 194.36 38.7614 194.531 38.2642C194.706 37.767 194.794 37.2012 194.794 36.5668C194.794 35.9323 194.706 35.3665 194.531 34.8693C194.36 34.3722 194.107 33.9792 193.771 33.6903C193.435 33.4015 193.016 33.2571 192.514 33.2571C192.007 33.2571 191.581 33.4015 191.235 33.6903C190.895 33.9792 190.636 34.3722 190.461 34.8693C190.291 35.3665 190.206 35.9323 190.206 36.5668C190.206 37.2012 190.291 37.767 190.461 38.2642C190.636 38.7614 190.895 39.1544 191.235 39.4432C191.581 39.7273 192.007 39.8693 192.514 39.8693ZM199.836 46.0909V31.0909H202.819V32.9233H202.954C203.087 32.6297 203.279 32.3314 203.529 32.0284C203.785 31.7206 204.117 31.465 204.524 31.2614C204.936 31.053 205.447 30.9489 206.058 30.9489C206.853 30.9489 207.587 31.1572 208.26 31.5739C208.932 31.9858 209.469 32.6084 209.872 33.4418C210.274 34.2704 210.475 35.3097 210.475 36.5597C210.475 37.7765 210.279 38.804 209.886 39.642C209.498 40.4754 208.967 41.1075 208.295 41.5384C207.627 41.9645 206.879 42.1776 206.051 42.1776C205.464 42.1776 204.964 42.0805 204.552 41.8864C204.145 41.6922 203.811 41.4484 203.551 41.1548C203.29 40.8565 203.092 40.5559 202.954 40.2528H202.862V46.0909H199.836ZM202.798 36.5455C202.798 37.1941 202.888 37.7599 203.068 38.2429C203.248 38.7259 203.508 39.1023 203.849 39.3722C204.19 39.6373 204.604 39.7699 205.092 39.7699C205.584 39.7699 206.001 39.6349 206.342 39.3651C206.683 39.0904 206.941 38.7116 207.116 38.2287C207.296 37.741 207.386 37.1799 207.386 36.5455C207.386 35.9157 207.298 35.3617 207.123 34.8835C206.948 34.4053 206.69 34.0312 206.349 33.7614C206.008 33.4915 205.589 33.3565 205.092 33.3565C204.6 33.3565 204.183 33.4867 203.842 33.7472C203.506 34.0076 203.248 34.3769 203.068 34.8551C202.888 35.3333 202.798 35.8968 202.798 36.5455ZM212.493 42V31.0909H215.376V33.0156H215.504C215.731 32.3764 216.11 31.8722 216.64 31.5028C217.171 31.1335 217.805 30.9489 218.544 30.9489C219.292 30.9489 219.929 31.1359 220.454 31.5099C220.98 31.8793 221.33 32.3812 221.505 33.0156H221.619C221.842 32.3906 222.244 31.8911 222.826 31.517C223.413 31.1383 224.107 30.9489 224.907 30.9489C225.925 30.9489 226.752 31.2732 227.386 31.9219C228.025 32.5658 228.345 33.4796 228.345 34.6634V42H225.326V35.2599C225.326 34.6539 225.165 34.1993 224.843 33.8963C224.521 33.5933 224.119 33.4418 223.636 33.4418C223.087 33.4418 222.658 33.617 222.35 33.9673C222.043 34.313 221.889 34.7699 221.889 35.3381V42H218.956V35.196C218.956 34.661 218.802 34.2348 218.494 33.9176C218.191 33.6004 217.791 33.4418 217.294 33.4418C216.958 33.4418 216.654 33.527 216.385 33.6974C216.119 33.8632 215.909 34.0975 215.752 34.4006C215.596 34.6989 215.518 35.0492 215.518 35.4517V42H212.493ZM235.706 42.2131C234.584 42.2131 233.618 41.9858 232.809 41.5312C232.004 41.072 231.383 40.4233 230.948 39.5852C230.512 38.7424 230.294 37.7457 230.294 36.5952C230.294 35.473 230.512 34.4882 230.948 33.6406C231.383 32.7931 231.997 32.1326 232.787 31.6591C233.583 31.1856 234.516 30.9489 235.586 30.9489C236.305 30.9489 236.975 31.0649 237.596 31.2969C238.221 31.5241 238.765 31.8674 239.229 32.3267C239.698 32.786 240.062 33.3636 240.323 34.0597C240.583 34.7509 240.713 35.5606 240.713 36.4886V37.3196H231.502V35.4446H237.865C237.865 35.009 237.771 34.6231 237.581 34.2869C237.392 33.9508 237.129 33.688 236.793 33.4986C236.462 33.3045 236.076 33.2074 235.635 33.2074C235.176 33.2074 234.769 33.3139 234.414 33.527C234.063 33.7353 233.789 34.017 233.59 34.3722C233.391 34.7225 233.289 35.1132 233.284 35.544V37.3267C233.284 37.8665 233.384 38.3329 233.583 38.7259C233.786 39.1188 234.073 39.4219 234.442 39.6349C234.811 39.848 235.249 39.9545 235.756 39.9545C236.092 39.9545 236.4 39.9072 236.679 39.8125C236.959 39.7178 237.198 39.5758 237.397 39.3864C237.596 39.197 237.747 38.965 237.851 38.6903L240.65 38.875C240.507 39.5473 240.216 40.1345 239.776 40.6364C239.34 41.1335 238.777 41.5218 238.086 41.8011C237.399 42.0758 236.606 42.2131 235.706 42.2131ZM245.713 35.6932V42H242.688V31.0909H245.571V33.0156H245.699C245.941 32.3812 246.346 31.8793 246.914 31.5099C247.482 31.1359 248.171 30.9489 248.98 30.9489C249.738 30.9489 250.399 31.1146 250.962 31.446C251.525 31.7775 251.963 32.2509 252.276 32.8665C252.588 33.4773 252.745 34.2064 252.745 35.054V42H249.719V35.5938C249.724 34.9261 249.553 34.4053 249.208 34.0312C248.862 33.6525 248.386 33.4631 247.78 33.4631C247.373 33.4631 247.013 33.5507 246.701 33.7259C246.393 33.901 246.151 34.1567 245.976 34.4929C245.806 34.8243 245.718 35.2244 245.713 35.6932ZM260.932 31.0909V33.3636H254.362V31.0909H260.932ZM255.854 28.4773H258.879V38.6477C258.879 38.9271 258.922 39.1449 259.007 39.3011C259.092 39.4527 259.211 39.5592 259.362 39.6207C259.518 39.6823 259.698 39.7131 259.902 39.7131C260.044 39.7131 260.186 39.7012 260.328 39.6776C260.47 39.6491 260.579 39.6278 260.655 39.6136L261.131 41.8651C260.979 41.9124 260.766 41.9669 260.491 42.0284C260.217 42.0947 259.883 42.1349 259.49 42.1491C258.761 42.1776 258.122 42.0805 257.572 41.858C257.028 41.6354 256.604 41.2898 256.301 40.821C255.998 40.3523 255.849 39.7604 255.854 39.0455V28.4773Z" fill="#4E67AA"/>
<defs>
<filter id="filter0_d_4_14" x="22" y="9" width="280" height="60" filterUnits="userSpaceOnUse" color-interpolation-filters="sRGB">
<feFlood flood-opacity="0" result="BackgroundImageFix"/>
<feColorMatrix in="SourceAlpha" type="matrix" values="0 0 0 0 0 0 0 0 0 0 0 0 0 0 0 0 0 0 127 0" result="hardAlpha"/>
<feOffset dx="2" dy="4"/>
<feGaussianBlur stdDeviation="2.5"/>
<feComposite in2="hardAlpha" operator="out"/>
<feColorMatrix type="matrix" values="0 0 0 0 0 0 0 0 0 0 0 0 0 0 0 0 0 0 0.25 0"/>
<feBlend mode="normal" in2="BackgroundImageFix" result="effect1_dropShadow_4_14"/>
<feBlend mode="normal" in="SourceGraphic" in2="effect1_dropShadow_4_14" result="shape"/>
</filter>
</defs>
</svg>
